<?xml version="1.0" encoding="UTF-8"?>
<svg width="90px" height="90px" viewBox="0 0 90 90" version="1.1" xmlns="http://www.w3.org/2000/svg" xmlns:xlink="http://www.w3.org/1999/xlink">
    <!-- Generator: Sketch 48.2 (47327) - http://www.bohemiancoding.com/sketch -->
    <title>noun_1379172_cc</title>
    <desc>Created with Sketch.</desc>
    <defs></defs>
    <g id="Page-1" stroke="none" stroke-width="1" fill="none" fill-rule="evenodd">
        <g id="noun_1379172_cc" fill="#000000" fill-rule="nonzero">
            <path d="M45,0.21 C20.2631661,0.21 0.21,20.2631661 0.21,45 C0.21,69.7368339 20.2631661,89.79 45,89.79 C69.7368339,89.79 89.79,69.7368339 89.79,45 C89.7624446,20.2745889 69.7254111,0.237555371 45,0.21 Z M79.35,27 L66.24,27 C64.61,19.64 62,13.35 58.72,8.72 C67.5924732,12.0991228 74.9276144,18.598705 79.35,27 Z M6.21,45 C6.20964172,40.9242875 6.85428139,36.8741953 8.12,33 L22.69,33 C21.6056631,40.9632567 21.6056631,49.0367433 22.69,57 L8.12,57 C6.85428139,53.1258047 6.20964172,49.0757125 6.21,45 Z M27.88,45 C27.9030557,40.9801828 28.2373887,36.9681875 28.88,33 L42,33 L42,57 L28.83,57 C28.2041345,53.0305094 27.8865189,49.0185222 27.88,45 Z M60,27 L48,27 L48,6.84 C53.35,9.09 57.59,17.18 60,27 Z M42,6.84 L42,27 L30,27 C32.41,17.18 36.65,9.09 42,6.84 Z M42,63 L42,83.16 C36.65,80.91 32.41,72.82 30,63 L42,63 Z M48,83.16 L48,63 L60,63 C57.59,72.82 53.35,80.91 48,83.16 Z M48,57 L48,33 L61.17,33 C61.8126113,36.9681875 62.1469443,40.9801828 62.17,45 C62.1469443,49.0198172 61.8126113,53.0318125 61.17,57 L48,57 Z M67.31,33 L81.88,33 C84.4246814,40.7976436 84.4246814,49.2023564 81.88,57 L67.31,57 C67.8545073,53.0232713 68.1251446,49.0138302 68.12,45 C68.1251446,40.9861698 67.8545073,36.9767287 67.31,33 Z M31.31,8.72 C28,13.35 25.39,19.64 23.76,27 L10.65,27 C15.0723856,18.598705 22.4075268,12.0991228 31.28,8.72 L31.31,8.72 Z M10.65,63 L23.76,63 C25.39,70.36 27.99,76.65 31.28,81.28 C22.4075268,77.9008772 15.0723856,71.401295 10.65,63 Z M58.72,81.28 C62,76.65 64.61,70.36 66.24,63 L79.35,63 C74.9276144,71.401295 67.5924732,77.9008772 58.72,81.28 Z" id="Shape"></path>
        </g>
    </g>
</svg>