<svg width="85px" height="85px" viewBox="0 0 85 85" version="1.1"
     xmlns="http://www.w3.org/2000/svg">
    <defs></defs>
    <g id="Group" stroke="none" stroke-width="1" fill="#69aa00" fill-rule="evenodd">
        <path d="M42.1917808,84.4444444 C18.9265297,84.4444444 0,65.5042593 0,42.2222222 C0,18.9401852 18.9265297,0 42.1917808,0 C65.457032,0 84.3835616,18.9401852 84.3835616,42.2222222 C84.3835616,65.5042593 65.457032,84.4444444 42.1917808,84.4444444 L42.1917808,84.4444444 Z M42.1917808,7.03703704 C22.8046575,7.03703704 7.03196347,22.8211111 7.03196347,42.2222222 C7.03196347,61.6233333 22.8046575,77.4074074 42.1917808,77.4074074 C61.5789041,77.4074074 77.3515982,61.6233333 77.3515982,42.2222222 C77.3515982,22.8211111 61.5789041,7.03703704 42.1917808,7.03703704 L42.1917808,7.03703704 Z M38.6757991,59.8148148 C37.7475799,59.8148148 36.8510046,59.4488889 36.19,58.7838889 L22.1260731,44.7098148 C20.7513242,43.3340741 20.7513242,41.1103704 22.1260731,39.7346296 C23.5008219,38.3588889 25.7229224,38.3588889 27.0976712,39.7346296 L38.2960731,50.9411111 L56.9589041,26.037037 C58.1226941,24.4888889 60.3272146,24.1687037 61.8777626,25.3333333 C63.4318265,26.497963 63.7482648,28.7040741 62.5809589,30.2592593 L41.4850685,58.4074074 C40.8732877,59.2237037 39.9380365,59.7338889 38.9219178,59.8042593 L38.6757991,59.8148148 L38.6757991,59.8148148 Z" id="Shape" fill="#000000"></path>
    </g>
</svg>