<svg width="70px" height="77px" viewBox="-4340 -1211 70 77" version="1.1"
     xmlns="http://www.w3.org/2000/svg">
  <defs></defs>
  <g id="noun_376060_cc" stroke="none" stroke-width="1" fill="none" fill-rule="evenodd" transform="translate(-4340.000000, -1211.000000)">
    <g id="Group" fill-rule="nonzero" fill="#000000">
      <g id="a-link">
        <g>
          <g id="a">
            <path d="M20.25,0.807258065 C17.3333333,0.807258065 14.0208333,4.65725806 10.3125,12.3572581 C3.89583333,25.3975806 0.6875,38.0446237 0.6875,50.2983871 C0.6875,67.6026882 5.45833333,76.2548387 15,76.2548387 C18.5,76.2548387 21.5,74.8473118 24,72.0322581 C26.5416667,69.3413978 27.8125,65.9260753 27.8125,61.7862903 C27.8125,53.2583333 24.125,48.9943548 16.75,48.9943548 L12.625,48.9943548 C10.625,48.9943548 9.625,47.2142473 9.625,43.6540323 C9.625,32.5594086 13.7916667,20.6782258 22.125,8.01048387 L23.4375,3.97419355 C23.4375,1.86290323 22.375,0.807258065 20.25,0.807258065 L20.25,0.807258065 Z M65.375,3.97419355 C65.375,1.86290323 64.1875,0.807258065 61.8125,0.807258065 C58.9791667,0.807258065 55.7083333,4.65725806 52,12.3572581 C45.4166667,25.3975806 42.125,38.0446237 42.125,50.2983871 C42.125,67.6026882 46.9166667,76.2548387 56.5,76.2548387 C60.2916667,76.2548387 63.4166667,74.8473118 65.875,72.0322581 C68.1666667,69.3413978 69.3125,65.9260753 69.3125,61.7862903 C69.3125,57.4395161 68.4583333,54.2518817 66.75,52.2233871 C65.0833333,50.0706989 62.4583333,48.9943548 58.875,48.9943548 L54.375,48.9943548 C52.5833333,48.9943548 51.6875,47.2142473 51.6875,43.6540323 C51.6875,32.3524194 55.7291667,20.4712366 63.8125,8.01048387 L65.375,3.97419355 Z" id="Shape"></path>
          </g>
        </g>
      </g>
    </g>
  </g>
</svg>
