<?xml version="1.0" encoding="UTF-8"?>
<svg width="32px" height="33px" viewBox="0 0 32 33" version="1.1"
     xmlns="http://www.w3.org/2000/svg">
    <!-- Generator: Sketch 45.1 (43504) - http://www.bohemiancoding.com/sketch -->
    <title>Shape</title>
    <desc>Created with Sketch.</desc>
    <defs></defs>
    <g id="Page-1" stroke="none" stroke-width="1" fill="none" fill-rule="evenodd">
        <g id="noun_712868_cc" transform="translate(-7.000000, -6.000000)" fill-rule="nonzero" fill="#FFFFFF">
            <g id="Group">
                <g id="Shape">
                    <path d="M23.8729185,25.3623673 C23.3808597,24.8789241 22.5868362,24.8768459 22.0866216,25.3703496 L14.3104317,33.0422141 C13.3693162,33.9597425 14.7804904,35.3355486 15.7216058,34.4180202 L21.646372,28.6422047 C21.8427962,28.4507186 22.0020295,28.5106226 22.0020295,28.8018365 L22.0020295,43.5140272 C22.0020295,44.0516035 22.4486352,44.4870159 23.000031,44.4870159 C23.5509279,44.4870159 23.9980326,44.0516035 23.9980326,43.5140272 L23.9980326,28.8018365 C23.9980326,28.5221882 24.1532799,28.4468328 24.3536901,28.6422047 L30.2784562,34.4180202 C31.2190727,35.3355486 32.6307459,33.9597425 31.6896304,33.0422141 L23.8729185,25.3623673 Z M22.1270815,19.1246486 C22.6191403,19.6080918 23.4131638,19.6101701 23.9133784,19.1166664 L31.6895683,11.4448018 C32.6306838,10.5272734 31.2195096,9.15146731 30.2783942,10.0689957 L24.353628,15.8448113 C24.1572038,16.0362973 23.9979705,15.9763934 23.9979705,15.6851794 L23.9979705,0.972988815 C23.9979705,0.435412515 23.5513648,1.46446624e-08 22.999969,1.46446624e-08 C22.4490721,1.46446624e-08 22.0019674,0.435412515 22.0019674,0.972988815 L22.0019674,15.6851794 C22.0019674,15.9648277 21.8467201,16.0401831 21.6463099,15.8448113 L15.7215438,10.0689957 C14.7809273,9.15146731 13.3692541,10.5272734 14.3103696,11.4448018 L22.1270815,19.1246486 Z" transform="translate(23.000000, 22.243508) rotate(-45.000000) translate(-23.000000, -22.243508) "></path>
                </g>
            </g>
        </g>
    </g>
</svg>