<svg width="68px" height="86px" viewBox="2416 -634 68 86" version="1.1"
     xmlns="http://www.w3.org/2000/svg">
    <defs></defs>
    <g id="Group" stroke="none" stroke-width="1" fill="none" fill-rule="evenodd" transform="translate(2416.000000, -634.000000)">
        <g id="Shape" fill="#000000">
            <path d="M55.6363636,73.7142857 L68,73.7142857 L68,15.3571429 L52.5454545,0 L12.3636364,0 L12.3636364,15.3571429 L0,15.3571429 L0,86 L55.6363636,86 L55.6363636,73.7142857 L55.6363636,73.7142857 Z M52.5454545,73.7142857 L12.3636364,73.7142857 L12.3636364,18.4285714 L3.09090909,18.4285714 L3.09090909,82.9285714 L52.5454545,82.9285714 L52.5454545,73.7142857 L52.5454545,73.7142857 Z M49.4545455,3.07142857 L15.4545455,3.07142857 L15.4545455,70.6428571 L64.9090909,70.6428571 L64.9090909,18.4285714 L49.4545455,18.4285714 L49.4545455,3.07142857 L49.4545455,3.07142857 L49.4545455,3.07142857 Z M52.5454545,4.3 L63.6727273,15.3571429 L52.5454545,15.3571429 L52.5454545,4.3 L52.5454545,4.3 L52.5454545,4.3 Z"></path>
        </g>
    </g>
</svg>