<svg width="21px" height="21px" viewBox="0 0 95 101" version="1.1"
     xmlns="http://www.w3.org/2000/svg">
  <defs></defs>
  <g id="Group" stroke="none" stroke-width="1" fill="#ffffff" fill-rule="evenodd" transform="translate(47.100000, 50.000000) scale(1, -1) translate(-47.100000, -50.000000) translate(0.200000, 0.000000)">
    <path d="M32.4924,99.9627 C29.8186,99.615 27.5334,97.5965 26.8528,94.9734 C26.678,94.3025 26.6223,93.7136 26.6223,92.6326 L26.6223,91.6697 L13.9787,91.6697 C-0.2156,91.6697 1.0803,91.7058 0.5988,91.2752 C0.2355,90.9471 0.1271,90.7117 0.0968,90.2049 C0.0763,89.8358 0.0919,89.7488 0.1993,89.5076 C0.3731,89.1238 0.6036,88.8826 0.9473,88.7137 L1.2393,88.5701 L4.2715,88.5545 L7.3037,88.5399 L7.3301,88.3758 C7.3447,88.283 7.417,87.0946 7.4883,85.7274 C7.5606,84.3592 7.7246,81.4247 7.8526,79.1962 C8.1651,73.5614 8.4571,68.3876 8.6671,64.622 C8.7638,62.8603 8.8927,60.6161 8.9483,59.6279 C9.0049,58.6445 9.1534,55.9902 9.2813,53.7363 C9.6094,47.8301 9.9424,41.9336 10.1778,37.7285 C10.2911,35.7148 10.501,32.0166 10.6387,29.5068 C10.7823,27.0019 10.9414,24.1435 10.9981,23.1543 C11.0538,22.1709 11.2588,18.4668 11.459,14.9326 C11.9297,6.5166 11.9551,6.1269 12.0684,5.6094 C12.4063,4.0987 13.211,2.7412 14.3526,1.752 C15.3419,0.8965 16.3917,0.379 17.713,0.0928 C18.1232,0.0049 19.3575,-7.27595761e-13 46.5997,-7.27595761e-13 L75.0567,-7.27595761e-13 L75.5889,0.1182 C78.7237,0.8194 80.9981,3.3965 81.2549,6.5313 C81.2695,6.7413 81.4336,9.5899 81.6133,12.8584 C81.793,16.126 81.9668,19.2051 81.9971,19.6963 C82.0283,20.1885 82.166,22.6572 82.3047,25.1777 C82.5918,30.3466 82.7969,33.9892 83.0215,37.9589 C83.1709,40.5819 83.4365,45.3612 84.4815,63.9306 C84.7481,68.7206 85.0401,73.8632 85.1221,75.3544 C85.6143,84.0575 85.8399,88.1347 85.8399,88.3241 L85.8399,88.5399 L89.2354,88.5545 C92.586,88.5701 92.6319,88.5701 92.8672,88.6834 C93.4668,88.9598 93.7998,89.4773 93.7998,90.1326 C93.7998,90.7527 93.5029,91.239 92.9697,91.5008 L92.6777,91.6444 L79.9736,91.6698 L67.2695,91.6952 L67.2392,92.9501 C67.2187,93.8573 67.1874,94.3183 67.121,94.6044 C66.8241,95.9628 66.2245,97.0487 65.2519,98.0273 C64.4628,98.8154 63.6484,99.3232 62.624,99.666 C61.5781,100.0195 62.9355,99.9892 47.1377,99.999 C39.0344,100.0037 32.6926,99.9891 32.4924,99.9627 L32.4924,99.9627 Z M61.1896,96.8123 C61.9523,96.6541 62.5568,96.326 63.0949,95.7674 C63.5002,95.3524 63.7717,94.907 63.9504,94.3592 C64.0783,93.9744 64.0891,93.8719 64.1096,92.8123 L64.1301,91.6697 L46.9328,91.6697 L29.7365,91.6697 L29.757,92.7859 C29.7873,94.0213 29.839,94.282 30.1877,94.9529 C30.6994,95.9265 31.7082,96.659 32.8098,96.8435 C32.9436,96.864 39.2952,96.8845 46.9231,96.8894 C59.4221,96.8943 60.8312,96.8846 61.1896,96.8123 L61.1896,96.8123 Z M82.715,88.3963 C82.715,88.3192 82.6125,86.4236 82.4845,84.1854 C82.2589,80.1131 81.9718,75.0106 81.588,68.1825 C81.3107,63.2343 81.0499,58.5927 80.8966,55.8876 C80.8243,54.6483 80.6759,51.9745 80.5636,49.9462 C80.4503,47.9169 80.2765,44.8388 80.1788,43.1073 C80.0811,41.3758 79.8712,37.6874 79.7179,34.911 C79.5646,32.1346 79.3898,29.0604 79.3341,28.0721 C79.2159,25.9764 78.8878,20.1112 78.4884,12.9862 C78.1398,6.7616 78.1251,6.4901 78.0226,6.1063 C77.633,4.6004 76.2853,3.3856 74.7492,3.1502 C74.4982,3.1141 66.0148,3.0994 46.3693,3.1092 C19.8752,3.1248 18.3332,3.1297 18.0412,3.2117 C17.8723,3.2635 17.5139,3.4119 17.2473,3.5447 C16.8323,3.7498 16.6838,3.8621 16.2434,4.3025 C15.7776,4.7644 15.7004,4.8718 15.4651,5.3533 C15.1419,6.0193 15.0657,6.3875 14.9934,7.7097 C14.9065,9.3747 14.5989,14.8659 14.3528,19.2097 C14.2249,21.4636 13.8665,27.8259 13.5589,33.3484 C13.2523,38.8709 12.8929,45.2429 12.765,47.5125 C12.6371,49.7821 12.4632,52.8602 12.3812,54.3514 C12.2943,55.8465 12.1712,58.1063 12.099,59.3709 C12.0277,60.6414 11.9252,62.4705 11.8685,63.4441 C11.8128,64.4168 11.515,69.7546 11.2025,75.3025 C10.89,80.8552 10.6039,85.9783 10.5629,86.6951 C10.5219,87.407 10.4858,88.1199 10.4858,88.2683 L10.4858,88.5447 L46.6001,88.5447 L82.715,88.5447 L82.715,88.3963 L82.715,88.3963 Z" id="Shape"></path>
    <path d="M30.9348,77.5613 C30.4231,77.4334 29.9719,76.9978 29.8235,76.491 C29.7571,76.2508 29.7464,72.8699 29.7571,46.2312 L29.7727,16.239 L29.8948,15.988 C30.2542,15.2546 31.1145,14.9069 31.8626,15.1882 C32.262,15.3366 32.6155,15.6902 32.7591,16.0749 L32.8714,16.3718 L32.8714,46.3288 C32.8714,72.9977 32.8616,76.3122 32.7952,76.5476 C32.6927,76.8855 32.2981,77.3259 31.9651,77.4695 C31.632,77.6082 31.2629,77.6434 30.9348,77.5613 L30.9348,77.5613 Z" id="Shape"></path>
    <path d="M46.6516,77.5877 C46.1594,77.49 45.7239,77.1365 45.5041,76.6648 L45.3967,76.4294 L45.3967,46.3601 L45.3967,16.2898 L45.5295,16.0027 C45.6887,15.6648 45.9602,15.3884 46.2873,15.2293 C46.6467,15.0506 47.2404,15.0604 47.635,15.2547 C47.9475,15.409 48.1731,15.6346 48.3518,15.9725 L48.47,16.1873 L48.4856,46.2312 C48.4954,72.9001 48.4856,76.3015 48.4192,76.5427 C48.3167,76.8855 47.927,77.3259 47.5891,77.4695 C47.3019,77.5877 46.9074,77.6385 46.6516,77.5877 L46.6516,77.5877 Z" id="Shape"></path>
    <path d="M61.215,77.5818 C60.7023,77.4744 60.1906,77.0242 60.047,76.5427 C59.9806,76.3122 59.9699,72.8952 59.9699,46.3288 L59.9699,16.3718 L60.0773,16.0798 C60.2111,15.7312 60.5392,15.3835 60.882,15.2243 C61.2306,15.0651 61.8498,15.0651 62.1828,15.2292 C62.4953,15.3835 62.7824,15.6696 62.9416,15.9821 L63.0695,16.2389 L63.0695,46.3336 L63.0695,76.4293 L62.9621,76.6647 C62.6496,77.3416 61.9172,77.7254 61.215,77.5818 L61.215,77.5818 Z" id="Shape"></path>
  </g>
</svg>
