<svg width="65px" height="65px" viewBox="-915 -554 65 65" version="1.1"
     xmlns="http://www.w3.org/2000/svg">
    <defs></defs>
    <g id="delete-cross-icon" stroke="none" stroke-width="1" fill="none" fill-rule="evenodd" transform="translate(-914.000000, -554.000000)">
        <g id="Group" fill="#ffffff">
            <path d="M42.9037526,32.4986735 L62.5649485,12.7333673 C63.5988454,11.6966837 63.5988454,10.0093367 62.5649485,8.96933673 L55.0762887,1.44127551 C54.0423918,0.401938776 52.3665155,0.401938776 51.331299,1.44127551 L31.6701031,21.2059184 L12.0089072,1.44127551 C10.9743505,0.401938776 9.29913402,0.404591837 8.26391753,1.44127551 L0.775257732,8.9719898 C-0.258639175,10.0113265 -0.258639175,11.6960204 0.775257732,12.7360204 L20.4371134,32.5013265 L0.775257732,52.2633163 C-0.258639175,53.3033163 -0.258639175,54.99 0.775257732,56.0306633 L8.26457732,63.5593878 C9.29913402,64.5987245 10.9743505,64.5960714 12.009567,63.5593878 L31.6701031,43.7934184 L51.331299,63.5587245 C52.3658557,64.5980612 54.041732,64.5980612 55.0762887,63.5587245 L62.5656082,56.0280102 C63.5995052,54.9906633 63.5995052,53.3039796 62.5656082,52.2633163 L42.9037526,32.4986735 L42.9037526,32.4986735 Z" id="Shape"></path>
        </g>
    </g>
</svg>