<?xml version="1.0" encoding="UTF-8"?>
<svg width="317px" height="295px" viewBox="0 0 317 295" version="1.1" xmlns="http://www.w3.org/2000/svg" xmlns:xlink="http://www.w3.org/1999/xlink">
    <!-- Generator: Sketch 50.2 (55047) - http://www.bohemiancoding.com/sketch -->
    <title>Artboard</title>
    <desc>Created with Sketch.</desc>
    <defs></defs>
    <g id="Artboard" stroke="none" stroke-width="1" fill="none" fill-rule="evenodd">
        <rect id="Rectangle-10" fill="#FFE06A" x="0" y="0" width="317" height="295"></rect>
        <path d="M83.078,87.8775 C82.8529989,88.2375018 82.6167512,88.5074991 82.36925,88.6875 C82.1217488,88.8675009 81.8030019,88.9575 81.413,88.9575 C81.0679983,88.9575 80.696752,88.8487511 80.29925,88.63125 C79.901748,88.4137489 79.4517525,88.1700014 78.94925,87.9 C78.4467475,87.6299987 77.8730032,87.3862511 77.228,87.16875 C76.5829968,86.9512489 75.8480041,86.8425 75.023,86.8425 C73.5979929,86.8425 72.5367535,87.146247 71.83925,87.75375 C71.1417465,88.361253 70.793,89.1824948 70.793,90.2175 C70.793,90.8775033 71.0029979,91.4249978 71.423,91.86 C71.8430021,92.2950022 72.3942466,92.6699984 73.07675,92.985 C73.7592534,93.3000016 74.5392456,93.5887487 75.41675,93.85125 C76.2942544,94.1137513 77.1904954,94.4062484 78.1055,94.72875 C79.0205046,95.0512516 79.9167456,95.4299978 80.79425,95.865 C81.6717544,96.3000022 82.4517466,96.8549966 83.13425,97.53 C83.8167534,98.2050034 84.3679979,99.0262452 84.788,99.99375 C85.2080021,100.961255 85.418,102.127493 85.418,103.4925 C85.418,105.007508 85.1555026,106.424993 84.6305,107.745 C84.1054974,109.065007 83.344255,110.216245 82.34675,111.19875 C81.349245,112.181255 80.1192573,112.953747 78.65675,113.51625 C77.1942427,114.078753 75.5330093,114.36 73.673,114.36 C72.6529949,114.36 71.6142553,114.255001 70.55675,114.045 C69.4992447,113.834999 68.4755049,113.538752 67.4855,113.15625 C66.495495,112.773748 65.5655043,112.320003 64.6955,111.795 C63.8254956,111.269997 63.0680032,110.685003 62.423,110.04 L64.673,106.485 C64.8380008,106.214999 65.0704985,105.997501 65.3705,105.8325 C65.6705015,105.667499 65.9929983,105.585 66.338,105.585 C66.7880022,105.585 67.2417477,105.727499 67.69925,106.0125 C68.1567523,106.297501 68.6742471,106.612498 69.25175,106.9575 C69.8292529,107.302502 70.4929962,107.617499 71.243,107.9025 C71.9930037,108.187501 72.8779949,108.33 73.898,108.33 C75.2780069,108.33 76.3504962,108.026253 77.1155,107.41875 C77.8805038,106.811247 78.263,105.847507 78.263,104.5275 C78.263,103.762496 78.0530021,103.140002 77.633,102.66 C77.2129979,102.179998 76.6617534,101.782502 75.97925,101.4675 C75.2967466,101.152498 74.5205043,100.875001 73.6505,100.635 C72.7804956,100.394999 71.8880046,100.128751 70.973,99.83625 C70.0579954,99.5437485 69.1655043,99.1837521 68.2955,98.75625 C67.4254956,98.3287479 66.6492534,97.7662535 65.96675,97.06875 C65.2842466,96.3712465 64.7330021,95.5012552 64.313,94.45875 C63.8929979,93.4162448 63.683,92.1300076 63.683,90.6 C63.683,89.3699939 63.9304975,88.1700058 64.4255,87 C64.9205025,85.8299942 65.6479952,84.7875046 66.608,83.8725 C67.5680048,82.9574954 68.745493,82.2262527 70.1405,81.67875 C71.535507,81.1312473 73.132991,80.8575 74.933,80.8575 C75.938005,80.8575 76.9167452,80.9362492 77.86925,81.09375 C78.8217548,81.2512508 79.7254957,81.4837485 80.5805,81.79125 C81.4355043,82.0987515 82.2342463,82.4662479 82.97675,82.89375 C83.7192537,83.3212521 84.3829971,83.8049973 84.968,84.345 L83.078,87.8775 Z M102.977,107.9925 C103.997005,107.9925 104.908246,107.823752 105.71075,107.48625 C106.513254,107.148748 107.191997,106.665003 107.747,106.035 C108.302003,105.404997 108.725749,104.636255 109.01825,103.72875 C109.310751,102.821245 109.457,101.790006 109.457,100.635 L109.457,81.2175 L117.062,81.2175 L117.062,100.635 C117.062,102.64501 116.735753,104.489992 116.08325,106.17 C115.430747,107.850008 114.497006,109.297494 113.282,110.5125 C112.066994,111.727506 110.589509,112.672497 108.8495,113.3475 C107.109491,114.022503 105.152011,114.36 102.977,114.36 C100.786989,114.36 98.8220087,114.022503 97.082,113.3475 C95.3419913,112.672497 93.8645061,111.727506 92.6495,110.5125 C91.4344939,109.297494 90.5045032,107.850008 89.8595,106.17 C89.2144968,104.489992 88.892,102.64501 88.892,100.635 L88.892,81.2175 L96.497,81.2175 L96.497,100.6125 C96.497,101.767506 96.6432485,102.798745 96.93575,103.70625 C97.2282515,104.613755 97.6519972,105.386247 98.207,106.02375 C98.7620028,106.661253 99.440746,107.148748 100.24325,107.48625 C101.045754,107.823752 101.956995,107.9925 102.977,107.9925 Z M138.9185,99.015 C139.218501,99.5850028 139.507249,100.177497 139.78475,100.7925 C140.062251,101.407503 140.328499,102.037497 140.5835,102.6825 C140.838501,102.022497 141.108499,101.381253 141.3935,100.75875 C141.678501,100.136247 141.970998,99.5325029 142.271,98.9475 L150.686,82.3875 C150.836001,82.1024986 150.989749,81.8812508 151.14725,81.72375 C151.304751,81.5662492 151.480999,81.4500004 151.676,81.375 C151.871001,81.2999996 152.092249,81.2550001 152.33975,81.24 C152.587251,81.2249999 152.875998,81.2175 153.206,81.2175 L159.011,81.2175 L159.011,114 L152.306,114 L152.306,95.145 C152.306,94.2299954 152.351,93.2400053 152.441,92.175 L143.756,109.0275 C143.485999,109.552503 143.122252,109.949999 142.66475,110.22 C142.207248,110.490001 141.686003,110.625 141.101,110.625 L140.066,110.625 C139.480997,110.625 138.959752,110.490001 138.50225,110.22 C138.044748,109.949999 137.681001,109.552503 137.411,109.0275 L128.681,92.1525 C128.741,92.6775026 128.786,93.1987474 128.816,93.71625 C128.846,94.2337526 128.861,94.7099978 128.861,95.145 L128.861,114 L122.156,114 L122.156,81.2175 L127.961,81.2175 C128.291002,81.2175 128.579749,81.2249999 128.82725,81.24 C129.074751,81.2550001 129.295999,81.2999996 129.491,81.375 C129.686001,81.4500004 129.862249,81.5662492 130.01975,81.72375 C130.177251,81.8812508 130.330999,82.1024986 130.481,82.3875 L138.9185,99.015 Z M181.3175,99.015 C181.617501,99.5850028 181.906249,100.177497 182.18375,100.7925 C182.461251,101.407503 182.727499,102.037497 182.9825,102.6825 C183.237501,102.022497 183.507499,101.381253 183.7925,100.75875 C184.077501,100.136247 184.369998,99.5325029 184.67,98.9475 L193.085,82.3875 C193.235001,82.1024986 193.388749,81.8812508 193.54625,81.72375 C193.703751,81.5662492 193.879999,81.4500004 194.075,81.375 C194.270001,81.2999996 194.491249,81.2550001 194.73875,81.24 C194.986251,81.2249999 195.274998,81.2175 195.605,81.2175 L201.41,81.2175 L201.41,114 L194.705,114 L194.705,95.145 C194.705,94.2299954 194.75,93.2400053 194.84,92.175 L186.155,109.0275 C185.884999,109.552503 185.521252,109.949999 185.06375,110.22 C184.606248,110.490001 184.085003,110.625 183.5,110.625 L182.465,110.625 C181.879997,110.625 181.358752,110.490001 180.90125,110.22 C180.443748,109.949999 180.080001,109.552503 179.81,109.0275 L171.08,92.1525 C171.14,92.6775026 171.185,93.1987474 171.215,93.71625 C171.245,94.2337526 171.26,94.7099978 171.26,95.145 L171.26,114 L164.555,114 L164.555,81.2175 L170.36,81.2175 C170.690002,81.2175 170.978749,81.2249999 171.22625,81.24 C171.473751,81.2550001 171.694999,81.2999996 171.89,81.375 C172.085001,81.4500004 172.261249,81.5662492 172.41875,81.72375 C172.576251,81.8812508 172.729999,82.1024986 172.88,82.3875 L181.3175,99.015 Z M228.059,81.2175 L228.059,87.0675 L214.604,87.0675 L214.604,94.7175 L224.909,94.7175 L224.909,100.3425 L214.604,100.3425 L214.604,108.15 L228.059,108.15 L228.059,114 L206.954,114 L206.954,81.2175 L228.059,81.2175 Z M240.128,101.8725 L240.128,114 L232.523,114 L232.523,81.2175 L243.188,81.2175 C245.558012,81.2175 247.579242,81.4612476 249.25175,81.94875 C250.924258,82.4362524 252.289245,83.1149956 253.34675,83.985 C254.404255,84.8550044 255.172998,85.8824941 255.653,87.0675 C256.133002,88.2525059 256.373,89.542493 256.373,90.9375 C256.373,92.0025053 256.230501,93.0074953 255.9455,93.9525 C255.660499,94.8975047 255.236753,95.771246 254.67425,96.57375 C254.111747,97.376254 253.421754,98.0924969 252.60425,98.7225 C251.786746,99.3525031 250.845505,99.869998 249.7805,100.275 C250.290503,100.530001 250.766748,100.844998 251.20925,101.22 C251.651752,101.595002 252.037998,102.052497 252.368,102.5925 L259.343,114 L252.458,114 C251.182994,114 250.268003,113.520005 249.713,112.56 L244.268,103.0425 C244.027999,102.622498 243.746752,102.322501 243.42425,102.1425 C243.101748,101.962499 242.648003,101.8725 242.063,101.8725 L240.128,101.8725 Z M240.128,96.63 L243.188,96.63 C244.223005,96.63 245.104246,96.4987513 245.83175,96.23625 C246.559254,95.9737487 247.155498,95.6100023 247.6205,95.145 C248.085502,94.6799977 248.422999,94.1362531 248.633,93.51375 C248.843001,92.8912469 248.948,92.2200036 248.948,91.5 C248.948,90.0599928 248.479255,88.9350041 247.54175,88.125 C246.604245,87.3149959 245.15301,86.91 243.188,86.91 L240.128,86.91 L240.128,96.63 Z" id="SUMMER" fill="#000000"></path>
        <path d="M75.104,50.67 L76.714,50.67 C76.8873342,50.67 77.0306661,50.7133329 77.144,50.8 C77.2573339,50.8866671 77.3339998,50.996666 77.374,51.13 L80.334,61.09 C80.3873336,61.2700009 80.4356664,61.4633323 80.479,61.67 C80.5223335,61.8766677 80.5639998,62.0933322 80.604,62.32 C80.6506669,62.0933322 80.6973331,61.8750011 80.744,61.665 C80.7906669,61.454999 80.8439997,61.2633342 80.904,61.09 L84.274,51.13 C84.3140002,51.0166661 84.3923327,50.9116671 84.509,50.815 C84.6256672,50.7183328 84.7673325,50.67 84.934,50.67 L85.494,50.67 C85.6673342,50.67 85.8089994,50.7133329 85.919,50.8 C86.0290005,50.8866671 86.1073331,50.996666 86.154,51.13 L89.504,61.09 C89.6240006,61.4366684 89.7306662,61.8333311 89.824,62.28 C89.8640002,62.0599989 89.9006665,61.850001 89.934,61.65 C89.9673335,61.449999 90.0106664,61.2633342 90.064,61.09 L93.034,51.13 C93.0673335,51.0099994 93.1423327,50.9033338 93.259,50.81 C93.3756672,50.7166662 93.5173325,50.67 93.684,50.67 L95.194,50.67 L90.724,65 L88.984,65 L85.354,54.07 C85.2806663,53.8633323 85.2140003,53.6233347 85.154,53.35 C85.1206665,53.483334 85.0890001,53.611666 85.059,53.735 C85.0289998,53.858334 84.9973335,53.9699995 84.964,54.07 L81.314,65 L79.574,65 L75.104,50.67 Z M106.058,50.67 L106.058,52.25 L99.178,52.25 L99.178,57.01 L104.748,57.01 L104.748,58.53 L99.178,58.53 L99.178,63.42 L106.058,63.42 L106.058,65 L97.228,65 L97.228,50.67 L106.058,50.67 Z M120.782,65 L119.282,65 C119.108666,65 118.968667,64.9566671 118.862,64.87 C118.755333,64.7833329 118.675334,64.673334 118.622,64.54 L117.282,61.08 L110.852,61.08 L109.512,64.54 C109.465333,64.6600006 109.385334,64.7666662 109.272,64.86 C109.158666,64.9533338 109.018667,65 108.852,65 L107.352,65 L113.082,50.67 L115.052,50.67 L120.782,65 Z M111.392,59.68 L116.742,59.68 L114.492,53.85 C114.345333,53.4899982 114.202001,53.0400027 114.062,52.5 C113.988666,52.7733347 113.917,53.0249989 113.847,53.255 C113.777,53.4850012 113.708667,53.6866658 113.642,53.86 L111.392,59.68 Z M119.716,50.67 L121.266,50.67 C121.439334,50.67 121.579333,50.7133329 121.686,50.8 C121.792667,50.8866671 121.872666,50.996666 121.926,51.13 L125.976,61.24 C126.069334,61.4666678 126.154333,61.713332 126.231,61.98 C126.307667,62.246668 126.382666,62.5233319 126.456,62.81 C126.516,62.5233319 126.581,62.246668 126.651,61.98 C126.721,61.713332 126.802666,61.4666678 126.896,61.24 L130.926,51.13 C130.972667,51.0166661 131.052666,50.9116671 131.166,50.815 C131.279334,50.7183328 131.419332,50.67 131.586,50.67 L133.146,50.67 L127.306,65 L125.556,65 L119.716,50.67 Z M145.55,65 L144.05,65 C143.876666,65 143.736667,64.9566671 143.63,64.87 C143.523333,64.7833329 143.443334,64.673334 143.39,64.54 L142.05,61.08 L135.62,61.08 L134.28,64.54 C134.233333,64.6600006 134.153334,64.7666662 134.04,64.86 C133.926666,64.9533338 133.786667,65 133.62,65 L132.12,65 L137.85,50.67 L139.82,50.67 L145.55,65 Z M136.16,59.68 L141.51,59.68 L139.26,53.85 C139.113333,53.4899982 138.970001,53.0400027 138.83,52.5 C138.756666,52.7733347 138.685,53.0249989 138.615,53.255 C138.545,53.4850012 138.476667,53.6866658 138.41,53.86 L136.16,59.68 Z M153.638,59.64 L153.638,65 L151.708,65 L151.708,50.67 L155.938,50.67 C156.844671,50.67 157.632997,50.7749989 158.303,50.985 C158.973003,51.1950011 159.527998,51.4933314 159.968,51.88 C160.408002,52.2666686 160.736332,52.7333306 160.953,53.28 C161.169668,53.8266694 161.278,54.4366633 161.278,55.11 C161.278,55.77667 161.161334,56.3866639 160.928,56.94 C160.694665,57.4933361 160.353002,57.969998 159.903,58.37 C159.452998,58.770002 158.89467,59.0816655 158.228,59.305 C157.56133,59.5283345 156.798004,59.64 155.938,59.64 L153.638,59.64 Z M153.638,58.1 L155.938,58.1 C156.491336,58.1 156.979665,58.0266674 157.403,57.88 C157.826335,57.7333326 158.181332,57.5283346 158.468,57.265 C158.754668,57.0016653 158.971333,56.6866685 159.118,56.32 C159.264667,55.9533315 159.338,55.5500022 159.338,55.11 C159.338,54.1966621 159.056336,53.4833359 158.493,52.97 C157.929664,52.4566641 157.078006,52.2 155.938,52.2 L153.638,52.2 L153.638,58.1 Z M166.002,59.02 L166.002,65 L164.072,65 L164.072,50.67 L168.122,50.67 C169.028671,50.67 169.811997,50.7616658 170.472,50.945 C171.132003,51.1283342 171.676998,51.3933316 172.107,51.74 C172.537002,52.0866684 172.855332,52.5049975 173.062,52.995 C173.268668,53.4850024 173.372,54.0333303 173.372,54.64 C173.372,55.1466692 173.292001,55.6199978 173.132,56.06 C172.971999,56.5000022 172.740335,56.8949983 172.437,57.245 C172.133665,57.5950018 171.763669,57.8933321 171.327,58.14 C170.890331,58.3866679 170.395336,58.5733327 169.842,58.7 C170.082001,58.8400007 170.295332,59.043332 170.482,59.31 L174.662,65 L172.942,65 C172.588665,65 172.328667,64.8633347 172.162,64.59 L168.442,59.47 C168.328666,59.3099992 168.205334,59.1950004 168.072,59.125 C167.938666,59.0549996 167.738668,59.02 167.472,59.02 L166.002,59.02 Z M166.002,57.61 L168.032,57.61 C168.598669,57.61 169.096998,57.5416673 169.527,57.405 C169.957002,57.2683326 170.316999,57.0750012 170.607,56.825 C170.897001,56.5749987 171.115333,56.2766684 171.262,55.93 C171.408667,55.5833316 171.482,55.2000021 171.482,54.78 C171.482,53.9266624 171.200336,53.2833355 170.637,52.85 C170.073664,52.4166645 169.235339,52.2 168.122,52.2 L166.002,52.2 L166.002,57.61 Z M185.726,50.67 L185.726,52.25 L178.846,52.25 L178.846,57.01 L184.416,57.01 L184.416,58.53 L178.846,58.53 L178.846,63.42 L185.726,63.42 L185.726,65 L176.896,65 L176.896,50.67 L185.726,50.67 Z M195.71,59.82 C195.803334,59.9800008 195.885,60.1483324 195.955,60.325 C196.025,60.5016676 196.093333,60.6799991 196.16,60.86 C196.226667,60.6733324 196.296666,60.4950008 196.37,60.325 C196.443334,60.1549992 196.526666,59.9833342 196.62,59.81 L201.47,51 C201.556667,50.8466659 201.646666,50.7533335 201.74,50.72 C201.833334,50.6866665 201.966666,50.67 202.14,50.67 L203.57,50.67 L203.57,65 L201.87,65 L201.87,54.47 C201.87,54.3299993 201.873333,54.1800008 201.88,54.02 C201.886667,53.8599992 201.896667,53.6966675 201.91,53.53 L197,62.49 C196.833332,62.7900015 196.600001,62.94 196.3,62.94 L196.02,62.94 C195.719998,62.94 195.486667,62.7900015 195.32,62.49 L190.3,53.5 C190.32,53.6733342 190.335,53.8433325 190.345,54.01 C190.355,54.1766675 190.36,54.3299993 190.36,54.47 L190.36,65 L188.66,65 L188.66,50.67 L190.09,50.67 C190.263334,50.67 190.396666,50.6866665 190.49,50.72 C190.583334,50.7533335 190.673333,50.8466659 190.76,51 L195.71,59.82 Z M209.504,65 L207.564,65 L207.564,50.67 L209.504,50.67 L209.504,65 Z M219.058,63.46 C219.651336,63.46 220.181331,63.360001 220.648,63.16 C221.114669,62.959999 221.509665,62.6800018 221.833,62.32 C222.156335,61.9599982 222.402999,61.5300025 222.573,61.03 C222.743001,60.5299975 222.828,59.980003 222.828,59.38 L222.828,50.67 L224.758,50.67 L224.758,59.38 C224.758,60.2066708 224.626335,60.9733298 224.363,61.68 C224.099665,62.3866702 223.723002,62.9983308 223.233,63.515 C222.742998,64.0316692 222.14467,64.4366652 221.438,64.73 C220.73133,65.0233348 219.938004,65.17 219.058,65.17 C218.177996,65.17 217.38467,65.0233348 216.678,64.73 C215.97133,64.4366652 215.371336,64.0316692 214.878,63.515 C214.384664,62.9983308 214.006335,62.3866702 213.743,61.68 C213.479665,60.9733298 213.348,60.2066708 213.348,59.38 L213.348,50.67 L215.278,50.67 L215.278,59.37 C215.278,59.970003 215.362999,60.5199975 215.533,61.02 C215.703001,61.5200025 215.949665,61.9499982 216.273,62.31 C216.596335,62.6700018 216.992998,62.9516656 217.463,63.155 C217.933002,63.3583343 218.464664,63.46 219.058,63.46 Z M235.282,59.82 C235.375334,59.9800008 235.457,60.1483324 235.527,60.325 C235.597,60.5016676 235.665333,60.6799991 235.732,60.86 C235.798667,60.6733324 235.868666,60.4950008 235.942,60.325 C236.015334,60.1549992 236.098666,59.9833342 236.192,59.81 L241.042,51 C241.128667,50.8466659 241.218666,50.7533335 241.312,50.72 C241.405334,50.6866665 241.538666,50.67 241.712,50.67 L243.142,50.67 L243.142,65 L241.442,65 L241.442,54.47 C241.442,54.3299993 241.445333,54.1800008 241.452,54.02 C241.458667,53.8599992 241.468667,53.6966675 241.482,53.53 L236.572,62.49 C236.405332,62.7900015 236.172001,62.94 235.872,62.94 L235.592,62.94 C235.291998,62.94 235.058667,62.7900015 234.892,62.49 L229.872,53.5 C229.892,53.6733342 229.907,53.8433325 229.917,54.01 C229.927,54.1766675 229.932,54.3299993 229.932,54.47 L229.932,65 L228.232,65 L228.232,50.67 L229.662,50.67 C229.835334,50.67 229.968666,50.6866665 230.062,50.72 C230.155334,50.7533335 230.245333,50.8466659 230.332,51 L235.282,59.82 Z" id="WEAVA-PREMIUM" fill="#000000"></path>
        <path d="M120.0145,131.8775 C119.789499,132.237502 119.553251,132.507499 119.30575,132.6875 C119.058249,132.867501 118.739502,132.9575 118.3495,132.9575 C118.004498,132.9575 117.633252,132.848751 117.23575,132.63125 C116.838248,132.413749 116.388253,132.170001 115.88575,131.9 C115.383247,131.629999 114.809503,131.386251 114.1645,131.16875 C113.519497,130.951249 112.784504,130.8425 111.9595,130.8425 C110.534493,130.8425 109.473253,131.146247 108.77575,131.75375 C108.078247,132.361253 107.7295,133.182495 107.7295,134.2175 C107.7295,134.877503 107.939498,135.424998 108.3595,135.86 C108.779502,136.295002 109.330747,136.669998 110.01325,136.985 C110.695753,137.300002 111.475746,137.588749 112.35325,137.85125 C113.230754,138.113751 114.126995,138.406248 115.042,138.72875 C115.957005,139.051252 116.853246,139.429998 117.73075,139.865 C118.608254,140.300002 119.388247,140.854997 120.07075,141.53 C120.753253,142.205003 121.304498,143.026245 121.7245,143.99375 C122.144502,144.961255 122.3545,146.127493 122.3545,147.4925 C122.3545,149.007508 122.092003,150.424993 121.567,151.745 C121.041997,153.065007 120.280755,154.216245 119.28325,155.19875 C118.285745,156.181255 117.055757,156.953747 115.59325,157.51625 C114.130743,158.078753 112.469509,158.36 110.6095,158.36 C109.589495,158.36 108.550755,158.255001 107.49325,158.045 C106.435745,157.834999 105.412005,157.538752 104.422,157.15625 C103.431995,156.773748 102.502004,156.320003 101.632,155.795 C100.761996,155.269997 100.004503,154.685003 99.3595,154.04 L101.6095,150.485 C101.774501,150.214999 102.006998,149.997501 102.307,149.8325 C102.607001,149.667499 102.929498,149.585 103.2745,149.585 C103.724502,149.585 104.178248,149.727499 104.63575,150.0125 C105.093252,150.297501 105.610747,150.612498 106.18825,150.9575 C106.765753,151.302502 107.429496,151.617499 108.1795,151.9025 C108.929504,152.187501 109.814495,152.33 110.8345,152.33 C112.214507,152.33 113.286996,152.026253 114.052,151.41875 C114.817004,150.811247 115.1995,149.847507 115.1995,148.5275 C115.1995,147.762496 114.989502,147.140002 114.5695,146.66 C114.149498,146.179998 113.598253,145.782502 112.91575,145.4675 C112.233247,145.152498 111.457004,144.875001 110.587,144.635 C109.716996,144.394999 108.824505,144.128751 107.9095,143.83625 C106.994495,143.543749 106.102004,143.183752 105.232,142.75625 C104.361996,142.328748 103.585753,141.766253 102.90325,141.06875 C102.220747,140.371247 101.669502,139.501255 101.2495,138.45875 C100.829498,137.416245 100.6195,136.130008 100.6195,134.6 C100.6195,133.369994 100.866998,132.170006 101.362,131 C101.857002,129.829994 102.584495,128.787505 103.5445,127.8725 C104.504505,126.957495 105.681993,126.226253 107.077,125.67875 C108.472007,125.131247 110.069491,124.8575 111.8695,124.8575 C112.874505,124.8575 113.853245,124.936249 114.80575,125.09375 C115.758255,125.251251 116.661996,125.483748 117.517,125.79125 C118.372004,126.098752 119.170746,126.466248 119.91325,126.89375 C120.655754,127.321252 121.319497,127.804997 121.9045,128.345 L120.0145,131.8775 Z M156.7885,158 L150.8935,158 C150.233497,158 149.689752,157.846252 149.26225,157.53875 C148.834748,157.231248 148.538501,156.837502 148.3735,156.3575 L146.4385,150.6425 L133.9735,150.6425 L132.0385,156.3575 C131.888499,156.777502 131.596002,157.156248 131.161,157.49375 C130.725998,157.831252 130.193503,158 129.5635,158 L123.6235,158 L136.3135,125.2175 L144.0985,125.2175 L156.7885,158 Z M135.7285,145.4675 L144.6835,145.4675 L141.6685,136.49 C141.473499,135.919997 141.244751,135.248754 140.98225,134.47625 C140.719749,133.703746 140.461001,132.867504 140.206,131.9675 C139.965999,132.882505 139.718501,133.729996 139.4635,134.51 C139.208499,135.290004 138.968501,135.964997 138.7435,136.535 L135.7285,145.4675 Z M167.1925,151.925 L179.3425,151.925 L179.3425,158 L159.5875,158 L159.5875,125.2175 L167.1925,125.2175 L167.1925,151.925 Z M204.1915,125.2175 L204.1915,131.0675 L190.7365,131.0675 L190.7365,138.7175 L201.0415,138.7175 L201.0415,144.3425 L190.7365,144.3425 L190.7365,152.15 L204.1915,152.15 L204.1915,158 L183.0865,158 L183.0865,125.2175 L204.1915,125.2175 Z" id="SALE" fill="#000000"></path>
        <rect id="Rectangle-3" fill="#160C13" x="89" y="173" width="131" height="35"></rect>
        <path d="M108.935,200.0625 C107.976662,199.904166 107.062088,199.627085 106.19125,199.23125 C105.320412,198.835415 104.585003,198.358336 103.985,197.8 L105.185,196.0625 C105.285,195.920833 105.420416,195.802084 105.59125,195.70625 C105.762084,195.610416 105.943332,195.5625 106.135,195.5625 C106.335001,195.5625 106.539166,195.614583 106.7475,195.71875 C106.955834,195.822917 107.182915,195.949999 107.42875,196.1 C107.674585,196.250001 107.943332,196.402083 108.235,196.55625 C108.526668,196.710417 108.859998,196.8375 109.235,196.9375 L109.6975,192.2125 C109.097497,192.045832 108.50167,191.850001 107.91,191.625 C107.31833,191.399999 106.785002,191.095835 106.31,190.7125 C105.834998,190.329165 105.449585,189.84167 105.15375,189.25 C104.857915,188.65833 104.71,187.916671 104.71,187.025 C104.71,186.366663 104.843332,185.725003 105.11,185.1 C105.376668,184.474997 105.766247,183.912502 106.27875,183.4125 C106.791253,182.912498 107.422496,182.502085 108.1725,182.18125 C108.922504,181.860415 109.780829,181.675 110.7475,181.625 L110.885,180.2375 C110.91,180.004165 111.014166,179.793751 111.1975,179.60625 C111.380834,179.418749 111.618332,179.325 111.91,179.325 L113.335,179.325 L113.085,181.7875 C113.985005,181.954167 114.759997,182.222915 115.41,182.59375 C116.060003,182.964585 116.609998,183.362498 117.06,183.7875 L116.11,185.175 C115.968333,185.383334 115.824584,185.535416 115.67875,185.63125 C115.532916,185.727084 115.360001,185.775 115.16,185.775 C115.026666,185.775 114.876667,185.745834 114.71,185.6875 C114.543333,185.629166 114.360001,185.55625 114.16,185.46875 C113.959999,185.38125 113.745418,185.2875 113.51625,185.1875 C113.287082,185.0875 113.043335,185 112.785,184.925 L112.3475,189.3625 C112.747502,189.479167 113.147498,189.606249 113.5475,189.74375 C113.947502,189.881251 114.332915,190.039582 114.70375,190.21875 C115.074585,190.397918 115.420415,190.604165 115.74125,190.8375 C116.062085,191.070834 116.341249,191.345832 116.57875,191.6625 C116.816251,191.979168 117.001666,192.343748 117.135,192.75625 C117.268334,193.168752 117.335,193.637497 117.335,194.1625 C117.335,194.954171 117.201668,195.697913 116.935,196.39375 C116.668332,197.089587 116.276669,197.704164 115.76,198.2375 C115.243331,198.770836 114.610004,199.206248 113.86,199.54375 C113.109996,199.881252 112.251672,200.0875 111.285,200.1625 L111.135,201.725 C111.11,201.958335 111.005834,202.168749 110.8225,202.35625 C110.639166,202.543751 110.401668,202.6375 110.11,202.6375 L108.685,202.6375 L108.935,200.0625 Z M113.66,194.7375 C113.66,194.262498 113.507918,193.883335 113.20375,193.6 C112.899582,193.316665 112.497502,193.079168 111.9975,192.8875 L111.5975,197.0125 C112.972507,196.770832 113.66,196.012506 113.66,194.7375 Z M108.36,186.65 C108.36,187.141669 108.516248,187.539582 108.82875,187.84375 C109.141252,188.147918 109.551664,188.404166 110.06,188.6125 L110.435,184.8375 C110.051665,184.895834 109.728751,184.981249 109.46625,185.09375 C109.203749,185.206251 108.991251,185.341666 108.82875,185.5 C108.666249,185.658334 108.5475,185.835416 108.4725,186.03125 C108.3975,186.227084 108.36,186.433332 108.36,186.65 Z M125.935,181.5875 C126.835004,181.5875 127.634996,181.714582 128.335,181.96875 C129.035004,182.222918 129.626664,182.566665 130.11,183 C130.593336,183.433335 130.959999,183.935414 131.21,184.50625 C131.460001,185.077086 131.585,185.679163 131.585,186.3125 C131.585,186.887503 131.526667,187.393748 131.41,187.83125 C131.293333,188.268752 131.120418,188.647915 130.89125,188.96875 C130.662082,189.289585 130.378752,189.562499 130.04125,189.7875 C129.703748,190.012501 129.318335,190.199999 128.885,190.35 C130.901677,191.050004 131.91,192.420823 131.91,194.4625 C131.91,195.429171 131.735002,196.27083 131.385,196.9875 C131.034998,197.70417 130.566253,198.299998 129.97875,198.775 C129.391247,199.250002 128.710004,199.606249 127.935,199.84375 C127.159996,200.081251 126.351671,200.2 125.51,200.2 C124.643329,200.2 123.872503,200.106251 123.1975,199.91875 C122.522497,199.731249 121.922503,199.439585 121.3975,199.04375 C120.872497,198.647915 120.412085,198.14167 120.01625,197.525 C119.620415,196.90833 119.276668,196.175004 118.985,195.325 L120.71,194.625 C120.860001,194.558333 121.007916,194.5125 121.15375,194.4875 C121.299584,194.4625 121.443333,194.45 121.585,194.45 C121.851668,194.45 122.091249,194.502083 122.30375,194.60625 C122.516251,194.710417 122.676666,194.862499 122.785,195.0625 C123.160002,195.75417 123.557915,196.256248 123.97875,196.56875 C124.399585,196.881252 124.893331,197.0375 125.46,197.0375 C125.893336,197.0375 126.270415,196.964584 126.59125,196.81875 C126.912085,196.672916 127.178749,196.485418 127.39125,196.25625 C127.603751,196.027082 127.764166,195.766668 127.8725,195.475 C127.980834,195.183332 128.035,194.887501 128.035,194.5875 C128.035,194.195831 128.007917,193.843752 127.95375,193.53125 C127.899583,193.218748 127.747501,192.950001 127.4975,192.725 C127.247499,192.499999 126.870419,192.327084 126.36625,192.20625 C125.862081,192.085416 125.160004,192.025 124.26,192.025 L124.26,189.35 C125.018337,189.35 125.630831,189.291667 126.0975,189.175 C126.564169,189.058333 126.924582,188.897918 127.17875,188.69375 C127.432918,188.489582 127.601666,188.241668 127.685,187.95 C127.768334,187.658332 127.81,187.337502 127.81,186.9875 C127.81,186.27083 127.637085,185.718752 127.29125,185.33125 C126.945415,184.943748 126.418337,184.75 125.71,184.75 C125.418332,184.75 125.151668,184.791666 124.91,184.875 C124.668332,184.958334 124.451668,185.070833 124.26,185.2125 C124.068332,185.354167 123.903751,185.520832 123.76625,185.7125 C123.628749,185.904168 123.518334,186.112499 123.435,186.3375 C123.301666,186.712502 123.132918,186.983332 122.92875,187.15 C122.724582,187.316667 122.447502,187.4 122.0975,187.4 C122.014166,187.4 121.924584,187.395833 121.82875,187.3875 C121.732916,187.379167 121.635001,187.366667 121.535,187.35 L119.485,186.9875 C119.618334,186.079162 119.874581,185.287503 120.25375,184.6125 C120.632919,183.937497 121.103747,183.375002 121.66625,182.925 C122.228753,182.474998 122.872496,182.139584 123.5975,181.91875 C124.322504,181.697916 125.101663,181.5875 125.935,181.5875 Z M133.31,198.0375 C133.31,197.737499 133.366249,197.458335 133.47875,197.2 C133.591251,196.941665 133.745416,196.716668 133.94125,196.525 C134.137084,196.333332 134.368332,196.181251 134.635,196.06875 C134.901668,195.956249 135.193332,195.9 135.51,195.9 C135.818335,195.9 136.105832,195.956249 136.3725,196.06875 C136.639168,196.181251 136.872499,196.333332 137.0725,196.525 C137.272501,196.716668 137.428749,196.941665 137.54125,197.2 C137.653751,197.458335 137.71,197.737499 137.71,198.0375 C137.71,198.337502 137.653751,198.618749 137.54125,198.88125 C137.428749,199.143751 137.272501,199.370832 137.0725,199.5625 C136.872499,199.754168 136.639168,199.904166 136.3725,200.0125 C136.105832,200.120834 135.818335,200.175 135.51,200.175 C135.193332,200.175 134.901668,200.120834 134.635,200.0125 C134.368332,199.904166 134.137084,199.754168 133.94125,199.5625 C133.745416,199.370832 133.591251,199.143751 133.47875,198.88125 C133.366249,198.618749 133.31,198.337502 133.31,198.0375 Z M144.86,192.9 C144.26833,192.9 143.67667,192.793751 143.085,192.58125 C142.49333,192.368749 141.957919,192.045836 141.47875,191.6125 C140.999581,191.179165 140.610002,190.633337 140.31,189.975 C140.009998,189.316663 139.86,188.537505 139.86,187.6375 C139.86,186.812496 140.012082,186.033337 140.31625,185.3 C140.620418,184.566663 141.053747,183.925003 141.61625,183.375 C142.178753,182.824997 142.851663,182.389585 143.635,182.06875 C144.418337,181.747915 145.293329,181.5875 146.26,181.5875 C147.243338,181.5875 148.122496,181.737498 148.8975,182.0375 C149.672504,182.337502 150.328747,182.758331 150.86625,183.3 C151.403753,183.841669 151.816249,184.485413 152.10375,185.23125 C152.391251,185.977087 152.535,186.799995 152.535,187.7 C152.535,188.300003 152.487084,188.862497 152.39125,189.3875 C152.295416,189.912503 152.162084,190.414581 151.99125,190.89375 C151.820416,191.372919 151.614168,191.831248 151.3725,192.26875 C151.130832,192.706252 150.860002,193.137498 150.56,193.5625 L146.635,199.1375 C146.468333,199.379168 146.205835,199.583333 145.8475,199.75 C145.489165,199.916667 145.085002,200 144.635,200 L141.06,200 L146.835,193.1 C146.951667,192.958333 147.062083,192.822917 147.16625,192.69375 C147.270417,192.564583 147.3725,192.433334 147.4725,192.3 C147.097498,192.500001 146.689169,192.65 146.2475,192.75 C145.805831,192.85 145.343336,192.9 144.86,192.9 Z M148.835,187.35 C148.835,186.908331 148.770417,186.518752 148.64125,186.18125 C148.512083,185.843748 148.332918,185.562501 148.10375,185.3375 C147.874582,185.112499 147.597502,184.941667 147.2725,184.825 C146.947498,184.708333 146.593335,184.65 146.21,184.65 C145.818331,184.65 145.470418,184.718749 145.16625,184.85625 C144.862082,184.993751 144.603751,185.183332 144.39125,185.425 C144.178749,185.666668 144.016251,185.952082 143.90375,186.28125 C143.791249,186.610418 143.735,186.966665 143.735,187.35 C143.735,189.166676 144.576658,190.075 146.26,190.075 C147.085004,190.075 147.720414,189.827086 148.16625,189.33125 C148.612086,188.835414 148.835,188.175004 148.835,187.35 Z M159.36,192.9 C158.76833,192.9 158.17667,192.793751 157.585,192.58125 C156.99333,192.368749 156.457919,192.045836 155.97875,191.6125 C155.499581,191.179165 155.110002,190.633337 154.81,189.975 C154.509998,189.316663 154.36,188.537505 154.36,187.6375 C154.36,186.812496 154.512082,186.033337 154.81625,185.3 C155.120418,184.566663 155.553747,183.925003 156.11625,183.375 C156.678753,182.824997 157.351663,182.389585 158.135,182.06875 C158.918337,181.747915 159.793329,181.5875 160.76,181.5875 C161.743338,181.5875 162.622496,181.737498 163.3975,182.0375 C164.172504,182.337502 164.828747,182.758331 165.36625,183.3 C165.903753,183.841669 166.316249,184.485413 166.60375,185.23125 C166.891251,185.977087 167.035,186.799995 167.035,187.7 C167.035,188.300003 166.987084,188.862497 166.89125,189.3875 C166.795416,189.912503 166.662084,190.414581 166.49125,190.89375 C166.320416,191.372919 166.114168,191.831248 165.8725,192.26875 C165.630832,192.706252 165.360002,193.137498 165.06,193.5625 L161.135,199.1375 C160.968333,199.379168 160.705835,199.583333 160.3475,199.75 C159.989165,199.916667 159.585002,200 159.135,200 L155.56,200 L161.335,193.1 C161.451667,192.958333 161.562083,192.822917 161.66625,192.69375 C161.770417,192.564583 161.8725,192.433334 161.9725,192.3 C161.597498,192.500001 161.189169,192.65 160.7475,192.75 C160.305831,192.85 159.843336,192.9 159.36,192.9 Z M163.335,187.35 C163.335,186.908331 163.270417,186.518752 163.14125,186.18125 C163.012083,185.843748 162.832918,185.562501 162.60375,185.3375 C162.374582,185.112499 162.097502,184.941667 161.7725,184.825 C161.447498,184.708333 161.093335,184.65 160.71,184.65 C160.318331,184.65 159.970418,184.718749 159.66625,184.85625 C159.362082,184.993751 159.103751,185.183332 158.89125,185.425 C158.678749,185.666668 158.516251,185.952082 158.40375,186.28125 C158.291249,186.610418 158.235,186.966665 158.235,187.35 C158.235,189.166676 159.076658,190.075 160.76,190.075 C161.585004,190.075 162.220414,189.827086 162.66625,189.33125 C163.112086,188.835414 163.335,188.175004 163.335,187.35 Z M172.93,200.21 C172.836666,200.443334 172.698334,200.616666 172.515,200.73 C172.331666,200.843334 172.143334,200.9 171.95,200.9 L171.2,200.9 L177.21,185.93 C177.296667,185.716666 177.419999,185.553334 177.58,185.44 C177.740001,185.326666 177.929999,185.27 178.15,185.27 L178.9,185.27 L172.93,200.21 Z M179.36,200 L179.36,189.87 L180.42,189.87 C180.673335,189.87 180.833333,189.993332 180.9,190.24 L181.03,191.28 C181.403335,190.819998 181.821664,190.443335 182.285,190.15 C182.748336,189.856665 183.286664,189.71 183.9,189.71 C184.58667,189.71 185.141665,189.899998 185.565,190.28 C185.988335,190.660002 186.293332,191.17333 186.48,191.82 C186.620001,191.453331 186.804999,191.136668 187.035,190.87 C187.265001,190.603332 187.523332,190.383334 187.81,190.21 C188.096668,190.036666 188.401665,189.91 188.725,189.83 C189.048335,189.75 189.376665,189.71 189.71,189.71 C190.243336,189.71 190.718331,189.794999 191.135,189.965 C191.551669,190.135001 191.904999,190.383332 192.195,190.71 C192.485001,191.036668 192.706666,191.438331 192.86,191.915 C193.013334,192.391669 193.09,192.936664 193.09,193.55 L193.09,200 L191.31,200 L191.31,193.55 C191.31,192.756663 191.136668,192.155002 190.79,191.745 C190.443332,191.334998 189.940003,191.13 189.28,191.13 C188.986665,191.13 188.708335,191.181666 188.445,191.285 C188.181665,191.388334 187.950001,191.539999 187.75,191.74 C187.549999,191.940001 187.391667,192.191665 187.275,192.495 C187.158333,192.798335 187.1,193.149998 187.1,193.55 L187.1,200 L185.32,200 L185.32,193.55 C185.32,192.736663 185.156668,192.130002 184.83,191.73 C184.503332,191.329998 184.02667,191.13 183.4,191.13 C182.959998,191.13 182.551669,191.248332 182.175,191.485 C181.798331,191.721668 181.453335,192.043331 181.14,192.45 L181.14,200 L179.36,200 Z M199.88,189.71 C200.620004,189.71 201.28833,189.833332 201.885,190.08 C202.48167,190.326668 202.988331,190.676664 203.405,191.13 C203.821669,191.583336 204.141666,192.131663 204.365,192.775 C204.588334,193.418337 204.7,194.136663 204.7,194.93 C204.7,195.730004 204.588334,196.449997 204.365,197.09 C204.141666,197.730003 203.821669,198.276664 203.405,198.73 C202.988331,199.183336 202.48167,199.531665 201.885,199.775 C201.28833,200.018335 200.620004,200.14 199.88,200.14 C199.139996,200.14 198.47167,200.018335 197.875,199.775 C197.27833,199.531665 196.770002,199.183336 196.35,198.73 C195.929998,198.276664 195.606668,197.730003 195.38,197.09 C195.153332,196.449997 195.04,195.730004 195.04,194.93 C195.04,194.136663 195.153332,193.418337 195.38,192.775 C195.606668,192.131663 195.929998,191.583336 196.35,191.13 C196.770002,190.676664 197.27833,190.326668 197.875,190.08 C198.47167,189.833332 199.139996,189.71 199.88,189.71 Z M199.88,198.75 C200.880005,198.75 201.626664,198.415003 202.12,197.745 C202.613336,197.074997 202.86,196.140006 202.86,194.94 C202.86,193.733327 202.613336,192.793337 202.12,192.12 C201.626664,191.446663 200.880005,191.11 199.88,191.11 C199.373331,191.11 198.933335,191.196666 198.56,191.37 C198.186665,191.543334 197.875001,191.793332 197.625,192.12 C197.374999,192.446668 197.188334,192.848331 197.065,193.325 C196.941666,193.801669 196.88,194.339997 196.88,194.94 C196.88,195.540003 196.941666,196.076664 197.065,196.55 C197.188334,197.023336 197.374999,197.421665 197.625,197.745 C197.875001,198.068335 198.186665,198.316666 198.56,198.49 C198.933335,198.663334 199.373331,198.75 199.88,198.75 Z" id="$3.99-/mo" fill="#FFFFFF"></path>
        <g id="Group-3" transform="translate(-10.000000, 175.000000)">
            <path d="M26.925,25.0625 C25.9666619,24.9041659 25.0520877,24.6270853 24.18125,24.23125 C23.3104123,23.8354147 22.575003,23.3583361 21.975,22.8 L23.175,21.0625 C23.2750005,20.9208326 23.4104158,20.8020838 23.58125,20.70625 C23.7520842,20.6104162 23.9333324,20.5625 24.125,20.5625 C24.325001,20.5625 24.5291656,20.6145828 24.7375,20.71875 C24.9458344,20.8229172 25.1729154,20.9499992 25.41875,21.1 C25.6645846,21.2500007 25.9333319,21.4020826 26.225,21.55625 C26.5166681,21.7104174 26.8499981,21.8374995 27.225,21.9375 L27.6875,17.2125 C27.087497,17.0458325 26.4916696,16.8500011 25.9,16.625 C25.3083304,16.3999989 24.7750024,16.0958353 24.3,15.7125 C23.8249976,15.3291647 23.4395848,14.8416696 23.14375,14.25 C22.8479152,13.6583304 22.7,12.9166711 22.7,12.025 C22.7,11.3666634 22.833332,10.7250031 23.1,10.1 C23.366668,9.47499688 23.7562474,8.9125025 24.26875,8.4125 C24.7812526,7.9124975 25.4124963,7.50208494 26.1625,7.18125 C26.9125038,6.86041506 27.7708285,6.67500025 28.7375,6.625 L28.875,5.2375 C28.9000001,5.0041655 29.0041657,4.79375094 29.1875,4.60625 C29.3708343,4.41874906 29.6083319,4.325 29.9,4.325 L31.325,4.325 L31.075,6.7875 C31.9750045,6.9541675 32.7499968,7.22291481 33.4,7.59375 C34.0500033,7.96458519 34.5999977,8.36249787 35.05,8.7875 L34.1,10.175 C33.9583326,10.3833344 33.8145841,10.5354162 33.66875,10.63125 C33.5229159,10.7270838 33.350001,10.775 33.15,10.775 C33.016666,10.775 32.8666675,10.7458336 32.7,10.6875 C32.5333325,10.6291664 32.350001,10.5562504 32.15,10.46875 C31.949999,10.3812496 31.7354178,10.2875005 31.50625,10.1875 C31.2770822,10.0874995 31.0333346,10.0000004 30.775,9.925 L30.3375,14.3625 C30.737502,14.4791672 31.137498,14.6062493 31.5375,14.74375 C31.937502,14.8812507 32.3229148,15.0395824 32.69375,15.21875 C33.0645852,15.3979176 33.4104151,15.6041655 33.73125,15.8375 C34.0520849,16.0708345 34.3312488,16.3458317 34.56875,16.6625 C34.8062512,16.9791683 34.991666,17.3437479 35.125,17.75625 C35.258334,18.1687521 35.325,18.6374974 35.325,19.1625 C35.325,19.9541706 35.191668,20.6979132 34.925,21.39375 C34.658332,22.0895868 34.2666693,22.704164 33.75,23.2375 C33.2333308,23.770836 32.6000037,24.2062483 31.85,24.54375 C31.0999963,24.8812517 30.2416715,25.0874996 29.275,25.1625 L29.125,26.725 C29.0999999,26.9583345 28.9958343,27.1687491 28.8125,27.35625 C28.6291657,27.5437509 28.3916681,27.6375 28.1,27.6375 L26.675,27.6375 L26.925,25.0625 Z M31.65,19.7375 C31.65,19.2624976 31.4979182,18.8833347 31.19375,18.6 C30.8895818,18.3166652 30.4875025,18.0791676 29.9875,17.8875 L29.5875,22.0125 C30.9625069,21.7708321 31.65,21.0125064 31.65,19.7375 Z M26.35,11.65 C26.35,12.1416691 26.5062484,12.5395818 26.81875,12.84375 C27.1312516,13.1479182 27.5416641,13.4041656 28.05,13.6125 L28.425,9.8375 C28.0416648,9.89583362 27.7187513,9.98124944 27.45625,10.09375 C27.1937487,10.2062506 26.9812508,10.3416659 26.81875,10.5 C26.6562492,10.6583341 26.5375004,10.8354157 26.4625,11.03125 C26.3874996,11.2270843 26.35,11.4333322 26.35,11.65 Z M49.875,6.7875 L49.875,8.4125 C49.875,8.87083563 49.8250005,9.24166525 49.725,9.525 C49.6249995,9.80833475 49.5291671,10.049999 49.4375,10.25 L43.075,23.725 C42.9083325,24.0833351 42.6625016,24.3854154 42.3375,24.63125 C42.0124984,24.8770846 41.583336,25 41.05,25 L38.225,25 L44.725,11.9625 C44.9000009,11.6041649 45.0895823,11.2833347 45.29375,11 C45.4979177,10.7166652 45.7208321,10.4458346 45.9625,10.1875 L37.95,10.1875 C37.8333327,10.1875 37.7229172,10.1645836 37.61875,10.11875 C37.5145828,10.0729164 37.4229171,10.0104171 37.34375,9.93125 C37.2645829,9.85208294 37.2000002,9.76041719 37.15,9.65625 C37.0999997,9.55208281 37.075,9.44583387 37.075,9.3375 L37.075,6.7875 L49.875,6.7875 Z M51.3,23.0375 C51.3,22.7374985 51.3562494,22.4583346 51.46875,22.2 C51.5812506,21.9416654 51.7354157,21.7166676 51.93125,21.525 C52.1270843,21.3333324 52.358332,21.1812506 52.625,21.06875 C52.891668,20.9562494 53.1833317,20.9 53.5,20.9 C53.8083349,20.9 54.095832,20.9562494 54.3625,21.06875 C54.629168,21.1812506 54.862499,21.3333324 55.0625,21.525 C55.262501,21.7166676 55.4187494,21.9416654 55.53125,22.2 C55.6437506,22.4583346 55.7,22.7374985 55.7,23.0375 C55.7,23.3375015 55.6437506,23.6187487 55.53125,23.88125 C55.4187494,24.1437513 55.262501,24.3708324 55.0625,24.5625 C54.862499,24.7541676 54.629168,24.9041661 54.3625,25.0125 C54.095832,25.1208339 53.8083349,25.175 53.5,25.175 C53.1833317,25.175 52.891668,25.1208339 52.625,25.0125 C52.358332,24.9041661 52.1270843,24.7541676 51.93125,24.5625 C51.7354157,24.3708324 51.5812506,24.1437513 51.46875,23.88125 C51.3562494,23.6187487 51.3,23.3375015 51.3,23.0375 Z M62.85,17.9 C62.2583304,17.9 61.6666696,17.7937511 61.075,17.58125 C60.4833304,17.3687489 59.9479191,17.0458355 59.46875,16.6125 C58.9895809,16.1791645 58.6000015,15.6333366 58.3,14.975 C57.9999985,14.3166634 57.85,13.5375045 57.85,12.6375 C57.85,11.8124959 58.0020818,11.033337 58.30625,10.3 C58.6104182,9.566663 59.0437472,8.92500275 59.60625,8.375 C60.1687528,7.82499725 60.8416627,7.38958494 61.625,7.06875 C62.4083373,6.74791506 63.2833285,6.5875 64.25,6.5875 C65.2333383,6.5875 66.1124961,6.7374985 66.8875,7.0375 C67.6625039,7.3375015 68.3187473,7.75833063 68.85625,8.3 C69.3937527,8.84166937 69.8062486,9.48541294 70.09375,10.23125 C70.3812514,10.9770871 70.525,11.7999955 70.525,12.7 C70.525,13.300003 70.4770838,13.8624974 70.38125,14.3875 C70.2854162,14.9125026 70.1520842,15.4145809 69.98125,15.89375 C69.8104158,16.3729191 69.6041679,16.8312478 69.3625,17.26875 C69.1208321,17.7062522 68.8500015,18.1374979 68.55,18.5625 L64.625,24.1375 C64.4583325,24.3791679 64.1958351,24.5833325 63.8375,24.75 C63.4791649,24.9166675 63.0750022,25 62.625,25 L59.05,25 L64.825,18.1 C64.9416672,17.9583326 65.0520828,17.8229173 65.15625,17.69375 C65.2604172,17.5645827 65.3624995,17.433334 65.4625,17.3 C65.0874981,17.500001 64.6791689,17.6499995 64.2375,17.75 C63.7958311,17.8500005 63.3333357,17.9 62.85,17.9 Z M66.825,12.35 C66.825,11.9083311 66.7604173,11.5187517 66.63125,11.18125 C66.5020827,10.8437483 66.3229178,10.5625011 66.09375,10.3375 C65.8645822,10.1124989 65.5875016,9.94166725 65.2625,9.825 C64.9374984,9.70833275 64.5833352,9.65 64.2,9.65 C63.8083314,9.65 63.4604182,9.71874931 63.15625,9.85625 C62.8520818,9.99375069 62.5937511,10.1833321 62.38125,10.425 C62.1687489,10.6666679 62.0062506,10.9520817 61.89375,11.28125 C61.7812494,11.6104183 61.725,11.9666647 61.725,12.35 C61.725,14.1666757 62.5666583,15.075 64.25,15.075 C65.0750041,15.075 65.7104144,14.8270858 66.15625,14.33125 C66.6020856,13.8354142 66.825,13.1750041 66.825,12.35 Z M77.35,17.9 C76.7583304,17.9 76.1666696,17.7937511 75.575,17.58125 C74.9833304,17.3687489 74.4479191,17.0458355 73.96875,16.6125 C73.4895809,16.1791645 73.1000015,15.6333366 72.8,14.975 C72.4999985,14.3166634 72.35,13.5375045 72.35,12.6375 C72.35,11.8124959 72.5020818,11.033337 72.80625,10.3 C73.1104182,9.566663 73.5437472,8.92500275 74.10625,8.375 C74.6687528,7.82499725 75.3416627,7.38958494 76.125,7.06875 C76.9083372,6.74791506 77.7833285,6.5875 78.75,6.5875 C79.7333382,6.5875 80.6124961,6.7374985 81.3875,7.0375 C82.1625039,7.3375015 82.8187473,7.75833063 83.35625,8.3 C83.8937527,8.84166937 84.3062486,9.48541294 84.59375,10.23125 C84.8812514,10.9770871 85.025,11.7999955 85.025,12.7 C85.025,13.300003 84.9770838,13.8624974 84.88125,14.3875 C84.7854162,14.9125026 84.6520842,15.4145809 84.48125,15.89375 C84.3104158,16.3729191 84.1041679,16.8312478 83.8625,17.26875 C83.6208321,17.7062522 83.3500015,18.1374979 83.05,18.5625 L79.125,24.1375 C78.9583325,24.3791679 78.6958351,24.5833325 78.3375,24.75 C77.9791649,24.9166675 77.5750022,25 77.125,25 L73.55,25 L79.325,18.1 C79.4416672,17.9583326 79.5520828,17.8229173 79.65625,17.69375 C79.7604172,17.5645827 79.8624995,17.433334 79.9625,17.3 C79.5874981,17.500001 79.1791689,17.6499995 78.7375,17.75 C78.2958311,17.8500005 77.8333357,17.9 77.35,17.9 Z M81.325,12.35 C81.325,11.9083311 81.2604173,11.5187517 81.13125,11.18125 C81.0020827,10.8437483 80.8229178,10.5625011 80.59375,10.3375 C80.3645822,10.1124989 80.0875016,9.94166725 79.7625,9.825 C79.4374984,9.70833275 79.0833352,9.65 78.7,9.65 C78.3083314,9.65 77.9604182,9.71874931 77.65625,9.85625 C77.3520818,9.99375069 77.0937511,10.1833321 76.88125,10.425 C76.6687489,10.6666679 76.5062506,10.9520817 76.39375,11.28125 C76.2812494,11.6104183 76.225,11.9666647 76.225,12.35 C76.225,14.1666757 77.0666582,15.075 78.75,15.075 C79.5750041,15.075 80.2104144,14.8270858 80.65625,14.33125 C81.1020856,13.8354142 81.325,13.1750041 81.325,12.35 Z" id="$7.99" fill="#484848"></path>
            <rect id="Rectangle-2" fill="#FF3838" transform="translate(55.500000, 17.000000) rotate(-106.000000) translate(-55.500000, -17.000000) " x="53" y="-12" width="5" height="58"></rect>
        </g>
        <path d="M49.6975,225.3875 C49.6975,225.654168 49.6558337,225.895832 49.5725,226.1125 C49.4891662,226.329168 49.3579176,226.518749 49.17875,226.68125 C48.9995824,226.843751 48.7641681,226.96875 48.4725,227.05625 C48.1808319,227.14375 47.8308354,227.1875 47.4225,227.1875 L43.0725,227.1875 L42.56,230.2 C42.9016684,230.141666 43.2308317,230.097917 43.5475,230.06875 C43.8641682,230.039583 44.1724985,230.025 44.4725,230.025 C45.4308381,230.025 46.276663,230.170832 47.01,230.4625 C47.743337,230.754168 48.3599975,231.152081 48.86,231.65625 C49.3600025,232.160419 49.7370821,232.75208 49.99125,233.43125 C50.2454179,234.11042 50.3725,234.837496 50.3725,235.6125 C50.3725,236.587505 50.1995851,237.477079 49.85375,238.28125 C49.5079149,239.085421 49.0266697,239.779164 48.41,240.3625 C47.7933302,240.945836 47.0579209,241.397915 46.20375,241.71875 C45.3495791,242.039585 44.4141717,242.2 43.3975,242.2 C42.8058304,242.2 42.2412527,242.137501 41.70375,242.0125 C41.1662473,241.887499 40.6620857,241.718751 40.19125,241.50625 C39.7204143,241.293749 39.285002,241.047918 38.885,240.76875 C38.484998,240.489582 38.1225016,240.191668 37.7975,239.875 L38.9975,238.275 C39.1225006,238.108332 39.2683325,237.98125 39.435,237.89375 C39.6016675,237.80625 39.7808324,237.7625 39.9725,237.7625 C40.2225012,237.7625 40.4579156,237.831249 40.67875,237.96875 C40.8995844,238.106251 41.1412487,238.256249 41.40375,238.41875 C41.6662513,238.581251 41.9724982,238.729166 42.3225,238.8625 C42.6725017,238.995834 43.1058307,239.0625 43.6225,239.0625 C44.1391692,239.0625 44.5808315,238.977084 44.9475,238.80625 C45.3141685,238.635416 45.6120822,238.402085 45.84125,238.10625 C46.0704178,237.810415 46.2370828,237.464585 46.34125,237.06875 C46.4454172,236.672915 46.4975,236.250002 46.4975,235.8 C46.4975,234.916662 46.2475025,234.243752 45.7475,233.78125 C45.2474975,233.318748 44.5391712,233.0875 43.6225,233.0875 C42.8058292,233.0875 42.0058372,233.241665 41.2225,233.55 L38.8225,232.9 L40.3725,223.7875 L49.6975,223.7875 L49.6975,225.3875 Z M65.8665,232.8875 C65.8665,234.479175 65.6956684,235.858328 65.354,237.025 C65.0123316,238.191673 64.5394197,239.15833 63.93525,239.925 C63.3310803,240.69167 62.6144208,241.262498 61.78525,241.6375 C60.9560792,242.012502 60.0581715,242.2 59.0915,242.2 C58.1248285,242.2 57.2310874,242.012502 56.41025,241.6375 C55.5894126,241.262498 54.879003,240.69167 54.279,239.925 C53.678997,239.15833 53.2102517,238.191673 52.87275,237.025 C52.5352483,235.858328 52.3665,234.479175 52.3665,232.8875 C52.3665,231.295825 52.5352483,229.916673 52.87275,228.75 C53.2102517,227.583327 53.678997,226.61667 54.279,225.85 C54.879003,225.083329 55.5894126,224.514585 56.41025,224.14375 C57.2310874,223.772915 58.1248285,223.5875 59.0915,223.5875 C60.0581715,223.5875 60.9560792,223.772915 61.78525,224.14375 C62.6144208,224.514585 63.3310803,225.083329 63.93525,225.85 C64.5394197,226.61667 65.0123316,227.583327 65.354,228.75 C65.6956684,229.916673 65.8665,231.295825 65.8665,232.8875 Z M61.8665,232.8875 C61.8665,231.62916 61.7873341,230.597921 61.629,229.79375 C61.4706659,228.989579 61.2602513,228.358336 60.99775,227.9 C60.7352487,227.441664 60.437335,227.127084 60.104,226.95625 C59.770665,226.785416 59.4331684,226.7 59.0915,226.7 C58.7498316,226.7 58.4144183,226.785416 58.08525,226.95625 C57.7560817,227.127084 57.4644179,227.441664 57.21025,227.9 C56.9560821,228.358336 56.7519174,228.989579 56.59775,229.79375 C56.4435826,230.597921 56.3665,231.62916 56.3665,232.8875 C56.3665,234.154173 56.4435826,235.187496 56.59775,235.9875 C56.7519174,236.787504 56.9560821,237.418748 57.21025,237.88125 C57.4644179,238.343752 57.7560817,238.660416 58.08525,238.83125 C58.4144183,239.002084 58.7498316,239.0875 59.0915,239.0875 C59.4331684,239.0875 59.770665,239.002084 60.104,238.83125 C60.437335,238.660416 60.7352487,238.343752 60.99775,237.88125 C61.2602513,237.418748 61.4706659,236.787504 61.629,235.9875 C61.7873341,235.187496 61.8665,234.154173 61.8665,232.8875 Z M75.8605,228.2 C75.8605,228.86667 75.7396679,229.474997 75.498,230.025 C75.2563321,230.575003 74.935502,231.047915 74.5355,231.44375 C74.135498,231.839585 73.6709193,232.145832 73.14175,232.3625 C72.6125807,232.579168 72.0605029,232.6875 71.4855,232.6875 C70.8521635,232.6875 70.2709193,232.579168 69.74175,232.3625 C69.2125807,232.145832 68.7542519,231.839585 68.36675,231.44375 C67.9792481,231.047915 67.6771677,230.575003 67.4605,230.025 C67.2438322,229.474997 67.1355,228.86667 67.1355,228.2 C67.1355,227.50833 67.2438322,226.881253 67.4605,226.31875 C67.6771677,225.756247 67.9792481,225.275002 68.36675,224.875 C68.7542519,224.474998 69.2125807,224.164584 69.74175,223.94375 C70.2709193,223.722916 70.8521635,223.6125 71.4855,223.6125 C72.1188365,223.6125 72.7042473,223.722916 73.24175,223.94375 C73.7792527,224.164584 74.2417481,224.474998 74.62925,224.875 C75.0167519,225.275002 75.3188322,225.756247 75.5355,226.31875 C75.7521677,226.881253 75.8605,227.50833 75.8605,228.2 Z M72.8855,228.2 C72.8855,227.774998 72.8500837,227.422918 72.77925,227.14375 C72.7084163,226.864582 72.6105006,226.641668 72.4855,226.475 C72.3604994,226.308333 72.2125842,226.191667 72.04175,226.125 C71.8709158,226.058333 71.685501,226.025 71.4855,226.025 C71.285499,226.025 71.1021675,226.058333 70.9355,226.125 C70.7688325,226.191667 70.6271672,226.308333 70.5105,226.475 C70.3938327,226.641668 70.302167,226.864582 70.2355,227.14375 C70.168833,227.422918 70.1355,227.774998 70.1355,228.2 C70.1355,228.600002 70.168833,228.933332 70.2355,229.2 C70.302167,229.466668 70.3938327,229.679166 70.5105,229.8375 C70.6271672,229.995834 70.7688325,230.108333 70.9355,230.175 C71.1021675,230.241667 71.285499,230.275 71.4855,230.275 C71.685501,230.275 71.8709158,230.241667 72.04175,230.175 C72.2125842,230.108333 72.3604994,229.995834 72.4855,229.8375 C72.6105006,229.679166 72.7084163,229.466668 72.77925,229.2 C72.8500837,228.933332 72.8855,228.600002 72.8855,228.2 Z M81.5855,224.3625 C81.7105006,224.220833 81.8646657,224.089584 82.048,223.96875 C82.2313342,223.847916 82.4854984,223.7875 82.8105,223.7875 L85.6355,223.7875 L71.9105,241.45 C71.7854994,241.608334 71.6292509,241.739583 71.44175,241.84375 C71.2542491,241.947917 71.027168,242 70.7605,242 L67.8605,242 L81.5855,224.3625 Z M86.3355,237.725 C86.3355,238.39167 86.2146679,239.002081 85.973,239.55625 C85.7313321,240.110419 85.410502,240.585415 85.0105,240.98125 C84.610498,241.377085 84.1459193,241.683332 83.61675,241.9 C83.0875807,242.116668 82.5355029,242.225 81.9605,242.225 C81.3271635,242.225 80.7459193,242.116668 80.21675,241.9 C79.6875807,241.683332 79.2292519,241.377085 78.84175,240.98125 C78.4542481,240.585415 78.1521677,240.110419 77.9355,239.55625 C77.7188322,239.002081 77.6105,238.39167 77.6105,237.725 C77.6105,237.03333 77.7188322,236.406253 77.9355,235.84375 C78.1521677,235.281247 78.4542481,234.800002 78.84175,234.4 C79.2292519,233.999998 79.6875807,233.689584 80.21675,233.46875 C80.7459193,233.247916 81.3271635,233.1375 81.9605,233.1375 C82.5938365,233.1375 83.1792473,233.247916 83.71675,233.46875 C84.2542527,233.689584 84.7167481,233.999998 85.10425,234.4 C85.4917519,234.800002 85.7938322,235.281247 86.0105,235.84375 C86.2271677,236.406253 86.3355,237.03333 86.3355,237.725 Z M83.3605,237.725 C83.3605,237.308331 83.3250837,236.960418 83.25425,236.68125 C83.1834163,236.402082 83.0855006,236.179168 82.9605,236.0125 C82.8354994,235.845833 82.6875842,235.729167 82.51675,235.6625 C82.3459158,235.595833 82.160501,235.5625 81.9605,235.5625 C81.760499,235.5625 81.5771675,235.595833 81.4105,235.6625 C81.2438325,235.729167 81.1021672,235.845833 80.9855,236.0125 C80.8688327,236.179168 80.777167,236.402082 80.7105,236.68125 C80.643833,236.960418 80.6105,237.308331 80.6105,237.725 C80.6105,238.125002 80.643833,238.458332 80.7105,238.725 C80.777167,238.991668 80.8688327,239.204166 80.9855,239.3625 C81.1021672,239.520834 81.2438325,239.633333 81.4105,239.7 C81.5771675,239.766667 81.760499,239.8 81.9605,239.8 C82.160501,239.8 82.3459158,239.766667 82.51675,239.7 C82.6875842,239.633333 82.8354994,239.520834 82.9605,239.3625 C83.0855006,239.204166 83.1834163,238.991668 83.25425,238.725 C83.3250837,238.458332 83.3605,238.125002 83.3605,237.725 Z M99.3485,228.8375 C100.331838,228.8375 101.227663,228.991665 102.036,229.3 C102.844337,229.608335 103.53808,230.049997 104.11725,230.625 C104.69642,231.200003 105.146415,231.897913 105.46725,232.71875 C105.788085,233.539587 105.9485,234.462495 105.9485,235.4875 C105.9485,236.520838 105.788085,237.452079 105.46725,238.28125 C105.146415,239.110421 104.69642,239.81458 104.11725,240.39375 C103.53808,240.97292 102.844337,241.418748 102.036,241.73125 C101.227663,242.043752 100.331838,242.2 99.3485,242.2 C98.3568284,242.2 97.4547541,242.043752 96.64225,241.73125 C95.8297459,241.418748 95.1297529,240.97292 94.54225,240.39375 C93.9547471,239.81458 93.5005849,239.110421 93.17975,238.28125 C92.8589151,237.452079 92.6985,236.520838 92.6985,235.4875 C92.6985,234.462495 92.8589151,233.539587 93.17975,232.71875 C93.5005849,231.897913 93.9547471,231.200003 94.54225,230.625 C95.1297529,230.049997 95.8297459,229.608335 96.64225,229.3 C97.4547541,228.991665 98.3568284,228.8375 99.3485,228.8375 Z M99.3485,239.325 C100.240171,239.325 100.896415,239.01042 101.31725,238.38125 C101.738085,237.75208 101.9485,236.79584 101.9485,235.5125 C101.9485,234.22916 101.738085,233.275003 101.31725,232.65 C100.896415,232.024997 100.240171,231.7125 99.3485,231.7125 C98.4318287,231.7125 97.7610021,232.024997 97.336,232.65 C96.9109979,233.275003 96.6985,234.22916 96.6985,235.5125 C96.6985,236.79584 96.9109979,237.75208 97.336,238.38125 C97.7610021,239.01042 98.4318287,239.325 99.3485,239.325 Z M108.7925,242 L108.7925,231.7 L107.9425,231.525 C107.650832,231.458333 107.415418,231.354167 107.23625,231.2125 C107.057082,231.070833 106.9675,230.862501 106.9675,230.5875 L106.9675,229.0625 L108.7925,229.0625 L108.7925,228.325 C108.7925,227.58333 108.911249,226.912503 109.14875,226.3125 C109.386251,225.712497 109.727914,225.200002 110.17375,224.775 C110.619586,224.349998 111.16333,224.020835 111.805,223.7875 C112.44667,223.554166 113.175829,223.4375 113.9925,223.4375 C114.309168,223.4375 114.602915,223.45625 114.87375,223.49375 C115.144585,223.53125 115.425832,223.591666 115.7175,223.675 L115.6425,225.5625 C115.634167,225.695834 115.59875,225.80625 115.53625,225.89375 C115.47375,225.98125 115.396667,226.052083 115.305,226.10625 C115.213333,226.160417 115.111251,226.2 114.99875,226.225 C114.886249,226.25 114.775834,226.2625 114.6675,226.2625 C114.325832,226.2625 114.021668,226.295833 113.755,226.3625 C113.488332,226.429167 113.265418,226.547916 113.08625,226.71875 C112.907082,226.889584 112.771667,227.114582 112.68,227.39375 C112.588333,227.672918 112.5425,228.024998 112.5425,228.45 L112.5425,229.0625 L115.5925,229.0625 L115.5925,231.7125 L112.6675,231.7125 L112.6675,242 L108.7925,242 Z M117.9865,242 L117.9865,231.7 L117.1365,231.525 C116.844832,231.458333 116.609418,231.354167 116.43025,231.2125 C116.251082,231.070833 116.1615,230.862501 116.1615,230.5875 L116.1615,229.0625 L117.9865,229.0625 L117.9865,228.325 C117.9865,227.58333 118.105249,226.912503 118.34275,226.3125 C118.580251,225.712497 118.921914,225.200002 119.36775,224.775 C119.813586,224.349998 120.35733,224.020835 120.999,223.7875 C121.64067,223.554166 122.369829,223.4375 123.1865,223.4375 C123.503168,223.4375 123.796915,223.45625 124.06775,223.49375 C124.338585,223.53125 124.619832,223.591666 124.9115,223.675 L124.8365,225.5625 C124.828167,225.695834 124.79275,225.80625 124.73025,225.89375 C124.66775,225.98125 124.590667,226.052083 124.499,226.10625 C124.407333,226.160417 124.305251,226.2 124.19275,226.225 C124.080249,226.25 123.969834,226.2625 123.8615,226.2625 C123.519832,226.2625 123.215668,226.295833 122.949,226.3625 C122.682332,226.429167 122.459418,226.547916 122.28025,226.71875 C122.101082,226.889584 121.965667,227.114582 121.874,227.39375 C121.782333,227.672918 121.7365,228.024998 121.7365,228.45 L121.7365,229.0625 L124.7865,229.0625 L124.7865,231.7125 L121.8615,231.7125 L121.8615,242 L117.9865,242 Z M132.1495,242 L132.1495,231.7 L131.2995,231.525 C131.007832,231.458333 130.772418,231.354167 130.59325,231.2125 C130.414082,231.070833 130.3245,230.862501 130.3245,230.5875 L130.3245,229.0625 L132.1495,229.0625 L132.1495,228.325 C132.1495,227.58333 132.268249,226.912503 132.50575,226.3125 C132.743251,225.712497 133.084914,225.200002 133.53075,224.775 C133.976586,224.349998 134.52033,224.020835 135.162,223.7875 C135.80367,223.554166 136.532829,223.4375 137.3495,223.4375 C137.666168,223.4375 137.959915,223.45625 138.23075,223.49375 C138.501585,223.53125 138.782832,223.591666 139.0745,223.675 L138.9995,225.5625 C138.991167,225.695834 138.95575,225.80625 138.89325,225.89375 C138.83075,225.98125 138.753667,226.052083 138.662,226.10625 C138.570333,226.160417 138.468251,226.2 138.35575,226.225 C138.243249,226.25 138.132834,226.2625 138.0245,226.2625 C137.682832,226.2625 137.378668,226.295833 137.112,226.3625 C136.845332,226.429167 136.622418,226.547916 136.44325,226.71875 C136.264082,226.889584 136.128667,227.114582 136.037,227.39375 C135.945333,227.672918 135.8995,228.024998 135.8995,228.45 L135.8995,229.0625 L138.9495,229.0625 L138.9495,231.7125 L136.0245,231.7125 L136.0245,242 L132.1495,242 Z M146.5435,228.8375 C147.526838,228.8375 148.422663,228.991665 149.231,229.3 C150.039337,229.608335 150.73308,230.049997 151.31225,230.625 C151.89142,231.200003 152.341415,231.897913 152.66225,232.71875 C152.983085,233.539587 153.1435,234.462495 153.1435,235.4875 C153.1435,236.520838 152.983085,237.452079 152.66225,238.28125 C152.341415,239.110421 151.89142,239.81458 151.31225,240.39375 C150.73308,240.97292 150.039337,241.418748 149.231,241.73125 C148.422663,242.043752 147.526838,242.2 146.5435,242.2 C145.551828,242.2 144.649754,242.043752 143.83725,241.73125 C143.024746,241.418748 142.324753,240.97292 141.73725,240.39375 C141.149747,239.81458 140.695585,239.110421 140.37475,238.28125 C140.053915,237.452079 139.8935,236.520838 139.8935,235.4875 C139.8935,234.462495 140.053915,233.539587 140.37475,232.71875 C140.695585,231.897913 141.149747,231.200003 141.73725,230.625 C142.324753,230.049997 143.024746,229.608335 143.83725,229.3 C144.649754,228.991665 145.551828,228.8375 146.5435,228.8375 Z M146.5435,239.325 C147.435171,239.325 148.091415,239.01042 148.51225,238.38125 C148.933085,237.75208 149.1435,236.79584 149.1435,235.5125 C149.1435,234.22916 148.933085,233.275003 148.51225,232.65 C148.091415,232.024997 147.435171,231.7125 146.5435,231.7125 C145.626829,231.7125 144.956002,232.024997 144.531,232.65 C144.105998,233.275003 143.8935,234.22916 143.8935,235.5125 C143.8935,236.79584 144.105998,237.75208 144.531,238.38125 C144.956002,239.01042 145.626829,239.325 146.5435,239.325 Z M155.4125,242 L155.4125,229.0375 L157.7125,229.0375 C157.904168,229.0375 158.064583,229.054167 158.19375,229.0875 C158.322917,229.120834 158.43125,229.172916 158.51875,229.24375 C158.60625,229.314584 158.672916,229.408333 158.71875,229.525 C158.764584,229.641667 158.804166,229.783333 158.8375,229.95 L159.05,231.1625 C159.525002,230.429163 160.05833,229.850002 160.65,229.425 C161.24167,228.999998 161.887496,228.7875 162.5875,228.7875 C163.17917,228.7875 163.654165,228.929165 164.0125,229.2125 L163.5125,232.0625 C163.479166,232.237501 163.4125,232.360416 163.3125,232.43125 C163.212499,232.502084 163.079167,232.5375 162.9125,232.5375 C162.770833,232.5375 162.604168,232.51875 162.4125,232.48125 C162.220832,232.44375 161.979168,232.425 161.6875,232.425 C160.670828,232.425 159.870836,232.966661 159.2875,234.05 L159.2875,242 L155.4125,242 Z M176.4005,228.8375 C177.258838,228.8375 178.044246,228.970832 178.75675,229.2375 C179.469254,229.504168 180.081747,229.891664 180.59425,230.4 C181.106753,230.908336 181.506749,231.531246 181.79425,232.26875 C182.081751,233.006254 182.2255,233.841662 182.2255,234.775 C182.2255,235.066668 182.213,235.304166 182.188,235.4875 C182.163,235.670834 182.117167,235.816666 182.0505,235.925 C181.983833,236.033334 181.894251,236.108333 181.78175,236.15 C181.669249,236.191667 181.525501,236.2125 181.3505,236.2125 L173.8755,236.2125 C174.000501,237.295839 174.329664,238.081248 174.863,238.56875 C175.396336,239.056252 176.083829,239.3 176.9255,239.3 C177.375502,239.3 177.762998,239.245834 178.088,239.1375 C178.413002,239.029166 178.702582,238.908334 178.95675,238.775 C179.210918,238.641666 179.444249,238.520834 179.65675,238.4125 C179.869251,238.304166 180.092165,238.25 180.3255,238.25 C180.633835,238.25 180.867166,238.362499 181.0255,238.5875 L182.1505,239.975 C181.750498,240.433336 181.319252,240.806249 180.85675,241.09375 C180.394248,241.381251 179.919252,241.606249 179.43175,241.76875 C178.944248,241.931251 178.456752,242.04375 177.96925,242.10625 C177.481748,242.16875 177.017169,242.2 176.5755,242.2 C175.667162,242.2 174.815087,242.052085 174.01925,241.75625 C173.223413,241.460415 172.527586,241.020836 171.93175,240.4375 C171.335914,239.854164 170.865085,239.129171 170.51925,238.2625 C170.173415,237.395829 170.0005,236.387506 170.0005,235.2375 C170.0005,234.370829 170.148415,233.550004 170.44425,232.775 C170.740085,231.999996 171.165081,231.320836 171.71925,230.7375 C172.273419,230.154164 172.944246,229.691668 173.73175,229.35 C174.519254,229.008332 175.408828,228.8375 176.4005,228.8375 Z M176.4755,231.5125 C175.73383,231.5125 175.154669,231.722915 174.738,232.14375 C174.321331,232.564585 174.046334,233.170829 173.913,233.9625 L178.7505,233.9625 C178.7505,233.654165 178.710917,233.354168 178.63175,233.0625 C178.552583,232.770832 178.423418,232.510418 178.24425,232.28125 C178.065082,232.052082 177.829668,231.866667 177.538,231.725 C177.246332,231.583333 176.892169,231.5125 176.4755,231.5125 Z M191.2695,242 L187.7445,242 L182.7195,229.0375 L185.9445,229.0375 C186.219501,229.0375 186.450749,229.102083 186.63825,229.23125 C186.825751,229.360417 186.952833,229.520832 187.0195,229.7125 L188.8195,235.525 C188.961167,236.000002 189.096583,236.462498 189.22575,236.9125 C189.354917,237.362502 189.465333,237.812498 189.557,238.2625 C189.648667,237.812498 189.761166,237.362502 189.8945,236.9125 C190.027834,236.462498 190.169499,236.000002 190.3195,235.525 L192.1945,229.7125 C192.261167,229.520832 192.386166,229.360417 192.5695,229.23125 C192.752834,229.102083 192.969499,229.0375 193.2195,229.0375 L196.2945,229.0375 L191.2695,242 Z M203.1135,228.8375 C203.971838,228.8375 204.757246,228.970832 205.46975,229.2375 C206.182254,229.504168 206.794747,229.891664 207.30725,230.4 C207.819753,230.908336 208.219749,231.531246 208.50725,232.26875 C208.794751,233.006254 208.9385,233.841662 208.9385,234.775 C208.9385,235.066668 208.926,235.304166 208.901,235.4875 C208.876,235.670834 208.830167,235.816666 208.7635,235.925 C208.696833,236.033334 208.607251,236.108333 208.49475,236.15 C208.382249,236.191667 208.238501,236.2125 208.0635,236.2125 L200.5885,236.2125 C200.713501,237.295839 201.042664,238.081248 201.576,238.56875 C202.109336,239.056252 202.796829,239.3 203.6385,239.3 C204.088502,239.3 204.475998,239.245834 204.801,239.1375 C205.126002,239.029166 205.415582,238.908334 205.66975,238.775 C205.923918,238.641666 206.157249,238.520834 206.36975,238.4125 C206.582251,238.304166 206.805165,238.25 207.0385,238.25 C207.346835,238.25 207.580166,238.362499 207.7385,238.5875 L208.8635,239.975 C208.463498,240.433336 208.032252,240.806249 207.56975,241.09375 C207.107248,241.381251 206.632252,241.606249 206.14475,241.76875 C205.657248,241.931251 205.169752,242.04375 204.68225,242.10625 C204.194748,242.16875 203.730169,242.2 203.2885,242.2 C202.380162,242.2 201.528087,242.052085 200.73225,241.75625 C199.936413,241.460415 199.240586,241.020836 198.64475,240.4375 C198.048914,239.854164 197.578085,239.129171 197.23225,238.2625 C196.886415,237.395829 196.7135,236.387506 196.7135,235.2375 C196.7135,234.370829 196.861415,233.550004 197.15725,232.775 C197.453085,231.999996 197.878081,231.320836 198.43225,230.7375 C198.986419,230.154164 199.657246,229.691668 200.44475,229.35 C201.232254,229.008332 202.121828,228.8375 203.1135,228.8375 Z M203.1885,231.5125 C202.44683,231.5125 201.867669,231.722915 201.451,232.14375 C201.034331,232.564585 200.759334,233.170829 200.626,233.9625 L205.4635,233.9625 C205.4635,233.654165 205.423917,233.354168 205.34475,233.0625 C205.265583,232.770832 205.136418,232.510418 204.95725,232.28125 C204.778082,232.052082 204.542668,231.866667 204.251,231.725 C203.959332,231.583333 203.605169,231.5125 203.1885,231.5125 Z M211.3075,242 L211.3075,229.0375 L213.6075,229.0375 C213.799168,229.0375 213.959583,229.054167 214.08875,229.0875 C214.217917,229.120834 214.32625,229.172916 214.41375,229.24375 C214.50125,229.314584 214.567916,229.408333 214.61375,229.525 C214.659584,229.641667 214.699166,229.783333 214.7325,229.95 L214.945,231.1625 C215.420002,230.429163 215.95333,229.850002 216.545,229.425 C217.13667,228.999998 217.782496,228.7875 218.4825,228.7875 C219.07417,228.7875 219.549165,228.929165 219.9075,229.2125 L219.4075,232.0625 C219.374166,232.237501 219.3075,232.360416 219.2075,232.43125 C219.107499,232.502084 218.974167,232.5375 218.8075,232.5375 C218.665833,232.5375 218.499168,232.51875 218.3075,232.48125 C218.115832,232.44375 217.874168,232.425 217.5825,232.425 C216.565828,232.425 215.765836,232.966661 215.1825,234.05 L215.1825,242 L211.3075,242 Z M227.0765,245.3625 C226.959833,245.620835 226.818167,245.810416 226.6515,245.93125 C226.484832,246.052084 226.218168,246.1125 225.8515,246.1125 L222.9515,246.1125 L225.4515,240.8625 L220.2765,229.0375 L223.7015,229.0375 C224.001501,229.0375 224.234832,229.104166 224.4015,229.2375 C224.568167,229.370834 224.684833,229.529166 224.7515,229.7125 L226.8765,235.3 C227.076501,235.816669 227.238999,236.333331 227.364,236.85 C227.447334,236.583332 227.538999,236.320835 227.639,236.0625 C227.739,235.804165 227.834833,235.541668 227.9265,235.275 L229.8515,229.7125 C229.918167,229.520832 230.049416,229.360417 230.24525,229.23125 C230.441084,229.102083 230.651499,229.0375 230.8765,229.0375 L234.0015,229.0375 L227.0765,245.3625 Z M241.0205,228.8375 C242.003838,228.8375 242.899663,228.991665 243.708,229.3 C244.516337,229.608335 245.21008,230.049997 245.78925,230.625 C246.36842,231.200003 246.818415,231.897913 247.13925,232.71875 C247.460085,233.539587 247.6205,234.462495 247.6205,235.4875 C247.6205,236.520838 247.460085,237.452079 247.13925,238.28125 C246.818415,239.110421 246.36842,239.81458 245.78925,240.39375 C245.21008,240.97292 244.516337,241.418748 243.708,241.73125 C242.899663,242.043752 242.003838,242.2 241.0205,242.2 C240.028828,242.2 239.126754,242.043752 238.31425,241.73125 C237.501746,241.418748 236.801753,240.97292 236.21425,240.39375 C235.626747,239.81458 235.172585,239.110421 234.85175,238.28125 C234.530915,237.452079 234.3705,236.520838 234.3705,235.4875 C234.3705,234.462495 234.530915,233.539587 234.85175,232.71875 C235.172585,231.897913 235.626747,231.200003 236.21425,230.625 C236.801753,230.049997 237.501746,229.608335 238.31425,229.3 C239.126754,228.991665 240.028828,228.8375 241.0205,228.8375 Z M241.0205,239.325 C241.912171,239.325 242.568415,239.01042 242.98925,238.38125 C243.410085,237.75208 243.6205,236.79584 243.6205,235.5125 C243.6205,234.22916 243.410085,233.275003 242.98925,232.65 C242.568415,232.024997 241.912171,231.7125 241.0205,231.7125 C240.103829,231.7125 239.433002,232.024997 239.008,232.65 C238.582998,233.275003 238.3705,234.22916 238.3705,235.5125 C238.3705,236.79584 238.582998,237.75208 239.008,238.38125 C239.433002,239.01042 240.103829,239.325 241.0205,239.325 Z M249.8895,242 L249.8895,229.0375 L252.2895,229.0375 C252.531168,229.0375 252.733249,229.091666 252.89575,229.2 C253.058251,229.308334 253.172833,229.470832 253.2395,229.6875 L253.4645,230.4375 C253.714501,230.204165 253.972832,229.987501 254.2395,229.7875 C254.506168,229.587499 254.791582,229.418751 255.09575,229.28125 C255.399918,229.143749 255.729082,229.035417 256.08325,228.95625 C256.437418,228.877083 256.822831,228.8375 257.2395,228.8375 C257.947837,228.8375 258.574914,228.960415 259.12075,229.20625 C259.666586,229.452085 260.126998,229.793748 260.502,230.23125 C260.877002,230.668752 261.160332,231.18958 261.352,231.79375 C261.543668,232.39792 261.6395,233.054163 261.6395,233.7625 L261.6395,242 L257.7645,242 L257.7645,233.7625 C257.7645,233.129164 257.618668,232.635418 257.327,232.28125 C257.035332,231.927082 256.606169,231.75 256.0395,231.75 C255.614498,231.75 255.214502,231.841666 254.8395,232.025 C254.464498,232.208334 254.106168,232.454165 253.7645,232.7625 L253.7645,242 L249.8895,242 Z M270.0835,228.8375 C270.941838,228.8375 271.727246,228.970832 272.43975,229.2375 C273.152254,229.504168 273.764747,229.891664 274.27725,230.4 C274.789753,230.908336 275.189749,231.531246 275.47725,232.26875 C275.764751,233.006254 275.9085,233.841662 275.9085,234.775 C275.9085,235.066668 275.896,235.304166 275.871,235.4875 C275.846,235.670834 275.800167,235.816666 275.7335,235.925 C275.666833,236.033334 275.577251,236.108333 275.46475,236.15 C275.352249,236.191667 275.208501,236.2125 275.0335,236.2125 L267.5585,236.2125 C267.683501,237.295839 268.012664,238.081248 268.546,238.56875 C269.079336,239.056252 269.766829,239.3 270.6085,239.3 C271.058502,239.3 271.445998,239.245834 271.771,239.1375 C272.096002,239.029166 272.385582,238.908334 272.63975,238.775 C272.893918,238.641666 273.127249,238.520834 273.33975,238.4125 C273.552251,238.304166 273.775165,238.25 274.0085,238.25 C274.316835,238.25 274.550166,238.362499 274.7085,238.5875 L275.8335,239.975 C275.433498,240.433336 275.002252,240.806249 274.53975,241.09375 C274.077248,241.381251 273.602252,241.606249 273.11475,241.76875 C272.627248,241.931251 272.139752,242.04375 271.65225,242.10625 C271.164748,242.16875 270.700169,242.2 270.2585,242.2 C269.350162,242.2 268.498087,242.052085 267.70225,241.75625 C266.906413,241.460415 266.210586,241.020836 265.61475,240.4375 C265.018914,239.854164 264.548085,239.129171 264.20225,238.2625 C263.856415,237.395829 263.6835,236.387506 263.6835,235.2375 C263.6835,234.370829 263.831415,233.550004 264.12725,232.775 C264.423085,231.999996 264.848081,231.320836 265.40225,230.7375 C265.956419,230.154164 266.627246,229.691668 267.41475,229.35 C268.202254,229.008332 269.091828,228.8375 270.0835,228.8375 Z M270.1585,231.5125 C269.41683,231.5125 268.837669,231.722915 268.421,232.14375 C268.004331,232.564585 267.729334,233.170829 267.596,233.9625 L272.4335,233.9625 C272.4335,233.654165 272.393917,233.354168 272.31475,233.0625 C272.235583,232.770832 272.106418,232.510418 271.92725,232.28125 C271.748082,232.052082 271.512668,231.866667 271.221,231.725 C270.929332,231.583333 270.575169,231.5125 270.1585,231.5125 Z" id="50%-off-for-everyone" fill="#E90066"></path>
    </g>
</svg>