<svg xmlns="http://www.w3.org/2000/svg" data-name="Layer 1" viewBox="0 0 100 100" x="0px" y="0px"><title>47 all</title><g>"><g>"><path d="M81.5,87.19h-54a26.5,26.5,0,0,1-10.07-51,34.38,34.38,0,0,1,66.94,11,32.57,32.57,0,0,1-.57,5.15,17.5,17.5,0,0,1-2.3,34.85ZM50,20.81A26.39,26.39,0,0,0,24.55,40.28a4,4,0,0,1-2.65,2.77,18.59,18.59,0,0,0-7.47,4.55A18.5,18.5,0,0,0,27.5,79.19h54a9.5,9.5,0,0,0,0-19H78.92A4,4,0,0,1,75,55.24L75.1,55a46,46,0,0,0,1.28-7.78A26.38,26.38,0,0,0,50,20.81Z"/></g><g>"><g>"><polygon points="50 70.79 28.59 49.38 34.25 43.72 50 59.47 65.75 43.72 71.41 49.38 50 70.79"/></g><g>"><rect x="46.34" y="30.87" width="8" height="35.02"/></g></g></g></svg>