<svg class="edit-icon-svg" width="21px" height="21px" viewBox="2531 -649 104 104"
     version="1.1" xmlns="http://www.w3.org/2000/svg">
    <defs></defs>
    <g id="noun_561917_cc" stroke="none" stroke-width="1" fill="#ffffff" fill-rule="evenodd" transform="translate(2531.000000, -649.000000)">
        <g id="Group">
            <g id="Shape">
                <g transform="translate(0.361099, 0.647422)">
                    <g>
                        <g transform="translate(58.240582, 44.425324) rotate(45.000000) translate(-58.240582, -44.425324) translate(48.740582, -8.574676)">
                            <path d="M1.19696014,93.6468585 L1.19696014,93.6394357 C1.19696014,65.3570173 0.679755141,37.0701452 1.19696014,8.79218055 C1.22651471,7.67875796 1.46295128,6.580181 1.89149257,5.55286309 C2.39392028,4.36521233 3.14756185,3.29187295 4.09330813,2.42637245 C4.83217241,1.75238064 5.68925498,1.20309217 6.60544669,0.812651978 C7.7285204,0.333137982 8.94025783,0.10451521 10.1667725,0.113422591 C11.1568507,0.131237352 12.1173742,0.300477586 13.0483432,0.6330198 C15.0432768,1.35006395 16.7278874,2.78563681 17.7770747,4.63391831 C18.0578431,5.13866988 18.2942797,5.67162817 18.4716071,6.22091664 C18.7671528,7.12353122 18.9149257,8.06474445 18.9297029,9.01486507 L18.9297029,93.6231055 C18.9297029,93.6572504 18.9297029,93.6913954 18.9149257,93.7255404 C18.9149257,93.7715618 18.9149257,93.8175833 18.9001484,93.8621202 C18.9001484,93.9304101 18.8853711,93.9942463 18.8558165,94.0981658 C18.8262619,94.1768476 18.7967074,94.2540449 18.7523755,94.3267885 C18.7523755,94.3327268 18.7523755,94.3401496 18.7375982,94.3460879 C16.7722192,97.7501919 14.6442901,101.059284 12.516361,104.366891 C12.2799244,104.705372 11.999156,104.994862 11.6445011,105.217546 C10.964746,105.658461 10.1076634,105.795041 9.30968997,105.588687 C9.01414426,105.510005 8.71859854,105.383817 8.46738469,105.217546 C8.12750712,104.994862 7.8319614,104.705372 7.59552483,104.366891 C5.49715027,101.084521 3.47266213,97.7397999 1.41861942,94.4262543 C1.41861942,94.4218006 1.40384214,94.4158624 1.40384214,94.4114087 C1.344733,94.3134275 1.30040114,94.2080235 1.27084657,94.0981658 C1.22651471,93.9957309 1.21173742,93.9304101 1.21173742,93.8636048 C1.21173742,93.8487591 1.19696014,93.8324289 1.19696014,93.8175833 L1.19696014,93.6468585 L1.19696014,93.6468585 Z M14.7772857,95.1239991 L5.33460012,95.1239991 L10.0485543,102.705665 L10.0633315,102.714572 L10.0633315,102.705665 L14.7772857,95.1239991 L14.7772857,95.1239991 Z M16.1959051,19.4112629 L4.15241727,19.4112629 L4.15241727,92.1133044 C8.08317526,92.0153233 12.0287105,92.0153233 15.9742458,92.1133044 C15.9742458,67.8807752 16.5505599,43.6393385 16.1959051,19.4112629 L16.1959051,19.4112629 Z M16.0776868,13.4730091 L4.15241727,13.4730091 L4.15241727,16.442136 L16.1367959,16.442136 C16.1220187,15.4519322 16.1072414,14.4632129 16.0776868,13.4730091 L16.0776868,13.4730091 Z M16.0038004,10.5038822 C15.9890231,9.93529441 15.9742458,9.36522204 15.9594685,8.79663424 C15.9446912,8.18944778 15.8264729,7.59116871 15.6195909,7.01664266 C15.1614951,5.72952614 14.2600807,4.62501093 13.0926751,3.92429698 C12.723243,3.7001279 12.3242562,3.51901116 11.9104922,3.38243132 C11.3341781,3.19092263 10.7430867,3.09294144 10.137218,3.08106494 C10.0485543,3.08106494 10.0633315,3.08106494 9.97466782,3.0825495 C9.29491268,3.09591057 8.60038026,3.21912934 7.95017969,3.46705144 C6.45767384,4.0371238 5.23115913,5.22774369 4.61051313,6.70785346 C4.30019013,7.44419693 4.15241727,8.22804643 4.15241727,9.02674157 L4.15241727,10.5038822 L16.0038004,10.5038822 L16.0038004,10.5038822 Z"></path>
                        </g>
                        <g transform="translate(0.803736, 5.125427)">
                            <path d="M96.0307692,89.6160101 C96.0307692,90.3334235 95.9142857,91.0461708 95.6813187,91.7274218 C95.5298901,92.2138631 95.3085714,92.683973 95.0406593,93.1237532 C94.2252747,94.5060862 92.9206593,95.5757904 91.4063736,96.1193914 C90.6958242,96.3713609 89.961978,96.5031784 89.2164835,96.5265089 C61.936044,97.0362806 34.6323077,97.0362806 7.34021978,96.5265089 C6.59472527,96.5031784 5.86087912,96.3713609 5.15032967,96.1193914 C3.69428571,95.5979544 2.41296703,94.5819104 1.59758242,93.2660693 C1.32967033,92.8309552 1.10835165,92.3725106 0.933626374,91.8895689 C0.677362637,91.1861538 0.549230769,90.4512426 0.525934066,89.7058326 C-0.0215384615,62.372967 -0.00989010989,35.0249366 0.525934066,7.69323753 C0.549230769,6.76118343 0.758901099,5.84196112 1.1432967,4.99156382 C1.4578022,4.27415046 1.91208791,3.61273035 2.44791209,3.04346577 C3.20505495,2.24789518 4.14857143,1.63546915 5.18527473,1.27034658 C5.93076923,1.00671175 6.71120879,0.878393914 7.5032967,0.873727811 L59.8859341,0.873727811 L59.8859341,3.20677937 C42.3901099,3.20677937 24.8826374,2.87665258 7.38681319,3.2079459 C6.85098901,3.22544379 6.30351648,3.32693153 5.80263736,3.52874049 C5.45318681,3.66989011 5.12703297,3.84836855 4.81252747,4.0676754 C4.13692308,4.54478445 3.6010989,5.20270499 3.2632967,5.95394759 C2.99538462,6.53837701 2.86725275,7.17063398 2.8556044,7.81105664 C2.75076923,35.1089265 1.97032967,62.4207946 2.8556044,89.7046661 C2.86725275,90.1432798 2.94879121,90.5783939 3.08857143,90.9948436 C3.20505495,91.3576331 3.36813187,91.7017582 3.5778022,92.0260524 C4.11362637,92.9009467 4.9756044,93.5763652 5.94241758,93.9228233 C6.43164835,94.0966357 6.93252747,94.1864582 7.4567033,94.1957904 C34.7021978,94.3602705 61.9826374,95.0450211 89.2164835,94.1922908 C89.7406593,94.1701268 90.2415385,94.0698056 90.7307692,93.8831615 C91.6859341,93.5098732 92.512967,92.8146238 93.0487912,91.9257312 C93.2235165,91.6329332 93.3632967,91.3203043 93.4681319,90.9960101 C93.6312088,90.5200676 93.7010989,90.0254607 93.7127473,89.5250211 L93.7127473,36.964869 L96.0424176,36.964869 C96.0424176,54.5152494 96.1821978,72.0667963 96.0307692,89.6160101 L96.0307692,89.6160101 Z"></path>
                        </g>
                    </g>
                </g>
            </g>
        </g>
    </g>
</svg>