<svg width="9px" height="12px" viewBox="0 0 9 12" version="1.1"
     xmlns="http://www.w3.org/2000/svg">
  <defs></defs>
  <g id="Group" stroke="none" stroke-width="1" fill="none" fill-rule="evenodd">
    <polygon id="Rectangle-21" fill="#EDFFFF" points="0 0 6 0 9 3 9 12 0 12"></polygon>
    <path d="M8.84361469,2.90266164 L6.09213609,0.0653032233 C6.04995773,0.0233225797 5.99393961,0 5.93594437,0 L0.219459251,0 C0.0981964817,0 0,0.0999539132 0,0.222564047 L0,11.7052696 C0,11.8285461 0.0981964817,11.9285 0.219459251,11.9285 L8.68808201,11.9285 C8.81066285,11.9285 8.90951837,11.8285461 8.90951837,11.7052696 L8.90951837,3.0592561 C8.90885933,3.00194919 8.88513401,2.94464228 8.84361469,2.90266164 Z M6.15606266,2.83669206 L6.15606266,0.768312413 L8.16414776,2.83669206 L6.15606266,2.83669206 Z M5.93594437,3.28248651 L8.46928179,3.28248651 L8.46928179,11.4840383 L0.440236576,11.4840383 L0.440236576,0.446460812 L5.71714416,0.446460812 L5.71714416,3.0592561 C5.71714416,3.1825326 5.8146816,3.28248651 5.93594437,3.28248651 Z" id="Shape" fill="#009EB4" fill-rule="nonzero"></path>
  </g>
</svg>
