<svg width="81px" height="83px" viewBox="0 0 81 83" version="1.1"
     xmlns="http://www.w3.org/2000/svg">
    <defs></defs>
    <g id="Group" stroke="none" stroke-width="1" fill="none" fill-rule="evenodd">
        <path d="M78.0545455,5.15789474 L2.94545455,5.15789474 C1.72456364,5.15789474 0.736363636,4.16757895 0.736363636,2.94736842 C0.736363636,1.72568421 1.72456364,0.736842105 2.94545455,0.736842105 L78.0545455,0.736842105 C79.2739636,0.736842105 80.2636364,1.72568421 80.2636364,2.94736842 C80.2636364,4.16757895 79.2739636,5.15789474 78.0545455,5.15789474 L78.0545455,5.15789474 Z M49.3363636,40.6397895 L49.3363636,72.7410526 L31.6636364,82.9507368 L31.6636364,40.6397895 L2.20909091,6.63157895 L78.7909091,6.63157895 L49.3363636,40.6397895 L49.3363636,40.6397895 Z M36.0818182,37.5789474 L36.0818182,74.4210526 C39.0272727,72.9473684 41.9727273,71.4736842 44.9181818,70 L44.9181818,37.5789474 L68.4818182,11.0526316 L12.5181818,11.0526316 L36.0818182,37.5789474 L36.0818182,37.5789474 Z" id="Shape" fill="#000000"></path>
    </g>
</svg>