<svg width="103px" height="49px" viewBox="0 0 103 49" version="1.1"
     xmlns="http://www.w3.org/2000/svg">
    <defs></defs>
    <g id="Group" stroke="none" stroke-width="1" fill="none" fill-rule="evenodd">
        <path d="M95.9003571,41.4272727 C91.3869691,45.9486364 85.3865304,48.4431818 79.0071049,48.4431818 C72.6276793,48.4431818 66.6261292,45.9486364 62.1138526,41.4272727 L54.6452568,33.9436364 L60.9246565,27.6515909 L68.3932523,35.1352273 C71.2273176,37.975 74.993846,39.5340909 79.0071049,39.5340909 C83.0081383,39.5340909 86.7757781,37.975 89.6098435,35.1352273 C95.4669119,29.2663636 95.4669119,19.7336364 89.6098435,13.8647727 C86.7757781,11.025 83.0081383,9.46590909 79.0071049,9.46590909 C74.9949574,9.46590909 71.2273176,11.025 68.3932523,13.8647727 L60.9246565,21.3484091 L57.7905137,24.5 L51.5,30.8031818 L48.3547432,33.9436364 L40.8861474,41.4272727 C36.3738708,45.9486364 30.3723207,48.4431818 23.9928951,48.4431818 C17.6134696,48.4431818 11.6119195,45.9486364 7.09964286,41.4272727 C2.58736626,36.9047955 0.0978343465,30.8922727 0.0978343465,24.5 C0.0978343465,18.1077273 2.58736626,12.0940909 7.09964286,7.57272727 C11.6119195,3.05136364 17.6134696,0.556818182 23.9928951,0.556818182 C30.3723207,0.556818182 36.3738708,3.05136364 40.8861474,7.57272727 L48.3547432,15.0563636 L42.0753435,21.3484091 L34.6067477,13.8647727 C31.7726824,11.025 28.0050426,9.46590909 23.9928951,9.46590909 C19.9918617,9.46590909 16.2242219,11.025 13.3901565,13.8647727 C10.5449772,16.7156818 8.98901976,20.4909091 8.98901976,24.5 C8.98901976,28.5090909 10.5449772,32.2954545 13.3901565,35.1240909 C16.2242219,37.975 19.9918617,39.5340909 23.9928951,39.5340909 C28.0050426,39.5340909 31.7726824,37.975 34.6067477,35.1352273 L42.0753435,27.6515909 L45.2094863,24.5 L51.5,18.1968182 L54.6452568,15.0563636 L62.1138526,7.57272727 C66.6272406,3.05136364 72.6276793,0.556818182 79.0071049,0.556818182 C85.3865304,0.556818182 91.3880805,3.05136364 95.9003571,7.57272727 C105.213874,16.905 105.213874,32.095 95.9003571,41.4272727 L95.9003571,41.4272727 Z" id="Shape" fill="#000000"></path>
    </g>
</svg>