<svg width="90px" height="90px" viewBox="0 0 90 90" version="1.1"
     xmlns="http://www.w3.org/2000/svg">
    <defs></defs>
    <g id="Group" stroke="none" stroke-width="1" fill="none" fill-rule="evenodd">
        <path d="M30.792,61.746 C32.519,61.746 34.257,61.6 35.987,61.303 L35.989,61.303 C39.324,60.731 43.596,58.835 43.776,58.754 C44.136,58.592 44.847,58.723 45.13,59.005 L46.567,60.44 C46.569,60.442 46.569,60.444 46.571,60.444 L48,61.876 C48.426,62.301 48.823,63.348 48.787,63.948 L48.629,66.638 L48.629,66.638 L48.629,66.638 L48.473,69.33 C48.362,71.231 49.751,72.934 51.637,73.203 L55.434,73.746 L59.229,74.289 C59.542,74.333 59.893,74.712 59.917,75.024 L60.157,78.37 L60.397,81.717 C60.53,83.574 62.096,85.011 63.936,85.011 C64.004,85.011 64.075,85.009 64.143,85.006 L66.836,84.847 L66.836,84.847 L66.837,84.847 L69.529,84.687 C70.222,84.644 70.927,84.849 71.052,84.926 L71.868,85.743 L74.839,88.713 C75.487,89.36 76.543,89.78 77.485,89.78 C77.576,89.78 77.666,89.776 77.753,89.768 L82.274,89.358 L86.317,88.993 C87.871,88.852 89.194,87.528 89.333,85.975 L89.694,81.936 C89.696,81.93 89.694,81.924 89.694,81.919 C89.694,81.913 89.698,81.907 89.698,81.898 L89.992,77.513 C90.055,76.521 89.612,75.336 88.91,74.636 L84.2,69.924 L61.986,47.71 L59.088,44.793 C58.791,44.493 58.65,43.769 58.813,43.38 C58.891,43.195 60.714,38.817 61.209,35.427 C62.621,25.702 59.452,16.149 52.517,9.215 C40.517,-2.782 20.998,-2.78 8.999,9.217 C-2.998,21.215 -2.998,40.737 8.999,52.735 C14.812,58.546 22.688,61.746 30.792,61.746 L30.792,61.746 Z M11.251,11.47 C22.007,0.714 39.506,0.712 50.262,11.468 C56.481,17.685 59.321,26.249 58.055,34.969 C57.619,37.955 55.893,42.108 55.874,42.148 C55.214,43.724 55.624,45.827 56.828,47.039 L59.055,49.279 C59.065,49.289 59.071,49.3 59.081,49.31 L60.042,50.271 L60.464,50.697 C60.469,50.701 60.475,50.705 60.479,50.709 L81.95,72.186 L86.65,76.883 C86.72,76.968 86.812,77.213 86.814,77.309 L86.521,81.675 L86.164,85.688 C86.15,85.735 86.072,85.815 86.034,85.825 L81.991,86.19 L77.486,86.598 C77.384,86.596 77.162,86.518 77.095,86.462 L74.122,83.492 L73.308,82.678 C72.402,81.77 70.615,81.438 69.342,81.509 L66.648,81.669 L66.648,81.669 L63.957,81.827 C63.732,81.839 63.587,81.681 63.572,81.491 L63.333,78.144 L63.094,74.798 C62.965,72.999 61.465,71.392 59.682,71.136 L55.884,70.593 L52.088,70.05 C51.856,70.017 51.641,69.754 51.654,69.519 L51.81,66.827 L51.81,66.827 L51.968,64.139 C52.058,62.632 51.32,60.692 50.252,59.624 L48.819,58.191 C48.819,58.191 48.817,58.191 48.817,58.189 L47.379,56.751 C46.157,55.531 44.049,55.141 42.475,55.845 C42.434,55.865 38.385,57.658 35.445,58.163 C35.445,58.163 35.445,58.163 35.444,58.163 C26.614,59.676 17.571,56.805 11.248,50.478 C0.496,39.726 0.496,22.226 11.251,11.47 L11.251,11.47 Z" id="Shape" fill="#000000"></path>
        <path d="M26.092,37.222 L26.092,37.222 C29.006,37.222 31.745,36.087 33.807,34.024 C38.059,29.77 38.058,22.848 33.806,18.594 C31.745,16.534 29.005,15.402 26.091,15.402 C23.177,15.402 20.439,16.535 18.378,18.594 C14.125,22.848 14.125,29.77 18.378,34.026 C20.439,36.087 23.179,37.222 26.092,37.222 L26.092,37.222 Z M20.629,20.847 C22.087,19.39 24.027,18.586 26.089,18.586 C28.153,18.586 30.093,19.39 31.552,20.847 C34.563,23.859 34.563,28.759 31.553,31.773 C30.094,33.232 28.154,34.036 26.092,34.036 C24.029,34.036 22.089,33.232 20.63,31.775 C17.619,28.759 17.618,23.858 20.629,20.847 L20.629,20.847 Z" id="Shape" fill="#000000"></path>
    </g>
</svg>