<?xml version="1.0" encoding="UTF-8"?>
<svg width="112px" height="81px" viewBox="0 0 112 81" version="1.1"
     xmlns="http://www.w3.org/2000/svg">
    <defs></defs>
    <g id="Premium" stroke="none" stroke-width="1" fill="none" fill-rule="evenodd">
        <g id="Desktop" transform="translate(-1016.000000, -519.000000)" fill="#004D86">
            <path d="M1066.23,588.825 C1067.40334,588.825 1068.32,589.164163 1068.98,589.8425 C1069.64,590.520837 1069.97,591.409995 1069.97,592.51 L1069.97,599 L1016.95,599 L1016.95,595.315 C1016.95,594.581663 1017.09667,593.802504 1017.39,592.9775 C1017.68333,592.152496 1018.17833,591.410003 1018.875,590.75 L1043.845,565.725 C1045.93501,563.63499 1047.82332,561.618343 1049.51,559.675 C1051.19668,557.731657 1052.62666,555.79751 1053.8,553.8725 C1054.97334,551.94749 1055.88083,549.976677 1056.5225,547.96 C1057.16417,545.943323 1057.485,543.816678 1057.485,541.58 C1057.485,539.379989 1057.13667,537.445842 1056.44,535.7775 C1055.74333,534.109158 1054.79001,532.725005 1053.58,531.625 C1052.36999,530.524995 1050.94001,529.700003 1049.29,529.15 C1047.63999,528.599997 1045.86168,528.325 1043.955,528.325 C1042.04832,528.325 1040.29751,528.599997 1038.7025,529.15 C1037.10749,529.700003 1035.68667,530.469995 1034.44,531.46 C1033.19333,532.450005 1032.14834,533.623327 1031.305,534.98 C1030.46166,536.336673 1029.85667,537.803325 1029.49,539.38 C1028.97666,540.77334 1028.32584,541.708331 1027.5375,542.185 C1026.74916,542.661669 1025.60334,542.771668 1024.1,542.515 L1018.49,541.525 C1019.00334,537.858315 1020.01166,534.631681 1021.515,531.845 C1023.01834,529.058319 1024.90666,526.720843 1027.18,524.8325 C1029.45334,522.944157 1032.06582,521.523338 1035.0175,520.57 C1037.96918,519.616662 1041.14998,519.14 1044.56,519.14 C1048.00668,519.14 1051.18749,519.644162 1054.1025,520.6525 C1057.01751,521.660838 1059.53832,523.118324 1061.665,525.025 C1063.79168,526.931676 1065.45999,529.25082 1066.67,531.9825 C1067.88001,534.71418 1068.485,537.803316 1068.485,541.25 C1068.485,544.183348 1068.05417,546.905821 1067.1925,549.4175 C1066.33083,551.929179 1065.15751,554.321655 1063.6725,556.595 C1062.18749,558.868345 1060.46418,561.077489 1058.5025,563.2225 C1056.54082,565.367511 1054.46001,567.539989 1052.26,569.74 L1032.24,590.2 C1033.78001,589.796665 1035.32916,589.466668 1036.8875,589.21 C1038.44584,588.953332 1039.92166,588.825 1041.315,588.825 L1066.23,588.825 Z M1099.53,596.03 C1100.44,596.03 1101.2325,595.947501 1101.9075,595.7825 C1102.5825,595.617499 1103.225,595.390001 1103.835,595.1 L1103.835,591.155 L1101.12,591.155 C1100.86,591.155 1100.655,591.082501 1100.505,590.9375 C1100.355,590.792499 1100.28,590.615001 1100.28,590.405 L1100.28,588.125 L1107.495,588.125 L1107.495,596.9 C1106.945,597.300002 1106.3725,597.647499 1105.7775,597.9425 C1105.1825,598.237501 1104.5475,598.479999 1103.8725,598.67 C1103.1975,598.860001 1102.475,599.0025 1101.705,599.0975 C1100.935,599.1925 1100.105,599.24 1099.215,599.24 C1097.63499,599.24 1096.18001,598.965003 1094.85,598.415 C1093.51999,597.864997 1092.37,597.100005 1091.4,596.12 C1090.43,595.139995 1089.6725,593.970007 1089.1275,592.61 C1088.5825,591.249993 1088.31,589.765008 1088.31,588.155 C1088.31,586.524992 1088.575,585.030007 1089.105,583.67 C1089.635,582.309993 1090.3875,581.140005 1091.3625,580.16 C1092.3375,579.179995 1093.51999,578.420003 1094.91,577.88 C1096.30001,577.339997 1097.85999,577.07 1099.59,577.07 C1101.36001,577.07 1102.89249,577.332497 1104.1875,577.8575 C1105.48251,578.382503 1106.58,579.064996 1107.48,579.905 L1106.31,581.735 C1106.08,582.105002 1105.775,582.29 1105.395,582.29 C1105.155,582.29 1104.91,582.210001 1104.66,582.05 C1104.34,581.859999 1104.0125,581.670001 1103.6775,581.48 C1103.3425,581.289999 1102.9725,581.125001 1102.5675,580.985 C1102.1625,580.844999 1101.7075,580.73 1101.2025,580.64 C1100.6975,580.55 1100.115,580.505 1099.455,580.505 C1098.38499,580.505 1097.4175,580.684998 1096.5525,581.045 C1095.6875,581.405002 1094.95,581.919997 1094.34,582.59 C1093.73,583.260003 1093.26,584.064995 1092.93,585.005 C1092.6,585.945005 1092.435,586.994994 1092.435,588.155 C1092.435,589.405006 1092.61,590.517495 1092.96,591.4925 C1093.31,592.467505 1093.8,593.289997 1094.43,593.96 C1095.06,594.630003 1095.81,595.142498 1096.68,595.4975 C1097.55,595.852502 1098.49999,596.03 1099.53,596.03 Z M1111.26,599 L1111.26,577.31 L1118.745,577.31 C1120.16501,577.31 1121.37749,577.444999 1122.3825,577.715 C1123.38751,577.985001 1124.2125,578.369997 1124.8575,578.87 C1125.5025,579.370003 1125.975,579.974996 1126.275,580.685 C1126.575,581.395004 1126.725,582.194996 1126.725,583.085 C1126.725,583.595003 1126.65,584.082498 1126.5,584.5475 C1126.35,585.012502 1126.1175,585.447498 1125.8025,585.8525 C1125.4875,586.257502 1125.0875,586.624998 1124.6025,586.955 C1124.1175,587.285002 1123.54,587.564999 1122.87,587.795 C1125.85001,588.465003 1127.34,590.074987 1127.34,592.625 C1127.34,593.545005 1127.165,594.394996 1126.815,595.175 C1126.465,595.955004 1125.955,596.627497 1125.285,597.1925 C1124.615,597.757503 1123.79,598.199998 1122.81,598.52 C1121.83,598.840002 1120.71001,599 1119.45,599 L1111.26,599 Z M1115.295,589.49 L1115.295,595.85 L1119.39,595.85 C1120.14,595.85 1120.7675,595.760001 1121.2725,595.58 C1121.7775,595.399999 1122.1825,595.160002 1122.4875,594.86 C1122.7925,594.559999 1123.0125,594.210002 1123.1475,593.81 C1123.2825,593.409998 1123.35,592.985002 1123.35,592.535 C1123.35,592.064998 1123.275,591.642502 1123.125,591.2675 C1122.975,590.892498 1122.74,590.572501 1122.42,590.3075 C1122.1,590.042499 1121.69,589.840001 1121.19,589.7 C1120.69,589.559999 1120.085,589.49 1119.375,589.49 L1115.295,589.49 Z M1115.295,586.7 L1118.52,586.7 C1119.89001,586.7 1120.93,586.450002 1121.64,585.95 C1122.35,585.449997 1122.705,584.655005 1122.705,583.565 C1122.705,582.434994 1122.385,581.630002 1121.745,581.15 C1121.105,580.669998 1120.10501,580.43 1118.745,580.43 L1115.295,580.43 L1115.295,586.7 Z" id="2-GB"></path>
        </g>
    </g>
</svg>