<?xml version="1.0" encoding="UTF-8"?>
<svg width="177px" height="87px" viewBox="0 0 177 87" version="1.1" xmlns="http://www.w3.org/2000/svg" xmlns:xlink="http://www.w3.org/1999/xlink">
    <!-- Generator: Sketch 43.2 (39069) - http://www.bohemiancoding.com/sketch -->
    <title>Subcollections</title>
    <desc>Created with Sketch.</desc>
    <defs>
        <path d="M0.714203895,0.0794248952 C0.365037546,0.0794248952 0.0793559883,0.365354518 0.0793559883,0.714824057 L0.0793559883,19.3107336 C0.0793559883,19.6602032 0.365037546,19.9461328 0.714203895,19.9461328 L22.1069912,19.9461328 C22.4561576,19.9461328 22.7418391,19.6602032 22.7418391,19.3107336 L22.7418391,2.74841907 C22.7418391,2.39894953 22.4561576,2.11301991 22.1069912,2.11301991 L8.13811531,2.11301991 C7.78894896,2.11301991 7.30138577,1.91096298 7.05442994,1.6637927 L5.91995673,0.528652102 C5.67300089,0.281481828 5.1854377,0.0794248952 4.83627135,0.0794248952 L0.714203895,0.0794248952 L0.714203895,0.0794248952 Z" id="path-1"></path>
        <path d="M0.714203895,0.0794248952 C0.365037546,0.0794248952 0.0793559883,0.365354518 0.0793559883,0.714824057 L0.0793559883,19.3107336 C0.0793559883,19.6602032 0.365037546,19.9461328 0.714203895,19.9461328 L22.1069912,19.9461328 C22.4561576,19.9461328 22.7418391,19.6602032 22.7418391,19.3107336 L22.7418391,2.74841907 C22.7418391,2.39894953 22.4561576,2.11301991 22.1069912,2.11301991 L8.13811531,2.11301991 C7.78894896,2.11301991 7.30138577,1.91096298 7.05442994,1.6637927 L5.91995673,0.528652102 C5.67300089,0.281481828 5.1854377,0.0794248952 4.83627135,0.0794248952 L0.714203895,0.0794248952 L0.714203895,0.0794248952 Z" id="path-3"></path>
        <path d="M0.714203895,0.0794248952 C0.365037546,0.0794248952 0.0793559883,0.365354518 0.0793559883,0.714824057 L0.0793559883,19.3107336 C0.0793559883,19.6602032 0.365037546,19.9461328 0.714203895,19.9461328 L22.1069912,19.9461328 C22.4561576,19.9461328 22.7418391,19.6602032 22.7418391,19.3107336 L22.7418391,2.74841907 C22.7418391,2.39894953 22.4561576,2.11301991 22.1069912,2.11301991 L8.13811531,2.11301991 C7.78894896,2.11301991 7.30138577,1.91096298 7.05442994,1.6637927 L5.91995673,0.528652102 C5.67300089,0.281481828 5.1854377,0.0794248952 4.83627135,0.0794248952 L0.714203895,0.0794248952 L0.714203895,0.0794248952 Z" id="path-5"></path>
    </defs>
    <g id="Referral" stroke="none" stroke-width="1" fill="none" fill-rule="evenodd">
        <g id="Subcollections" transform="translate(3.000000, 3.000000)">
            <g id="noun_700511_cc">
                <g id="Group">
                    <mask id="mask-2" fill="white">
                        <use xlink:href="#path-1"></use>
                    </mask>
                    <path stroke="#00CADC" stroke-width="2.5" d="M0.714203895,-1.1705751 C-0.325561379,-1.1705751 -1.17064401,-0.324758665 -1.17064401,0.714824057 L-1.17064401,19.3107336 C-1.17064401,20.3503163 -0.325561379,21.1961328 0.714203895,21.1961328 L22.1069912,21.1961328 C23.1467565,21.1961328 23.9918391,20.3503163 23.9918391,19.3107336 L23.9918391,2.74841907 C23.9918391,1.70883635 23.1467565,0.863019911 22.1069912,0.863019911 L8.13811531,0.863019911 C8.12062385,0.863019911 7.95117734,0.792784156 7.93869691,0.780292894 L6.80410008,-0.354971425 C6.32285813,-0.836631262 5.51720549,-1.1705751 4.83627135,-1.1705751 L0.714203895,-1.1705751 Z"></path>
                    <rect id="Rectangle-18" fill="#94F6FF" mask="url(#mask-2)" x="0" y="5.07048531" width="23.1202749" height="15.4783236"></rect>
                    <rect id="Rectangle-18" fill="#2EEEFF" mask="url(#mask-2)" x="-0.265750286" y="-0.533735296" width="23.1202749" height="5.87108825"></rect>
                    <path d="M-0.186394298,5.16357128 L23.3866604,5.16357128" id="Shape" stroke="#00CADC" stroke-width="2.5" mask="url(#mask-2)"></path>
                </g>
            </g>
            <g id="noun_700511_cc" transform="translate(29.743590, 30.827427)">
                <g id="Group">
                    <mask id="mask-4" fill="white">
                        <use xlink:href="#path-3"></use>
                    </mask>
                    <path stroke="#00CADC" stroke-width="2.5" d="M0.714203895,-1.1705751 C-0.325561379,-1.1705751 -1.17064401,-0.324758665 -1.17064401,0.714824057 L-1.17064401,19.3107336 C-1.17064401,20.3503163 -0.325561379,21.1961328 0.714203895,21.1961328 L22.1069912,21.1961328 C23.1467565,21.1961328 23.9918391,20.3503163 23.9918391,19.3107336 L23.9918391,2.74841907 C23.9918391,1.70883635 23.1467565,0.863019911 22.1069912,0.863019911 L8.13811531,0.863019911 C8.12062385,0.863019911 7.95117734,0.792784156 7.93869691,0.780292894 L6.80410008,-0.354971425 C6.32285813,-0.836631262 5.51720549,-1.1705751 4.83627135,-1.1705751 L0.714203895,-1.1705751 Z"></path>
                    <rect id="Rectangle-18" fill="#94F6FF" mask="url(#mask-4)" x="0" y="5.07048531" width="23.1202749" height="15.4783236"></rect>
                    <rect id="Rectangle-18" fill="#2EEEFF" mask="url(#mask-4)" x="-0.265750286" y="-0.533735296" width="23.1202749" height="5.87108825"></rect>
                    <path d="M-0.186394298,5.16357128 L23.3866604,5.16357128" id="Shape" stroke="#00CADC" stroke-width="2.5" mask="url(#mask-4)"></path>
                </g>
            </g>
            <g id="noun_700511_cc" transform="translate(29.743590, 60.660421)">
                <g id="Group">
                    <mask id="mask-6" fill="white">
                        <use xlink:href="#path-5"></use>
                    </mask>
                    <path stroke="#00CADC" stroke-width="2.5" d="M0.714203895,-1.1705751 C-0.325561379,-1.1705751 -1.17064401,-0.324758665 -1.17064401,0.714824057 L-1.17064401,19.3107336 C-1.17064401,20.3503163 -0.325561379,21.1961328 0.714203895,21.1961328 L22.1069912,21.1961328 C23.1467565,21.1961328 23.9918391,20.3503163 23.9918391,19.3107336 L23.9918391,2.74841907 C23.9918391,1.70883635 23.1467565,0.863019911 22.1069912,0.863019911 L8.13811531,0.863019911 C8.12062385,0.863019911 7.95117734,0.792784156 7.93869691,0.780292894 L6.80410008,-0.354971425 C6.32285813,-0.836631262 5.51720549,-1.1705751 4.83627135,-1.1705751 L0.714203895,-1.1705751 L0.714203895,-1.1705751 Z"></path>
                    <rect id="Rectangle-18" fill="#94F6FF" mask="url(#mask-6)" x="0" y="5.07048531" width="23.1202749" height="15.4783236"></rect>
                    <rect id="Rectangle-18" fill="#2EEEFF" mask="url(#mask-6)" x="-0.265750286" y="-0.533735296" width="23.1202749" height="5.87108825"></rect>
                    <path d="M-0.186394298,5.16357128 L23.3866604,5.16357128" id="Shape" stroke="#00CADC" stroke-width="2.5" mask="url(#mask-6)"></path>
                </g>
            </g>
            <polyline id="Path-2" stroke="#B6E1EB" stroke-width="7" points="10.8955308 27.4243994 11.4470768 42.7606246 23.0295419 42.7606246"></polyline>
            <polyline id="Path-2" stroke="#B6E1EB" stroke-width="7" points="10.8955308 57.2573932 11.4470768 72.5936185 23.0295419 72.5936185"></polyline>
            <path d="M46.4594872,13.3353483 C46.5520233,13.3353483 46.6358828,13.3730535 46.7110684,13.448465 L47.3703846,14.1706721 C46.8614362,14.7623628 46.2440563,15.2235265 45.5182265,15.5541772 C44.7923967,15.8848279 43.9176547,16.0501507 42.8939744,16.0501507 C41.9975311,16.0501507 41.1849609,15.8949793 40.4562393,15.5846317 C39.7275177,15.2742841 39.1058003,14.839224 38.5910684,14.2794382 C38.0763365,13.7196524 37.6772806,13.0482096 37.3938889,12.2650896 C37.1104972,11.4819696 36.9688034,10.6205505 36.9688034,9.68080652 C36.9688034,8.74106251 37.1206181,7.87964343 37.4242521,7.09652342 C37.7278861,6.31340342 38.1544132,5.64051039 38.7038462,5.07782417 C39.2532791,4.51513794 39.9111429,4.0786276 40.6774573,3.76828004 C41.4437716,3.45793248 42.2895965,3.30276103 43.2149573,3.30276103 C44.128751,3.30276103 44.9167417,3.44488068 45.578953,3.72912424 C46.2411643,4.01336779 46.8296271,4.39912112 47.344359,4.88639579 L46.7978205,5.66081059 C46.757336,5.71881948 46.7110686,5.7666761 46.6590171,5.80438187 C46.6069656,5.84208765 46.5317811,5.86094026 46.4334615,5.86094026 C46.358276,5.86094026 46.278754,5.83338645 46.1948932,5.778278 C46.1110323,5.72316956 46.0112684,5.65501014 45.8955983,5.57379769 C45.7799282,5.49258525 45.6440179,5.40557322 45.4878632,5.31275899 C45.3317086,5.21994477 45.1466392,5.13293274 44.9326496,5.0517203 C44.7186599,4.97050785 44.4699729,4.90234843 44.1865812,4.84723999 C43.9031895,4.79213154 43.5764264,4.76457773 43.2062821,4.76457773 C42.541179,4.76457773 41.9324743,4.87914357 41.3801496,5.10827868 C40.8278249,5.3374138 40.3521387,5.6637089 39.9530769,6.08717379 C39.5540151,6.51063869 39.2431564,7.02691006 39.0204915,7.63600339 C38.7978265,8.24509673 38.6864957,8.92669096 38.6864957,9.68080652 C38.6864957,10.4581256 38.7978265,11.1513215 39.0204915,11.7604148 C39.2431564,12.3695081 39.5467858,12.8843293 39.9313889,13.3048938 C40.315992,13.7254582 40.7714361,14.0459525 41.297735,14.2663863 C41.824034,14.4868201 42.3908089,14.5970353 42.9980769,14.5970353 C43.3682212,14.5970353 43.7007678,14.5752823 43.9957265,14.5317756 C44.2906852,14.488269 44.5639517,14.4201095 44.8155342,14.3272953 C45.0671166,14.2344811 45.3013451,14.1170149 45.5182265,13.9748931 C45.7351079,13.8327713 45.9534319,13.6630978 46.1732051,13.4658676 C46.2715247,13.3788543 46.3669511,13.3353483 46.4594872,13.3353483 Z M52.8964957,6.95730278 C53.5384647,6.95730278 54.1182524,7.06461762 54.6358761,7.27925051 C55.1534997,7.4938834 55.5930395,7.7984255 55.9545085,8.19288595 C56.3159776,8.58734639 56.5935817,9.06446235 56.7873291,9.62424813 C56.9810765,10.1840339 57.0779487,10.8090703 57.0779487,11.4993761 C57.0779487,12.1954828 56.9810765,12.8219694 56.7873291,13.3788547 C56.5935817,13.9357401 56.3159776,14.4114058 55.9545085,14.8058663 C55.5930395,15.2003267 55.1534997,15.5034186 54.6358761,15.7151511 C54.1182524,15.9268835 53.5384647,16.0327481 52.8964957,16.0327481 C52.2545267,16.0327481 51.6747391,15.9268835 51.1571154,15.7151511 C50.6394917,15.5034186 50.1985061,15.2003267 49.8341453,14.8058663 C49.4697845,14.4114058 49.1892887,13.9357401 48.9926496,13.3788547 C48.7960104,12.8219694 48.6976923,12.1954828 48.6976923,11.4993761 C48.6976923,10.8090703 48.7960104,10.1840339 48.9926496,9.62424813 C49.1892887,9.06446235 49.4697845,8.58734639 49.8341453,8.19288595 C50.1985061,7.7984255 50.6394917,7.4938834 51.1571154,7.27925051 C51.6747391,7.06461762 52.2545267,6.95730278 52.8964957,6.95730278 Z M52.8964957,14.8232688 C53.7640214,14.8232688 54.4117642,14.5317785 54.8397436,13.9487892 C55.2677229,13.3657999 55.4817094,12.5522374 55.4817094,11.5080774 C55.4817094,10.4581165 55.2677229,9.64020343 54.8397436,9.05431364 C54.4117642,8.46842386 53.7640214,8.17548337 52.8964957,8.17548337 C52.4569494,8.17548337 52.0752438,8.25089379 51.7513675,8.4017169 C51.4274913,8.55254002 51.1571165,8.77007009 50.940235,9.05431364 C50.7233536,9.3385572 50.5614179,9.68805552 50.4544231,10.1028191 C50.3474282,10.5175826 50.2939316,10.9859974 50.2939316,11.5080774 C50.2939316,12.0301574 50.3474282,12.4971219 50.4544231,12.9089851 C50.5614179,13.3208482 50.7233536,13.6674461 50.940235,13.9487892 C51.1571165,14.2301323 51.4274913,14.4462122 51.7513675,14.5970353 C52.0752438,14.7478584 52.4569494,14.8232688 52.8964957,14.8232688 Z M60.704188,3.09393007 L60.704188,15.9109301 L59.16,15.9109301 L59.16,3.09393007 L60.704188,3.09393007 Z M65.1458974,3.09393007 L65.1458974,15.9109301 L63.6017094,15.9109301 L63.6017094,3.09393007 L65.1458974,3.09393007 Z M71.3486752,6.95730278 C71.8749741,6.95730278 72.3607812,7.04576501 72.8061111,7.22269212 C73.251441,7.39961924 73.6360383,7.65485452 73.9599145,7.98840563 C74.2837908,8.32195675 74.5368153,8.73381368 74.7189957,9.2239888 C74.9011761,9.71416391 74.992265,10.2724911 74.992265,10.8989871 C74.992265,11.1426244 74.9662396,11.3050469 74.914188,11.3862593 C74.8621365,11.4674718 74.7638184,11.5080774 74.6192308,11.5080774 L68.7721368,11.5080774 C68.7837038,12.0649627 68.8588882,12.5493297 68.9976923,12.9611928 C69.1364964,13.3730559 69.3273492,13.7167534 69.5702564,13.9922957 C69.8131636,14.2678379 70.1023345,14.4737663 70.4377778,14.6100872 C70.7732211,14.7464081 71.1491432,14.8145675 71.5655556,14.8145675 C71.9530504,14.8145675 72.2870428,14.7696113 72.5675427,14.6796976 C72.8480427,14.5897838 73.0895004,14.4926203 73.2919231,14.3882043 C73.4943457,14.2837883 73.6635107,14.1866249 73.7994231,14.0967111 C73.9353354,14.0067974 74.0524497,13.9618411 74.1507692,13.9618411 C74.2780063,13.9618411 74.3763244,14.011148 74.4457265,14.1097631 L74.8794872,14.6753469 C74.6886315,14.9073825 74.4601865,15.1089603 74.1941453,15.2800866 C73.9281041,15.4512128 73.6432707,15.5918822 73.3396368,15.7020991 C73.0360028,15.812316 72.7222523,15.8949774 72.3983761,15.9500859 C72.0744998,16.0051943 71.7535201,16.0327481 71.4354274,16.0327481 C70.8281594,16.0327481 70.2686137,15.9297839 69.7567735,15.7238523 C69.2449333,15.5179208 68.8025019,15.2162791 68.4294658,14.8189182 C68.0564298,14.4215573 67.765813,13.9299393 67.5576068,13.3440496 C67.3494007,12.7581598 67.2452991,12.0852668 67.2452991,11.3253503 C67.2452991,10.7104561 67.3392797,10.1361767 67.5272436,9.60249491 C67.7152075,9.06881313 67.9855823,8.60619917 68.3383761,8.21463917 C68.6911699,7.82307917 69.1220345,7.51563667 69.6309829,7.29230244 C70.1399313,7.06896822 70.7124897,6.95730278 71.3486752,6.95730278 Z M71.3833761,8.09717176 C70.637304,8.09717176 70.050287,8.31325163 69.6223077,8.74541785 C69.1943283,9.17758408 68.9282911,9.77651688 68.824188,10.5422342 L73.6042308,10.5422342 C73.6042308,10.1825791 73.5550717,9.85338359 73.4567521,9.55463781 C73.3584326,9.25589203 73.2138471,8.99775635 73.0229915,8.78022301 C72.8321358,8.56268968 72.5993532,8.39446642 72.3246368,8.2755482 C72.0499203,8.15662998 71.7361699,8.09717176 71.3833761,8.09717176 Z M82.9561111,8.6627556 C82.9098431,8.72656538 82.8635757,8.77587219 82.8173077,8.81067753 C82.7710397,8.84548286 82.7045303,8.86288527 82.6177778,8.86288527 C82.5310252,8.86288527 82.4370447,8.82663026 82.3358333,8.75411914 C82.234622,8.68160803 82.105941,8.60184701 81.9497863,8.51483367 C81.7936317,8.42782034 81.6042248,8.34805931 81.3815598,8.2755482 C81.1588949,8.20303709 80.8856284,8.16678208 80.5617521,8.16678208 C80.1337728,8.16678208 79.7549589,8.2436427 79.4252991,8.39736626 C79.0956394,8.55108982 78.8194812,8.77297049 78.5968162,9.06301493 C78.3741513,9.35305938 78.2064322,9.7040079 78.0936538,10.115871 C77.9808755,10.5277341 77.9244872,10.9888979 77.9244872,11.4993761 C77.9244872,12.0330579 77.9852131,12.5072734 78.1066667,12.922037 C78.2281203,13.3368006 78.3987311,13.6848487 78.6185043,13.9661918 C78.8382775,14.2475349 79.1057605,14.4621646 79.4209615,14.6100872 C79.7361625,14.7580099 80.0903969,14.8319701 80.4836752,14.8319701 C80.859603,14.8319701 81.1690159,14.7870139 81.4119231,14.6971001 C81.6548303,14.6071864 81.8572499,14.5071225 82.019188,14.3969056 C82.1811262,14.2866887 82.3141448,14.1866249 82.4182479,14.0967111 C82.5223509,14.0067974 82.6264525,13.9618411 82.7305556,13.9618411 C82.8635762,13.9618411 82.9618943,14.011148 83.0255128,14.1097631 L83.4592735,14.6753469 C83.0775622,15.1452189 82.6004302,15.4889164 82.0278632,15.7064498 C81.4552963,15.9239831 80.8509291,16.0327481 80.2147436,16.0327481 C79.6653106,16.0327481 79.154924,15.9312341 78.6835684,15.728203 C78.2122127,15.5251719 77.8030359,15.2307812 77.4560256,14.8450221 C77.1090154,14.4592629 76.8357489,13.9850474 76.6362179,13.4223612 C76.436687,12.8596749 76.3369231,12.2186863 76.3369231,11.4993761 C76.3369231,10.8438757 76.4280119,10.2376919 76.6101923,9.68080652 C76.7923727,9.12392118 77.0584099,8.64390482 77.408312,8.24074304 C77.758214,7.83758126 78.1905245,7.52288776 78.7052564,7.29665309 C79.2199883,7.07041842 79.809897,6.95730278 80.475,6.95730278 C81.0880515,6.95730278 81.6316928,7.05736662 82.1059402,7.25749728 C82.5801876,7.45762795 82.9994854,7.74041705 83.3638462,8.10587305 L82.9561111,8.6627556 Z M87.7274786,16.0501507 C87.0334581,16.0501507 86.4999378,15.8558238 86.1269017,15.4671643 C85.7538657,15.0785047 85.5673504,14.5187273 85.5673504,13.7878153 L85.5673504,8.39301561 L84.5089744,8.39301561 C84.4164383,8.39301561 84.3383621,8.3654618 84.2747436,8.31035336 C84.211125,8.25524492 84.1793162,8.16968309 84.1793162,8.05366531 L84.1793162,7.43587373 L85.6194017,7.25314664 L85.9750855,4.52964291 C85.9866525,4.44262957 86.0242447,4.37156975 86.0878632,4.3164613 C86.1514818,4.26135286 86.2324497,4.23379905 86.3307692,4.23379905 L87.1115385,4.23379905 L87.1115385,7.27054922 L89.6273504,7.27054922 L89.6273504,8.39301561 L87.1115385,8.39301561 L87.1115385,13.6833999 C87.1115385,14.0546568 87.2011814,14.3301948 87.3804701,14.5100224 C87.5597587,14.68985 87.7910954,14.7797624 88.0744872,14.7797624 C88.2364253,14.7797624 88.3766732,14.7580094 88.495235,14.7145027 C88.6137969,14.670996 88.7164526,14.6231394 88.8032051,14.5709314 C88.8899577,14.5187234 88.9636963,14.4708668 89.0244231,14.4273601 C89.0851499,14.3838535 89.1386465,14.3621005 89.1849145,14.3621005 C89.2658836,14.3621005 89.3381763,14.4114073 89.4017949,14.5100224 L89.852906,15.249632 C89.5868648,15.4990703 89.2658851,15.6948473 88.8899573,15.8369691 C88.5140295,15.9790909 88.1265405,16.0501507 87.7274786,16.0501507 Z M93.2535897,7.09652342 L93.2535897,15.9109301 L91.7094017,15.9109301 L91.7094017,7.09652342 L93.2535897,7.09652342 Z M93.6005983,4.32951324 C93.6005983,4.48033635 93.5702353,4.6210058 93.5095085,4.7515258 C93.4487817,4.8820458 93.3678139,4.99806184 93.2666026,5.09957739 C93.1653912,5.20109295 93.048277,5.28085398 92.9152564,5.33886286 C92.7822358,5.39687175 92.6405421,5.42587576 92.4901709,5.42587576 C92.3397998,5.42587576 92.1995519,5.39687175 92.0694231,5.33886286 C91.9392942,5.28085398 91.8236259,5.20109295 91.7224145,5.09957739 C91.6212032,4.99806184 91.5416812,4.8820458 91.4838462,4.7515258 C91.4260111,4.6210058 91.397094,4.48033635 91.397094,4.32951324 C91.397094,4.17869013 91.4260111,4.03512028 91.4838462,3.89879939 C91.5416812,3.7624785 91.6212032,3.64356206 91.7224145,3.5420465 C91.8236259,3.44053095 91.9392942,3.36076992 92.0694231,3.30276103 C92.1995519,3.24475214 92.3397998,3.21574813 92.4901709,3.21574813 C92.6405421,3.21574813 92.7822358,3.24475214 92.9152564,3.30276103 C93.048277,3.36076992 93.1653912,3.44053095 93.2666026,3.5420465 C93.3678139,3.64356206 93.4487817,3.7624785 93.5095085,3.89879939 C93.5702353,4.03512028 93.6005983,4.17869013 93.6005983,4.32951324 Z M99.5344444,6.95730278 C100.176413,6.95730278 100.756201,7.06461762 101.273825,7.27925051 C101.791448,7.4938834 102.230988,7.7984255 102.592457,8.19288595 C102.953926,8.58734639 103.23153,9.06446235 103.425278,9.62424813 C103.619025,10.1840339 103.715897,10.8090703 103.715897,11.4993761 C103.715897,12.1954828 103.619025,12.8219694 103.425278,13.3788547 C103.23153,13.9357401 102.953926,14.4114058 102.592457,14.8058663 C102.230988,15.2003267 101.791448,15.5034186 101.273825,15.7151511 C100.756201,15.9268835 100.176413,16.0327481 99.5344444,16.0327481 C98.8924754,16.0327481 98.3126878,15.9268835 97.7950641,15.7151511 C97.2774404,15.5034186 96.8364548,15.2003267 96.472094,14.8058663 C96.1077332,14.4114058 95.8272375,13.9357401 95.6305983,13.3788547 C95.4339591,12.8219694 95.335641,12.1954828 95.335641,11.4993761 C95.335641,10.8090703 95.4339591,10.1840339 95.6305983,9.62424813 C95.8272375,9.06446235 96.1077332,8.58734639 96.472094,8.19288595 C96.8364548,7.7984255 97.2774404,7.4938834 97.7950641,7.27925051 C98.3126878,7.06461762 98.8924754,6.95730278 99.5344444,6.95730278 Z M99.5344444,14.8232688 C100.40197,14.8232688 101.049713,14.5317785 101.477692,13.9487892 C101.905672,13.3657999 102.119658,12.5522374 102.119658,11.5080774 C102.119658,10.4581165 101.905672,9.64020343 101.477692,9.05431364 C101.049713,8.46842386 100.40197,8.17548337 99.5344444,8.17548337 C99.0948981,8.17548337 98.7131925,8.25089379 98.3893162,8.4017169 C98.06544,8.55254002 97.7950652,8.77007009 97.5781838,9.05431364 C97.3613023,9.3385572 97.1993666,9.68805552 97.0923718,10.1028191 C96.985377,10.5175826 96.9318803,10.9859974 96.9318803,11.5080774 C96.9318803,12.0301574 96.985377,12.4971219 97.0923718,12.9089851 C97.1993666,13.3208482 97.3613023,13.6674461 97.5781838,13.9487892 C97.7950652,14.2301323 98.06544,14.4462122 98.3893162,14.5970353 C98.7131925,14.7478584 99.0948981,14.8232688 99.5344444,14.8232688 Z M105.624444,15.9109301 L105.624444,7.09652342 L106.544017,7.09652342 C106.76379,7.09652342 106.902592,7.20383826 106.960427,7.41847115 L107.08188,8.37561303 C107.463592,7.95214814 107.890119,7.60990083 108.361474,7.34886083 C108.83283,7.08782083 109.377917,6.95730278 109.996752,6.95730278 C110.476783,6.95730278 110.900418,7.03706381 111.267671,7.19658825 C111.634923,7.3561127 111.941445,7.58234397 112.187244,7.87528887 C112.433043,8.16823376 112.619558,8.52063247 112.746795,8.93249559 C112.874032,9.3443587 112.93765,9.79972165 112.93765,10.2985981 L112.93765,15.9109301 L111.393462,15.9109301 L111.393462,10.2985981 C111.393462,9.63149587 111.241647,9.1137743 110.938013,8.74541785 C110.634379,8.37706141 110.17026,8.19288595 109.545641,8.19288595 C109.088744,8.19288595 108.662217,8.30310118 108.266047,8.52353496 C107.869877,8.74396874 107.504076,9.04271004 107.168632,9.41976782 L107.168632,15.9109301 L105.624444,15.9109301 Z" id="Collection" fill="#3F3F3F"></path>
            <path d="M74.3044444,37.7101473 C74.2523929,37.7971606 74.1974504,37.8624197 74.1396154,37.9059263 C74.0817803,37.949433 74.0065959,37.971186 73.9140598,37.971186 C73.8157402,37.971186 73.7015177,37.9218792 73.5713889,37.8232641 C73.44126,37.724649 73.2764326,37.6158839 73.0769017,37.4969657 C72.8773708,37.3780475 72.637359,37.2692825 72.356859,37.1706673 C72.076359,37.0720522 71.7365832,37.0227454 71.3375214,37.0227454 C70.9615936,37.0227454 70.629047,37.0735024 70.3398718,37.175018 C70.0506966,37.2765335 69.8092389,37.4143026 69.6154915,37.5883293 C69.421744,37.7623559 69.2757127,37.9668342 69.1773932,38.2017702 C69.0790736,38.4367062 69.0299145,38.6904913 69.0299145,38.9631331 C69.0299145,39.3111864 69.1152199,39.5997763 69.2858333,39.8289114 C69.4564467,40.0580465 69.682,40.2538236 69.9625,40.4162485 C70.243,40.5786734 70.561088,40.7193428 70.9167735,40.838261 C71.272459,40.9571793 71.6368144,41.0804463 72.0098504,41.2080658 C72.3828865,41.3356854 72.7472418,41.4792553 73.1029274,41.6387797 C73.4586129,41.7983041 73.7767009,41.999882 74.0572009,42.2435193 C74.3377008,42.4871567 74.5632541,42.785898 74.7338675,43.1397522 C74.9044809,43.4936064 74.9897863,43.9286666 74.9897863,44.4449457 C74.9897863,44.9902292 74.8972516,45.50215 74.7121795,45.9807234 C74.5271073,46.4592967 74.2567325,46.8755042 73.901047,47.2293584 C73.5453615,47.5832127 73.1087134,47.8616512 72.5910897,48.0646823 C72.0734661,48.2677134 71.4850033,48.3692274 70.8256838,48.3692274 C70.0217766,48.3692274 69.2887284,48.2227572 68.6265171,47.9298123 C67.9643058,47.6368674 67.3989767,47.2409627 66.9305128,46.7420862 L67.4163248,45.9415675 C67.4625928,45.8777578 67.5189811,45.8241004 67.5854915,45.7805937 C67.6520018,45.737087 67.7257403,45.715334 67.8067094,45.715334 C67.928163,45.715334 68.066965,45.780593 68.2231197,45.911113 C68.3792743,46.041633 68.5744646,46.1852029 68.8086966,46.3418269 C69.0429285,46.4984509 69.326316,46.6420207 69.6588675,46.7725407 C69.991419,46.9030607 70.3977042,46.9683198 70.877735,46.9683198 C71.2767969,46.9683198 71.6324771,46.9132121 71.9447863,46.8029952 C72.2570956,46.6927784 72.5216869,46.5376069 72.7385684,46.3374762 C72.9554498,46.1373456 73.1217231,45.8980625 73.2373932,45.6196198 C73.3530633,45.3411772 73.4108974,45.0308342 73.4108974,44.6885818 C73.4108974,44.311524 73.325592,44.0026313 73.1549786,43.7618944 C72.9843652,43.5211575 72.7602578,43.3195797 72.4826496,43.1571548 C72.2050413,42.9947299 71.8883992,42.8569608 71.5327137,42.7438435 C71.1770281,42.6307262 70.8126728,42.5147101 70.4396368,42.3957919 C70.0666007,42.2768737 69.7022454,42.1391046 69.3465598,41.9824806 C68.9908743,41.8258566 68.6742322,41.6228286 68.3966239,41.3733904 C68.1190157,41.1239521 67.8949083,40.812159 67.7242949,40.4380017 C67.5536815,40.0638444 67.4683761,39.6012304 67.4683761,39.050146 C67.4683761,38.6092784 67.5536815,38.1829195 67.7242949,37.7710563 C67.8949083,37.3591932 68.1421494,36.9937427 68.4660256,36.6746938 C68.7899019,36.3556449 69.1904036,36.1004096 69.6675427,35.9089803 C70.1446819,35.717551 70.6926607,35.6218377 71.3114957,35.6218377 C72.0055163,35.6218377 72.6388006,35.732053 73.2113675,35.9524868 C73.7839345,36.1729205 74.2842001,36.4919646 74.7121795,36.9096286 L74.3044444,37.7101473 Z M78.225641,39.4156001 L78.225641,45.0366334 C78.225641,45.7037356 78.3789016,46.220007 78.6854274,46.585463 C78.9919531,46.950919 79.4546265,47.1336443 80.0734615,47.1336443 C80.5245749,47.1336443 80.9496561,47.0263294 81.3487179,46.8116965 C81.7477798,46.5970636 82.1150268,46.2983223 82.4504701,45.9154637 L82.4504701,39.4156001 L83.9946581,39.4156001 L83.9946581,48.2300068 L83.0750855,48.2300068 C82.8553123,48.2300068 82.7165103,48.1226919 82.6586752,47.9080591 L82.5372222,46.9596185 C82.1555109,47.3830834 81.727538,47.7238805 81.2532906,47.98202 C80.7790432,48.2401596 80.2354019,48.3692274 79.6223504,48.3692274 C79.1423195,48.3692274 78.7186842,48.2894664 78.3514316,48.129942 C77.9841791,47.9704175 77.6762121,47.7456364 77.4275214,47.455592 C77.1788307,47.1655475 76.9923154,46.814599 76.8679701,46.4027359 C76.7436247,45.9908728 76.681453,45.5355098 76.681453,45.0366334 L76.681453,39.4156001 L78.225641,39.4156001 Z M86.588547,48.2300068 L86.588547,35.4130068 L88.1414103,35.4130068 L88.1414103,40.6859885 C88.5057711,40.2625236 88.923623,39.9217265 89.3949786,39.6635869 C89.8663343,39.4054473 90.405638,39.2763795 91.012906,39.2763795 C91.5218544,39.2763795 91.9816361,39.3720927 92.392265,39.5635221 C92.8028938,39.7549514 93.1527906,40.0406409 93.4419658,40.4205991 C93.731141,40.8005573 93.9538026,41.2704223 94.1099573,41.8302081 C94.2661119,42.3899939 94.344188,43.0353331 94.344188,43.7662451 C94.344188,44.4159446 94.2574368,45.0206782 94.0839316,45.580464 C93.9104265,46.1402498 93.6602937,46.6246168 93.3335256,47.0335794 C93.0067576,47.4425421 92.6077018,47.7644866 92.1363462,47.9994226 C91.6649905,48.2343586 91.1343619,48.3518248 90.5444444,48.3518248 C89.977661,48.3518248 89.4961914,48.2416096 89.1000214,48.0211758 C88.7038513,47.800742 88.3582921,47.4932995 88.0633333,47.0988391 L87.9852564,47.8993578 C87.9389884,48.1197915 87.8059698,48.2300068 87.5861966,48.2300068 L86.588547,48.2300068 Z M90.5097436,40.5119627 C90.0065787,40.5119627 89.5655931,40.6279787 89.1867735,40.8600143 C88.8079539,41.0920498 88.459503,41.4197951 88.1414103,41.84326 L88.1414103,46.1068921 C88.4190185,46.4897507 88.7269855,46.759488 89.0653205,46.916112 C89.4036555,47.072736 89.7810236,47.1510468 90.1974359,47.1510468 C91.0186936,47.1510468 91.6490861,46.8581063 92.0886325,46.2722166 C92.5281788,45.6863268 92.7479487,44.8510113 92.7479487,43.7662451 C92.7479487,43.1919571 92.6973438,42.6988889 92.5961325,42.2870258 C92.4949211,41.8751627 92.3488898,41.537266 92.1580342,41.2733255 C91.9671785,41.0093851 91.7329501,40.8165084 91.4553419,40.6946897 C91.1777337,40.5728711 90.8625374,40.5119627 90.5097436,40.5119627 Z M95.8363248,42.3566361 L100.12188,42.3566361 L100.12188,43.6705309 L95.8363248,43.6705309 L95.8363248,42.3566361 Z M108.250556,40.9818323 C108.204288,41.0456421 108.15802,41.0949489 108.111752,41.1297542 C108.065484,41.1645596 107.998975,41.181962 107.912222,41.181962 C107.82547,41.181962 107.731489,41.145707 107.630278,41.0731959 C107.529066,41.0006847 107.400385,40.9209237 107.244231,40.8339104 C107.088076,40.7468971 106.898669,40.667136 106.676004,40.5946249 C106.453339,40.5221138 106.180073,40.4858588 105.856197,40.4858588 C105.428217,40.4858588 105.049403,40.5627194 104.719744,40.716443 C104.390084,40.8701665 104.113926,41.0920472 103.891261,41.3820916 C103.668596,41.6721361 103.500877,42.0230846 103.388098,42.4349477 C103.27532,42.8468108 103.218932,43.3079746 103.218932,43.8184528 C103.218932,44.3521346 103.279658,44.8263502 103.401111,45.2411137 C103.522565,45.6558773 103.693176,46.0039254 103.912949,46.2852685 C104.132722,46.5666116 104.400205,46.7812413 104.715406,46.9291639 C105.030607,47.0770866 105.384841,47.1510468 105.77812,47.1510468 C106.154047,47.1510468 106.46346,47.1060906 106.706368,47.0161768 C106.949275,46.9262631 107.151694,46.8261992 107.313632,46.7159823 C107.475571,46.6057655 107.608589,46.5057016 107.712692,46.4157878 C107.816795,46.3258741 107.920897,46.2809179 108.025,46.2809179 C108.158021,46.2809179 108.256339,46.3302247 108.319957,46.4288398 L108.753718,46.9944236 C108.372007,47.4642956 107.894875,47.8079931 107.322308,48.0255265 C106.749741,48.2430598 106.145374,48.3518248 105.509188,48.3518248 C104.959755,48.3518248 104.449368,48.2503108 103.978013,48.0472797 C103.506657,47.8442486 103.09748,47.5498579 102.75047,47.1640988 C102.40346,46.7783397 102.130193,46.3041241 101.930662,45.7414379 C101.731131,45.1787517 101.631368,44.537763 101.631368,43.8184528 C101.631368,43.1629524 101.722456,42.5567686 101.904637,41.9998832 C102.086817,41.4429979 102.352854,40.9629815 102.702756,40.5598198 C103.052658,40.156658 103.484969,39.8419645 103.999701,39.6157298 C104.514433,39.3894951 105.104341,39.2763795 105.769444,39.2763795 C106.382496,39.2763795 106.926137,39.3764433 107.400385,39.576574 C107.874632,39.7767047 108.29393,40.0594938 108.658291,40.4249498 L108.250556,40.9818323 Z M113.91547,39.2763795 C114.557439,39.2763795 115.137227,39.3836943 115.65485,39.5983272 C116.172474,39.8129601 116.612014,40.1175022 116.973483,40.5119627 C117.334952,40.9064231 117.612556,41.3835391 117.806303,41.9433248 C118.000051,42.5031106 118.096923,43.128147 118.096923,43.8184528 C118.096923,44.5145595 118.000051,45.1410461 117.806303,45.6979314 C117.612556,46.2548168 117.334952,46.7304825 116.973483,47.124943 C116.612014,47.5194034 116.172474,47.8224953 115.65485,48.0342278 C115.137227,48.2459602 114.557439,48.3518248 113.91547,48.3518248 C113.273501,48.3518248 112.693713,48.2459602 112.17609,48.0342278 C111.658466,47.8224953 111.21748,47.5194034 110.85312,47.124943 C110.488759,46.7304825 110.208263,46.2548168 110.011624,45.6979314 C109.814985,45.1410461 109.716667,44.5145595 109.716667,43.8184528 C109.716667,43.128147 109.814985,42.5031106 110.011624,41.9433248 C110.208263,41.3835391 110.488759,40.9064231 110.85312,40.5119627 C111.21748,40.1175022 111.658466,39.8129601 112.17609,39.5983272 C112.693713,39.3836943 113.273501,39.2763795 113.91547,39.2763795 Z M113.91547,47.1423455 C114.782996,47.1423455 115.430739,46.8508553 115.858718,46.2678659 C116.286697,45.6848766 116.500684,44.8713141 116.500684,43.8271541 C116.500684,42.7771932 116.286697,41.9592801 115.858718,41.3733904 C115.430739,40.7875006 114.782996,40.4945601 113.91547,40.4945601 C113.475924,40.4945601 113.094218,40.5699705 112.770342,40.7207936 C112.446466,40.8716167 112.176091,41.0891468 111.959209,41.3733904 C111.742328,41.6576339 111.580392,42.0071322 111.473397,42.4218958 C111.366403,42.8366593 111.312906,43.3050741 111.312906,43.8271541 C111.312906,44.3492341 111.366403,44.8161987 111.473397,45.2280618 C111.580392,45.6399249 111.742328,45.9865228 111.959209,46.2678659 C112.176091,46.549209 112.446466,46.7652889 112.770342,46.916112 C113.094218,47.0669351 113.475924,47.1423455 113.91547,47.1423455 Z M121.723162,35.4130068 L121.723162,48.2300068 L120.178974,48.2300068 L120.178974,35.4130068 L121.723162,35.4130068 Z M126.164872,35.4130068 L126.164872,48.2300068 L124.620684,48.2300068 L124.620684,35.4130068 L126.164872,35.4130068 Z M132.36765,39.2763795 C132.893949,39.2763795 133.379756,39.3648417 133.825085,39.5417688 C134.270415,39.7186959 134.655013,39.9739312 134.978889,40.3074823 C135.302765,40.6410335 135.55579,41.0528904 135.73797,41.5430655 C135.92015,42.0332406 136.011239,42.5915678 136.011239,43.2180638 C136.011239,43.4617011 135.985214,43.6241236 135.933162,43.705336 C135.881111,43.7865485 135.782793,43.8271541 135.638205,43.8271541 L129.791111,43.8271541 C129.802678,44.3840394 129.877863,44.8684064 130.016667,45.2802695 C130.155471,45.6921326 130.346324,46.0358301 130.589231,46.3113724 C130.832138,46.5869146 131.121309,46.7928431 131.456752,46.9291639 C131.792195,47.0654848 132.168118,47.1336443 132.58453,47.1336443 C132.972025,47.1336443 133.306017,47.088688 133.586517,46.9987743 C133.867017,46.9088605 134.108475,46.8116971 134.310897,46.7072811 C134.51332,46.6028651 134.682485,46.5057016 134.818397,46.4157878 C134.95431,46.3258741 135.071424,46.2809179 135.169744,46.2809179 C135.296981,46.2809179 135.395299,46.3302247 135.464701,46.4288398 L135.898462,46.9944236 C135.707606,47.2264592 135.479161,47.428037 135.21312,47.5991633 C134.947078,47.7702895 134.662245,47.9109589 134.358611,48.0211758 C134.054977,48.1313927 133.741227,48.2140541 133.41735,48.2691626 C133.093474,48.324271 132.772494,48.3518248 132.454402,48.3518248 C131.847134,48.3518248 131.287588,48.2488606 130.775748,48.0429291 C130.263908,47.8369975 129.821476,47.5353558 129.44844,47.1379949 C129.075404,46.740634 128.784787,46.2490161 128.576581,45.6631263 C128.368375,45.0772365 128.264274,44.4043435 128.264274,43.644427 C128.264274,43.0295328 128.358254,42.4552534 128.546218,41.9215716 C128.734182,41.3878898 129.004557,40.9252759 129.35735,40.5337159 C129.710144,40.1421559 130.141009,39.8347134 130.649957,39.6113792 C131.158906,39.3880449 131.731464,39.2763795 132.36765,39.2763795 Z M132.40235,40.4162485 C131.656278,40.4162485 131.069261,40.6323283 130.641282,41.0644946 C130.213303,41.4966608 129.947265,42.0955936 129.843162,42.8613109 L134.623205,42.8613109 C134.623205,42.5016558 134.574046,42.1724603 134.475726,41.8737145 C134.377407,41.5749687 134.232821,41.3168331 134.041966,41.0992997 C133.85111,40.8817664 133.618328,40.7135431 133.343611,40.5946249 C133.068895,40.4757067 132.755144,40.4162485 132.40235,40.4162485 Z M143.975085,40.9818323 C143.928817,41.0456421 143.88255,41.0949489 143.836282,41.1297542 C143.790014,41.1645596 143.723505,41.181962 143.636752,41.181962 C143.55,41.181962 143.456019,41.145707 143.354808,41.0731959 C143.253596,41.0006847 143.124915,40.9209237 142.968761,40.8339104 C142.812606,40.7468971 142.623199,40.667136 142.400534,40.5946249 C142.177869,40.5221138 141.904603,40.4858588 141.580726,40.4858588 C141.152747,40.4858588 140.773933,40.5627194 140.444274,40.716443 C140.114614,40.8701665 139.838456,41.0920472 139.615791,41.3820916 C139.393126,41.6721361 139.225407,42.0230846 139.112628,42.4349477 C138.99985,42.8468108 138.943462,43.3079746 138.943462,43.8184528 C138.943462,44.3521346 139.004187,44.8263502 139.125641,45.2411137 C139.247095,45.6558773 139.417705,46.0039254 139.637479,46.2852685 C139.857252,46.5666116 140.124735,46.7812413 140.439936,46.9291639 C140.755137,47.0770866 141.109371,47.1510468 141.50265,47.1510468 C141.878577,47.1510468 142.18799,47.1060906 142.430897,47.0161768 C142.673805,46.9262631 142.876224,46.8261992 143.038162,46.7159823 C143.200101,46.6057655 143.333119,46.5057016 143.437222,46.4157878 C143.541325,46.3258741 143.645427,46.2809179 143.74953,46.2809179 C143.882551,46.2809179 143.980869,46.3302247 144.044487,46.4288398 L144.478248,46.9944236 C144.096537,47.4642956 143.619405,47.8079931 143.046838,48.0255265 C142.474271,48.2430598 141.869903,48.3518248 141.233718,48.3518248 C140.684285,48.3518248 140.173898,48.2503108 139.702543,48.0472797 C139.231187,47.8442486 138.82201,47.5498579 138.475,47.1640988 C138.12799,46.7783397 137.854723,46.3041241 137.655192,45.7414379 C137.455661,45.1787517 137.355897,44.537763 137.355897,43.8184528 C137.355897,43.1629524 137.446986,42.5567686 137.629167,41.9998832 C137.811347,41.4429979 138.077384,40.9629815 138.427286,40.5598198 C138.777188,40.156658 139.209499,39.8419645 139.724231,39.6157298 C140.238963,39.3894951 140.828871,39.2763795 141.493974,39.2763795 C142.107026,39.2763795 142.650667,39.3764433 143.124915,39.576574 C143.599162,39.7767047 144.01846,40.0594938 144.382821,40.4249498 L143.975085,40.9818323 Z M148.746453,48.3692274 C148.052432,48.3692274 147.518912,48.1749006 147.145876,47.786241 C146.77284,47.3975814 146.586325,46.8378041 146.586325,46.1068921 L146.586325,40.7120923 L145.527949,40.7120923 C145.435413,40.7120923 145.357337,40.6845385 145.293718,40.6294301 C145.230099,40.5743216 145.198291,40.4887598 145.198291,40.372742 L145.198291,39.7549504 L146.638376,39.5722234 L146.99406,36.8487196 C147.005627,36.7617063 147.043219,36.6906465 147.106838,36.635538 C147.170456,36.5804296 147.251424,36.5528758 147.349744,36.5528758 L148.130513,36.5528758 L148.130513,39.5896259 L150.646325,39.5896259 L150.646325,40.7120923 L148.130513,40.7120923 L148.130513,46.0024766 C148.130513,46.3737335 148.220156,46.6492716 148.399444,46.8290991 C148.578733,47.0089267 148.81007,47.0988391 149.093462,47.0988391 C149.2554,47.0988391 149.395648,47.0770861 149.514209,47.0335794 C149.632771,46.9900728 149.735427,46.9422161 149.822179,46.8900081 C149.908932,46.8378001 149.982671,46.7899435 150.043397,46.7464369 C150.104124,46.7029302 150.157621,46.6811772 150.203889,46.6811772 C150.284858,46.6811772 150.357151,46.730484 150.420769,46.8290991 L150.87188,47.5687088 C150.605839,47.818147 150.284859,48.013924 149.908932,48.1560458 C149.533004,48.2981676 149.145515,48.3692274 148.746453,48.3692274 Z M154.272564,39.4156001 L154.272564,48.2300068 L152.728376,48.2300068 L152.728376,39.4156001 L154.272564,39.4156001 Z M154.619573,36.6485899 C154.619573,36.7994131 154.58921,36.9400825 154.528483,37.0706025 C154.467756,37.2011225 154.386788,37.3171385 154.285577,37.4186541 C154.184366,37.5201697 154.067251,37.5999307 153.934231,37.6579396 C153.80121,37.7159485 153.659516,37.7449525 153.509145,37.7449525 C153.358774,37.7449525 153.218526,37.7159485 153.088397,37.6579396 C152.958269,37.5999307 152.8426,37.5201697 152.741389,37.4186541 C152.640178,37.3171385 152.560656,37.2011225 152.502821,37.0706025 C152.444985,36.9400825 152.416068,36.7994131 152.416068,36.6485899 C152.416068,36.4977668 152.444985,36.354197 152.502821,36.2178761 C152.560656,36.0815552 152.640178,35.9626388 152.741389,35.8611232 C152.8426,35.7596077 152.958269,35.6798466 153.088397,35.6218377 C153.218526,35.5638289 153.358774,35.5348248 153.509145,35.5348248 C153.659516,35.5348248 153.80121,35.5638289 153.934231,35.6218377 C154.067251,35.6798466 154.184366,35.7596077 154.285577,35.8611232 C154.386788,35.9626388 154.467756,36.0815552 154.528483,36.2178761 C154.58921,36.354197 154.619573,36.4977668 154.619573,36.6485899 Z M160.553419,39.2763795 C161.195388,39.2763795 161.775175,39.3836943 162.292799,39.5983272 C162.810423,39.8129601 163.249963,40.1175022 163.611432,40.5119627 C163.972901,40.9064231 164.250505,41.3835391 164.444252,41.9433248 C164.638,42.5031106 164.734872,43.128147 164.734872,43.8184528 C164.734872,44.5145595 164.638,45.1410461 164.444252,45.6979314 C164.250505,46.2548168 163.972901,46.7304825 163.611432,47.124943 C163.249963,47.5194034 162.810423,47.8224953 162.292799,48.0342278 C161.775175,48.2459602 161.195388,48.3518248 160.553419,48.3518248 C159.91145,48.3518248 159.331662,48.2459602 158.814038,48.0342278 C158.296415,47.8224953 157.855429,47.5194034 157.491068,47.124943 C157.126708,46.7304825 156.846212,46.2548168 156.649573,45.6979314 C156.452933,45.1410461 156.354615,44.5145595 156.354615,43.8184528 C156.354615,43.128147 156.452933,42.5031106 156.649573,41.9433248 C156.846212,41.3835391 157.126708,40.9064231 157.491068,40.5119627 C157.855429,40.1175022 158.296415,39.8129601 158.814038,39.5983272 C159.331662,39.3836943 159.91145,39.2763795 160.553419,39.2763795 Z M160.553419,47.1423455 C161.420945,47.1423455 162.068687,46.8508553 162.496667,46.2678659 C162.924646,45.6848766 163.138632,44.8713141 163.138632,43.8271541 C163.138632,42.7771932 162.924646,41.9592801 162.496667,41.3733904 C162.068687,40.7875006 161.420945,40.4945601 160.553419,40.4945601 C160.113872,40.4945601 159.732167,40.5699705 159.408291,40.7207936 C159.084414,40.8716167 158.81404,41.0891468 158.597158,41.3733904 C158.380277,41.6576339 158.218341,42.0071322 158.111346,42.4218958 C158.004351,42.8366593 157.950855,43.3050741 157.950855,43.8271541 C157.950855,44.3492341 158.004351,44.8161987 158.111346,45.2280618 C158.218341,45.6399249 158.380277,45.9865228 158.597158,46.2678659 C158.81404,46.549209 159.084414,46.7652889 159.408291,46.916112 C159.732167,47.0669351 160.113872,47.1423455 160.553419,47.1423455 Z M166.643419,48.2300068 L166.643419,39.4156001 L167.562991,39.4156001 C167.782765,39.4156001 167.921567,39.522915 167.979402,39.7375479 L168.100855,40.6946897 C168.482566,40.2712249 168.909093,39.9289775 169.380449,39.6679375 C169.851804,39.4068975 170.396891,39.2763795 171.015726,39.2763795 C171.495757,39.2763795 171.919393,39.3561405 172.286645,39.515665 C172.653898,39.6751894 172.960419,39.9014207 173.206218,40.1943656 C173.452017,40.4873105 173.638532,40.8397092 173.765769,41.2515723 C173.893006,41.6634354 173.956624,42.1187984 173.956624,42.6176748 L173.956624,48.2300068 L172.412436,48.2300068 L172.412436,42.6176748 C172.412436,41.9505726 172.260621,41.432851 171.956987,41.0644946 C171.653353,40.6961381 171.189234,40.5119627 170.564615,40.5119627 C170.107719,40.5119627 169.681191,40.6221779 169.285021,40.8426117 C168.888851,41.0630455 168.52305,41.3617868 168.187607,41.7388445 L168.187607,48.2300068 L166.643419,48.2300068 Z" id="Sub-collection" fill="#3F3F3F"></path>
            <path d="M74.3044444,66.5487081 C74.2523929,66.6357214 74.1974504,66.7009804 74.1396154,66.7444871 C74.0817803,66.7879938 74.0065959,66.8097468 73.9140598,66.8097468 C73.8157402,66.8097468 73.7015177,66.76044 73.5713889,66.6618248 C73.44126,66.5632097 73.2764326,66.4544447 73.0769017,66.3355265 C72.8773708,66.2166082 72.637359,66.1078432 72.356859,66.0092281 C72.076359,65.910613 71.7365832,65.8613062 71.3375214,65.8613062 C70.9615936,65.8613062 70.629047,65.9120632 70.3398718,66.0135787 C70.0506966,66.1150943 69.8092389,66.2528633 69.6154915,66.42689 C69.421744,66.6009167 69.2757127,66.805395 69.1773932,67.040331 C69.0790736,67.275267 69.0299145,67.529052 69.0299145,67.8016938 C69.0299145,68.1497472 69.1152199,68.438337 69.2858333,68.6674722 C69.4564467,68.8966073 69.682,69.0923843 69.9625,69.2548092 C70.243,69.4172341 70.561088,69.5579036 70.9167735,69.6768218 C71.272459,69.79574 71.6368144,69.9190071 72.0098504,70.0466266 C72.3828865,70.1742462 72.7472418,70.317816 73.1029274,70.4773405 C73.4586129,70.6368649 73.7767009,70.8384428 74.0572009,71.0820801 C74.3377008,71.3257174 74.5632541,71.6244587 74.7338675,71.978313 C74.9044809,72.3321672 74.9897863,72.7672273 74.9897863,73.2835064 C74.9897863,73.82879 74.8972516,74.3407108 74.7121795,74.8192841 C74.5271073,75.2978574 74.2567325,75.714065 73.901047,76.0679192 C73.5453615,76.4217734 73.1087134,76.7002119 72.5910897,76.903243 C72.0734661,77.1062741 71.4850033,77.2077882 70.8256838,77.2077882 C70.0217766,77.2077882 69.2887284,77.0613179 68.6265171,76.768373 C67.9643058,76.4754282 67.3989767,76.0795234 66.9305128,75.580647 L67.4163248,74.7801283 C67.4625928,74.7163185 67.5189811,74.6626611 67.5854915,74.6191544 C67.6520018,74.5756478 67.7257403,74.5538948 67.8067094,74.5538948 C67.928163,74.5538948 68.066965,74.6191538 68.2231197,74.7496738 C68.3792743,74.8801938 68.5744646,75.0237636 68.8086966,75.1803876 C69.0429285,75.3370116 69.326316,75.4805815 69.6588675,75.6111015 C69.991419,75.7416215 70.3977042,75.8068805 70.877735,75.8068805 C71.2767969,75.8068805 71.6324771,75.7517729 71.9447863,75.641556 C72.2570956,75.5313391 72.5216869,75.3761677 72.7385684,75.176037 C72.9554498,74.9759063 73.1217231,74.7366232 73.2373932,74.4581806 C73.3530633,74.1797379 73.4108974,73.869395 73.4108974,73.5271426 C73.4108974,73.1500848 73.325592,72.8411921 73.1549786,72.6004552 C72.9843652,72.3597183 72.7602578,72.1581404 72.4826496,71.9957155 C72.2050413,71.8332907 71.8883992,71.6955216 71.5327137,71.5824043 C71.1770281,71.4692869 70.8126728,71.3532709 70.4396368,71.2343527 C70.0666007,71.1154345 69.7022454,70.9776654 69.3465598,70.8210414 C68.9908743,70.6644174 68.6742322,70.4613893 68.3966239,70.2119511 C68.1190157,69.9625129 67.8949083,69.6507198 67.7242949,69.2765625 C67.5536815,68.9024051 67.4683761,68.4397912 67.4683761,67.8887067 C67.4683761,67.4478392 67.5536815,67.0214802 67.7242949,66.6096171 C67.8949083,66.197754 68.1421494,65.8323035 68.4660256,65.5132546 C68.7899019,65.1942057 69.1904036,64.9389704 69.6675427,64.7475411 C70.1446819,64.5561117 70.6926607,64.4603985 71.3114957,64.4603985 C72.0055163,64.4603985 72.6388006,64.5706137 73.2113675,64.7910475 C73.7839345,65.0114813 74.2842001,65.3305254 74.7121795,65.7481894 L74.3044444,66.5487081 Z M78.225641,68.2541609 L78.225641,73.8751942 C78.225641,74.5422964 78.3789016,75.0585678 78.6854274,75.4240238 C78.9919531,75.7894798 79.4546265,75.972205 80.0734615,75.972205 C80.5245749,75.972205 80.9496561,75.8648902 81.3487179,75.6502573 C81.7477798,75.4356244 82.1150268,75.1368831 82.4504701,74.7540244 L82.4504701,68.2541609 L83.9946581,68.2541609 L83.9946581,77.0685675 L83.0750855,77.0685675 C82.8553123,77.0685675 82.7165103,76.9612527 82.6586752,76.7466198 L82.5372222,75.7981792 C82.1555109,76.2216441 81.727538,76.5624412 81.2532906,76.8205808 C80.7790432,77.0787203 80.2354019,77.2077882 79.6223504,77.2077882 C79.1423195,77.2077882 78.7186842,77.1280272 78.3514316,76.9685027 C77.9841791,76.8089783 77.6762121,76.5841972 77.4275214,76.2941527 C77.1788307,76.0041083 76.9923154,75.6531598 76.8679701,75.2412967 C76.7436247,74.8294336 76.681453,74.3740706 76.681453,73.8751942 L76.681453,68.2541609 L78.225641,68.2541609 Z M86.588547,77.0685675 L86.588547,64.2515675 L88.1414103,64.2515675 L88.1414103,69.5245492 C88.5057711,69.1010843 88.923623,68.7602872 89.3949786,68.5021477 C89.8663343,68.2440081 90.405638,68.1149403 91.012906,68.1149403 C91.5218544,68.1149403 91.9816361,68.2106535 92.392265,68.4020828 C92.8028938,68.5935122 93.1527906,68.8792016 93.4419658,69.2591599 C93.731141,69.6391181 93.9538026,70.1089831 94.1099573,70.6687688 C94.2661119,71.2285546 94.344188,71.8738938 94.344188,72.6048058 C94.344188,73.2545054 94.2574368,73.859239 94.0839316,74.4190248 C93.9104265,74.9788106 93.6602937,75.4631775 93.3335256,75.8721402 C93.0067576,76.2811029 92.6077018,76.6030474 92.1363462,76.8379834 C91.6649905,77.0729194 91.1343619,77.1903856 90.5444444,77.1903856 C89.977661,77.1903856 89.4961914,77.0801704 89.1000214,76.8597366 C88.7038513,76.6393028 88.3582921,76.3318603 88.0633333,75.9373999 L87.9852564,76.7379185 C87.9389884,76.9583523 87.8059698,77.0685675 87.5861966,77.0685675 L86.588547,77.0685675 Z M90.5097436,69.3505234 C90.0065787,69.3505234 89.5655931,69.4665395 89.1867735,69.698575 C88.8079539,69.9306106 88.459503,70.2583559 88.1414103,70.6818208 L88.1414103,74.9454528 C88.4190185,75.3283115 88.7269855,75.5980488 89.0653205,75.7546728 C89.4036555,75.9112968 89.7810236,75.9896076 90.1974359,75.9896076 C91.0186936,75.9896076 91.6490861,75.6966671 92.0886325,75.1107773 C92.5281788,74.5248875 92.7479487,73.6895721 92.7479487,72.6048058 C92.7479487,72.0305178 92.6973438,71.5374497 92.5961325,71.1255866 C92.4949211,70.7137234 92.3488898,70.3758267 92.1580342,70.1118863 C91.9671785,69.8479458 91.7329501,69.6550692 91.4553419,69.5332505 C91.1777337,69.4114318 90.8625374,69.3505234 90.5097436,69.3505234 Z M95.8363248,71.1951969 L100.12188,71.1951969 L100.12188,72.5090916 L95.8363248,72.5090916 L95.8363248,71.1951969 Z M108.250556,69.8203931 C108.204288,69.8842028 108.15802,69.9335097 108.111752,69.968315 C108.065484,70.0031203 107.998975,70.0205227 107.912222,70.0205227 C107.82547,70.0205227 107.731489,69.9842677 107.630278,69.9117566 C107.529066,69.8392455 107.400385,69.7594845 107.244231,69.6724711 C107.088076,69.5854578 106.898669,69.5056968 106.676004,69.4331857 C106.453339,69.3606746 106.180073,69.3244195 105.856197,69.3244195 C105.428217,69.3244195 105.049403,69.4012802 104.719744,69.5550037 C104.390084,69.7087273 104.113926,69.930608 103.891261,70.2206524 C103.668596,70.5106969 103.500877,70.8616454 103.388098,71.2735085 C103.27532,71.6853716 103.218932,72.1465353 103.218932,72.6570136 C103.218932,73.1906954 103.279658,73.6649109 103.401111,74.0796745 C103.522565,74.494438 103.693176,74.8424861 103.912949,75.1238293 C104.132722,75.4051724 104.400205,75.619802 104.715406,75.7677247 C105.030607,75.9156474 105.384841,75.9896076 105.77812,75.9896076 C106.154047,75.9896076 106.46346,75.9446514 106.706368,75.8547376 C106.949275,75.7648238 107.151694,75.66476 107.313632,75.5545431 C107.475571,75.4443262 107.608589,75.3442624 107.712692,75.2543486 C107.816795,75.1644348 107.920897,75.1194786 108.025,75.1194786 C108.158021,75.1194786 108.256339,75.1687854 108.319957,75.2674005 L108.753718,75.8329844 C108.372007,76.3028564 107.894875,76.6465539 107.322308,76.8640872 C106.749741,77.0816206 106.145374,77.1903856 105.509188,77.1903856 C104.959755,77.1903856 104.449368,77.0888716 103.978013,76.8858405 C103.506657,76.6828093 103.09748,76.3884186 102.75047,76.0026595 C102.40346,75.6169004 102.130193,75.1426849 101.930662,74.5799986 C101.731131,74.0173124 101.631368,73.3763238 101.631368,72.6570136 C101.631368,72.0015131 101.722456,71.3953293 101.904637,70.838444 C102.086817,70.2815586 102.352854,69.8015423 102.702756,69.3983805 C103.052658,68.9952187 103.484969,68.6805252 103.999701,68.4542906 C104.514433,68.2280559 105.104341,68.1149403 105.769444,68.1149403 C106.382496,68.1149403 106.926137,68.2150041 107.400385,68.4151348 C107.874632,68.6152654 108.29393,68.8980545 108.658291,69.2635105 L108.250556,69.8203931 Z M113.91547,68.1149403 C114.557439,68.1149403 115.137227,68.2222551 115.65485,68.436888 C116.172474,68.6515209 116.612014,68.956063 116.973483,69.3505234 C117.334952,69.7449839 117.612556,70.2220998 117.806303,70.7818856 C118.000051,71.3416714 118.096923,71.9667078 118.096923,72.6570136 C118.096923,73.3531202 118.000051,73.9796069 117.806303,74.5364922 C117.612556,75.0933775 117.334952,75.5690433 116.973483,75.9635037 C116.612014,76.3579642 116.172474,76.6610561 115.65485,76.8727885 C115.137227,77.084521 114.557439,77.1903856 113.91547,77.1903856 C113.273501,77.1903856 112.693713,77.084521 112.17609,76.8727885 C111.658466,76.6610561 111.21748,76.3579642 110.85312,75.9635037 C110.488759,75.5690433 110.208263,75.0933775 110.011624,74.5364922 C109.814985,73.9796069 109.716667,73.3531202 109.716667,72.6570136 C109.716667,71.9667078 109.814985,71.3416714 110.011624,70.7818856 C110.208263,70.2220998 110.488759,69.7449839 110.85312,69.3505234 C111.21748,68.956063 111.658466,68.6515209 112.17609,68.436888 C112.693713,68.2222551 113.273501,68.1149403 113.91547,68.1149403 Z M113.91547,75.9809063 C114.782996,75.9809063 115.430739,75.689416 115.858718,75.1064267 C116.286697,74.5234373 116.500684,73.7098749 116.500684,72.6657149 C116.500684,71.615754 116.286697,70.7978409 115.858718,70.2119511 C115.430739,69.6260613 114.782996,69.3331208 113.91547,69.3331208 C113.475924,69.3331208 113.094218,69.4085313 112.770342,69.5593544 C112.446466,69.7101775 112.176091,69.9277076 111.959209,70.2119511 C111.742328,70.4961947 111.580392,70.845693 111.473397,71.2604565 C111.366403,71.6752201 111.312906,72.1436349 111.312906,72.6657149 C111.312906,73.1877949 111.366403,73.6547594 111.473397,74.0666225 C111.580392,74.4784856 111.742328,74.8250836 111.959209,75.1064267 C112.176091,75.3877698 112.446466,75.6038497 112.770342,75.7546728 C113.094218,75.9054959 113.475924,75.9809063 113.91547,75.9809063 Z M121.723162,64.2515675 L121.723162,77.0685675 L120.178974,77.0685675 L120.178974,64.2515675 L121.723162,64.2515675 Z M126.164872,64.2515675 L126.164872,77.0685675 L124.620684,77.0685675 L124.620684,64.2515675 L126.164872,64.2515675 Z M132.36765,68.1149403 C132.893949,68.1149403 133.379756,68.2034025 133.825085,68.3803296 C134.270415,68.5572567 134.655013,68.812492 134.978889,69.1460431 C135.302765,69.4795942 135.55579,69.8914512 135.73797,70.3816263 C135.92015,70.8718014 136.011239,71.4301286 136.011239,72.0566246 C136.011239,72.3002619 135.985214,72.4626844 135.933162,72.5438968 C135.881111,72.6251092 135.782793,72.6657149 135.638205,72.6657149 L129.791111,72.6657149 C129.802678,73.2226002 129.877863,73.7069672 130.016667,74.1188303 C130.155471,74.5306934 130.346324,74.8743909 130.589231,75.1499331 C130.832138,75.4254753 131.121309,75.6314038 131.456752,75.7677247 C131.792195,75.9040456 132.168118,75.972205 132.58453,75.972205 C132.972025,75.972205 133.306017,75.9272488 133.586517,75.837335 C133.867017,75.7474212 134.108475,75.6502578 134.310897,75.5458418 C134.51332,75.4414258 134.682485,75.3442624 134.818397,75.2543486 C134.95431,75.1644348 135.071424,75.1194786 135.169744,75.1194786 C135.296981,75.1194786 135.395299,75.1687854 135.464701,75.2674005 L135.898462,75.8329844 C135.707606,76.0650199 135.479161,76.2665978 135.21312,76.437724 C134.947078,76.6088503 134.662245,76.7495197 134.358611,76.8597366 C134.054977,76.9699535 133.741227,77.0526149 133.41735,77.1077233 C133.093474,77.1628318 132.772494,77.1903856 132.454402,77.1903856 C131.847134,77.1903856 131.287588,77.0874214 130.775748,76.8814898 C130.263908,76.6755583 129.821476,76.3739166 129.44844,75.9765557 C129.075404,75.5791948 128.784787,75.0875768 128.576581,74.501687 C128.368375,73.9157972 128.264274,73.2429042 128.264274,72.4829878 C128.264274,71.8680935 128.358254,71.2938142 128.546218,70.7601324 C128.734182,70.2264506 129.004557,69.7638366 129.35735,69.3722766 C129.710144,68.9807166 130.141009,68.6732741 130.649957,68.4499399 C131.158906,68.2266057 131.731464,68.1149403 132.36765,68.1149403 Z M132.40235,69.2548092 C131.656278,69.2548092 131.069261,69.4708891 130.641282,69.9030553 C130.213303,70.3352215 129.947265,70.9341543 129.843162,71.6998717 L134.623205,71.6998717 C134.623205,71.3402166 134.574046,71.0110211 134.475726,70.7122753 C134.377407,70.4135295 134.232821,70.1553938 134.041966,69.9378605 C133.85111,69.7203271 133.618328,69.5521039 133.343611,69.4331857 C133.068895,69.3142674 132.755144,69.2548092 132.40235,69.2548092 Z M143.975085,69.8203931 C143.928817,69.8842028 143.88255,69.9335097 143.836282,69.968315 C143.790014,70.0031203 143.723505,70.0205227 143.636752,70.0205227 C143.55,70.0205227 143.456019,69.9842677 143.354808,69.9117566 C143.253596,69.8392455 143.124915,69.7594845 142.968761,69.6724711 C142.812606,69.5854578 142.623199,69.5056968 142.400534,69.4331857 C142.177869,69.3606746 141.904603,69.3244195 141.580726,69.3244195 C141.152747,69.3244195 140.773933,69.4012802 140.444274,69.5550037 C140.114614,69.7087273 139.838456,69.930608 139.615791,70.2206524 C139.393126,70.5106969 139.225407,70.8616454 139.112628,71.2735085 C138.99985,71.6853716 138.943462,72.1465353 138.943462,72.6570136 C138.943462,73.1906954 139.004187,73.6649109 139.125641,74.0796745 C139.247095,74.494438 139.417705,74.8424861 139.637479,75.1238293 C139.857252,75.4051724 140.124735,75.619802 140.439936,75.7677247 C140.755137,75.9156474 141.109371,75.9896076 141.50265,75.9896076 C141.878577,75.9896076 142.18799,75.9446514 142.430897,75.8547376 C142.673805,75.7648238 142.876224,75.66476 143.038162,75.5545431 C143.200101,75.4443262 143.333119,75.3442624 143.437222,75.2543486 C143.541325,75.1644348 143.645427,75.1194786 143.74953,75.1194786 C143.882551,75.1194786 143.980869,75.1687854 144.044487,75.2674005 L144.478248,75.8329844 C144.096537,76.3028564 143.619405,76.6465539 143.046838,76.8640872 C142.474271,77.0816206 141.869903,77.1903856 141.233718,77.1903856 C140.684285,77.1903856 140.173898,77.0888716 139.702543,76.8858405 C139.231187,76.6828093 138.82201,76.3884186 138.475,76.0026595 C138.12799,75.6169004 137.854723,75.1426849 137.655192,74.5799986 C137.455661,74.0173124 137.355897,73.3763238 137.355897,72.6570136 C137.355897,72.0015131 137.446986,71.3953293 137.629167,70.838444 C137.811347,70.2815586 138.077384,69.8015423 138.427286,69.3983805 C138.777188,68.9952187 139.209499,68.6805252 139.724231,68.4542906 C140.238963,68.2280559 140.828871,68.1149403 141.493974,68.1149403 C142.107026,68.1149403 142.650667,68.2150041 143.124915,68.4151348 C143.599162,68.6152654 144.01846,68.8980545 144.382821,69.2635105 L143.975085,69.8203931 Z M148.746453,77.2077882 C148.052432,77.2077882 147.518912,77.0134613 147.145876,76.6248018 C146.77284,76.2361422 146.586325,75.6763648 146.586325,74.9454528 L146.586325,69.5506531 L145.527949,69.5506531 C145.435413,69.5506531 145.357337,69.5230993 145.293718,69.4679908 C145.230099,69.4128824 145.198291,69.3273206 145.198291,69.2113028 L145.198291,68.5935112 L146.638376,68.4107841 L146.99406,65.6872804 C147.005627,65.600267 147.043219,65.5292072 147.106838,65.4740988 C147.170456,65.4189903 147.251424,65.3914365 147.349744,65.3914365 L148.130513,65.3914365 L148.130513,68.4281867 L150.646325,68.4281867 L150.646325,69.5506531 L148.130513,69.5506531 L148.130513,74.8410373 C148.130513,75.2122942 148.220156,75.4878323 148.399444,75.6676599 C148.578733,75.8474874 148.81007,75.9373999 149.093462,75.9373999 C149.2554,75.9373999 149.395648,75.9156469 149.514209,75.8721402 C149.632771,75.8286335 149.735427,75.7807769 149.822179,75.7285689 C149.908932,75.6763609 149.982671,75.6285043 150.043397,75.5849976 C150.104124,75.541491 150.157621,75.5197379 150.203889,75.5197379 C150.284858,75.5197379 150.357151,75.5690448 150.420769,75.6676599 L150.87188,76.4072695 C150.605839,76.6567077 150.284859,76.8524848 149.908932,76.9946066 C149.533004,77.1367284 149.145515,77.2077882 148.746453,77.2077882 Z M154.272564,68.2541609 L154.272564,77.0685675 L152.728376,77.0685675 L152.728376,68.2541609 L154.272564,68.2541609 Z M154.619573,65.4871507 C154.619573,65.6379738 154.58921,65.7786433 154.528483,65.9091633 C154.467756,66.0396833 154.386788,66.1556993 154.285577,66.2572149 C154.184366,66.3587304 154.067251,66.4384914 153.934231,66.4965003 C153.80121,66.5545092 153.659516,66.5835132 153.509145,66.5835132 C153.358774,66.5835132 153.218526,66.5545092 153.088397,66.4965003 C152.958269,66.4384914 152.8426,66.3587304 152.741389,66.2572149 C152.640178,66.1556993 152.560656,66.0396833 152.502821,65.9091633 C152.444985,65.7786433 152.416068,65.6379738 152.416068,65.4871507 C152.416068,65.3363276 152.444985,65.1927577 152.502821,65.0564369 C152.560656,64.920116 152.640178,64.8011995 152.741389,64.699684 C152.8426,64.5981684 152.958269,64.5184074 153.088397,64.4603985 C153.218526,64.4023896 153.358774,64.3733856 153.509145,64.3733856 C153.659516,64.3733856 153.80121,64.4023896 153.934231,64.4603985 C154.067251,64.5184074 154.184366,64.5981684 154.285577,64.699684 C154.386788,64.8011995 154.467756,64.920116 154.528483,65.0564369 C154.58921,65.1927577 154.619573,65.3363276 154.619573,65.4871507 Z M160.553419,68.1149403 C161.195388,68.1149403 161.775175,68.2222551 162.292799,68.436888 C162.810423,68.6515209 163.249963,68.956063 163.611432,69.3505234 C163.972901,69.7449839 164.250505,70.2220998 164.444252,70.7818856 C164.638,71.3416714 164.734872,71.9667078 164.734872,72.6570136 C164.734872,73.3531202 164.638,73.9796069 164.444252,74.5364922 C164.250505,75.0933775 163.972901,75.5690433 163.611432,75.9635037 C163.249963,76.3579642 162.810423,76.6610561 162.292799,76.8727885 C161.775175,77.084521 161.195388,77.1903856 160.553419,77.1903856 C159.91145,77.1903856 159.331662,77.084521 158.814038,76.8727885 C158.296415,76.6610561 157.855429,76.3579642 157.491068,75.9635037 C157.126708,75.5690433 156.846212,75.0933775 156.649573,74.5364922 C156.452933,73.9796069 156.354615,73.3531202 156.354615,72.6570136 C156.354615,71.9667078 156.452933,71.3416714 156.649573,70.7818856 C156.846212,70.2220998 157.126708,69.7449839 157.491068,69.3505234 C157.855429,68.956063 158.296415,68.6515209 158.814038,68.436888 C159.331662,68.2222551 159.91145,68.1149403 160.553419,68.1149403 Z M160.553419,75.9809063 C161.420945,75.9809063 162.068687,75.689416 162.496667,75.1064267 C162.924646,74.5234373 163.138632,73.7098749 163.138632,72.6657149 C163.138632,71.615754 162.924646,70.7978409 162.496667,70.2119511 C162.068687,69.6260613 161.420945,69.3331208 160.553419,69.3331208 C160.113872,69.3331208 159.732167,69.4085313 159.408291,69.5593544 C159.084414,69.7101775 158.81404,69.9277076 158.597158,70.2119511 C158.380277,70.4961947 158.218341,70.845693 158.111346,71.2604565 C158.004351,71.6752201 157.950855,72.1436349 157.950855,72.6657149 C157.950855,73.1877949 158.004351,73.6547594 158.111346,74.0666225 C158.218341,74.4784856 158.380277,74.8250836 158.597158,75.1064267 C158.81404,75.3877698 159.084414,75.6038497 159.408291,75.7546728 C159.732167,75.9054959 160.113872,75.9809063 160.553419,75.9809063 Z M166.643419,77.0685675 L166.643419,68.2541609 L167.562991,68.2541609 C167.782765,68.2541609 167.921567,68.3614757 167.979402,68.5761086 L168.100855,69.5332505 C168.482566,69.1097856 168.909093,68.7675383 169.380449,68.5064983 C169.851804,68.2454583 170.396891,68.1149403 171.015726,68.1149403 C171.495757,68.1149403 171.919393,68.1947013 172.286645,68.3542257 C172.653898,68.5137502 172.960419,68.7399814 173.206218,69.0329263 C173.452017,69.3258712 173.638532,69.6782699 173.765769,70.0901331 C173.893006,70.5019962 173.956624,70.9573591 173.956624,71.4562356 L173.956624,77.0685675 L172.412436,77.0685675 L172.412436,71.4562356 C172.412436,70.7891333 172.260621,70.2714118 171.956987,69.9030553 C171.653353,69.5346989 171.189234,69.3505234 170.564615,69.3505234 C170.107719,69.3505234 169.681191,69.4607387 169.285021,69.6811724 C168.888851,69.9016062 168.52305,70.2003475 168.187607,70.5774053 L168.187607,77.0685675 L166.643419,77.0685675 Z" id="Sub-collection" fill="#3F3F3F"></path>
        </g>
    </g>
</svg>