<?xml version="1.0" encoding="UTF-8"?>
<svg width="38px" height="38px" viewBox="0 0 38 38" version="1.1"
     xmlns="http://www.w3.org/2000/svg">
    <!-- Generator: Sketch 46.2 (44496) - http://www.bohemiancoding.com/sketch -->
    <title>noun_413267_cc</title>
    <desc>Created with Sketch.</desc>
    <defs></defs>
    <g id="Page-1" stroke="none" stroke-width="1" fill="none" fill-rule="evenodd">
        <g id="noun_413267_cc" fill-rule="nonzero" fill="#000000">
            <path d="M33,38 L1,38 C0.4,38 0,37.6 0,37 L0,5 C0,4.4 0.4,4 1,4 L23,4 C23.6,4 24,4.4 24,5 C24,5.6 23.6,6 23,6 L2,6 L2,36 L32,36 L32,16 C32,15.4 32.4,15 33,15 C33.6,15 34,15.4 34,16 L34,37 C34,37.6 33.6,38 33,38 Z" id="Shape"></path>
            <path d="M37,0 L30,0 C29.4,0 29,0.4 29,1 C29,1.6 29.4,2 30,2 L34.6,2 L16.1,20.5 C15.7,20.9 15.7,21.5 16.1,21.9 C16.3,22.1 16.6,22.2 16.8,22.2 C17,22.2 17.3,22.1 17.5,21.9 L36,3.4 L36,8 C36,8.6 36.4,9 37,9 C37.6,9 38,8.6 38,8 L38,1 C38,0.4 37.6,0 37,0 Z" id="Shape"></path>
        </g>
    </g>
</svg>