<?xml version="1.0" encoding="UTF-8"?>
<svg width="66px" height="66px" viewBox="0 0 66 66" version="1.1"
     xmlns="http://www.w3.org/2000/svg">
    <!-- Generator: Sketch 46.2 (44496) - http://www.bohemiancoding.com/sketch -->
    <title>new-tab-icon</title>
    <desc>Created with Sketch.</desc>
    <defs></defs>
    <g id="Page-1" stroke="none" stroke-width="1" fill="none" fill-rule="evenodd">
        <g id="new-tab-icon" fill-rule="nonzero" fill="#FFFFFF">
            <path d="M1.8,65.1 L57.8,65.1 L57.8,65.1 C58.4,65.1 58.8,64.7 58.8,64.1 L58.8,32.1 L56.8,32.1 L56.8,63.1 L2.8,63.1 L2.8,9.1 L33.8,9.1 L33.8,7.1 L1.8,7.1 L1.8,7.1 C1.2,7.1 0.8,7.5 0.8,8.1 L0.8,64.1 C0.8,64.7 1.3,65.1 1.8,65.1 Z" id="Shape"></path>
            <polygon id="Shape" points="65.2 20.2 65.2 0.9 45.8 0.9 45.8 2.9 61.8 2.9 30.8 33.8 32.2 35.2 63.2 4.3 63.2 20.2"></polygon>
        </g>
    </g>
</svg>