<svg width="71px" height="71px" viewBox="-4586 -1211 71 71" version="1.1"
     xmlns="http://www.w3.org/2000/svg">
  <defs></defs>
  <g id="noun_947792_cc" stroke="none" stroke-width="1" fill="none" fill-rule="evenodd" transform="translate(-4586.000000, -1211.000000)">
    <g id="Group" fill-rule="nonzero" fill="#000000">
      <g transform="translate(0.000000, 0.503169)" id="Shape">
        <path d="M58.646142,0.293009111 C58.1129852,0.357033278 57.6174454,0.600449485 57.2408942,0.983286889 L21.5436712,36.6804933 C21.1608498,37.0570241 20.9174348,37.5525334 20.8533934,38.0856622 L19.743979,48.1193822 C19.6648076,48.8338079 19.9145777,49.5455009 20.4228531,50.0537609 C20.9311285,50.562021 21.642829,50.8117696 22.3572523,50.7325767 L32.3908942,49.6231622 C32.9295908,49.5712923 33.4342436,49.3363817 33.8207553,48.9575767 L69.5179776,13.2603702 C69.9635338,12.8162692 70.2139675,12.2130649 70.2139675,11.5839813 C70.2139675,10.9548978 69.9635338,10.3516934 69.5179776,9.90759244 L60.593672,0.983286889 C60.0845008,0.467025614 59.3667818,0.212639022 58.646142,0.293009111 L58.646142,0.293009111 Z M58.9172831,5.98780078 L64.4888109,11.5839813 L63.3794753,12.6933563 L57.8078687,7.12182856 L58.9172831,5.98780078 Z M3.15269946,8.181898 C1.85907946,8.19365244 0.81198724,9.55124344 0.786032796,10.5485647 L0.786032796,67.3485489 C0.786190573,68.5876567 1.9135128,69.7150578 3.15269946,69.7152156 L59.9526998,69.7152156 C61.1918864,69.7150578 62.3192087,68.5876567 62.3193664,67.3485489 L62.3193664,33.4263267 C62.336722,32.1760403 61.2031676,31.0349914 59.9526998,31.0349914 C58.702232,31.0349914 57.568362,32.1760403 57.5860331,33.4263267 L57.5860331,64.9818822 L5.51936644,64.9818822 L5.51936644,12.9152313 L37.074922,12.9152313 C38.325232,12.9329024 39.466202,11.7990324 39.466202,10.5485647 C39.466202,9.29809689 38.325232,8.164219 37.074922,8.181898 L3.15269946,8.181898 L3.15269946,8.181898 Z M54.4550909,10.4499536 L60.0266976,16.0461341 L31.0596442,45.0131322 L24.7731464,45.7280233 L25.4634242,39.4662178 L54.4550909,10.4499536 L54.4550909,10.4499536 Z"></path>
      </g>
    </g>
  </g>
</svg>
