<?xml version="1.0" encoding="UTF-8"?>
<svg width="62px" height="82px" viewBox="0 0 62 82" version="1.1"
     xmlns="http://www.w3.org/2000/svg">
    <g id="Page-1" stroke="none" stroke-width="1" fill="none" fill-rule="evenodd">
        <g id="noun_1050627_cc" fill-rule="nonzero" fill="#FFFFFF">
            <path d="M61.304,62.522 L55.75,54.21 L55.75,31.75 C55.75,19.27 46.511,8.952 34.5,7.251 L34.5,3.75 C34.5,1.817 32.933,0.25 31,0.25 C29.067,0.25 27.5,1.817 27.5,3.75 L27.5,7.251 C15.489,8.952 6.25,19.27 6.25,31.75 L6.25,54.211 L0.696,62.523 C0.094,63.606 0.101,64.935 0.715,66.012 C1.329,67.089 2.453,67.751 3.672,67.751 L58.328,67.751 C59.547,67.751 60.672,67.089 61.285,66.012 C61.897,64.935 61.905,63.606 61.304,62.522 Z M31,81.75 C35.396,81.75 39.178,77.622 40.801,71.75 L21.199,71.75 C22.822,77.622 26.605,81.75 31,81.75 Z" id="Shape"></path>
        </g>
    </g>
</svg>