<svg width="82px" height="82px" viewBox="-478 -683 82 82" version="1.1"
     xmlns="http://www.w3.org/2000/svg">
    <defs></defs>
    <g id="plus-icon" stroke="none" stroke-width="1" fill="none" fill-rule="evenodd" transform="translate(-478.000000, -683.000000)">
        <g id="noun_25957" fill="#FFFFFF">
            <path d="M77.7742045,37.1497273 L44.8502727,37.1497273 L44.8502727,4.22579545 C44.8502727,2.09938636 43.1264091,0.375522727 41,0.375522727 C38.8735909,0.375522727 37.1497273,2.09938636 37.1497273,4.22579545 L37.1497273,37.1497273 L4.22579545,37.1497273 C2.09938636,37.1497273 0.375522727,38.8735909 0.375522727,41 C0.375522727,43.1264091 2.09938636,44.8502727 4.22579545,44.8502727 L37.1497273,44.8502727 L37.1497273,77.7742045 C37.1497273,79.9006136 38.8735909,81.6244773 41,81.6244773 C43.1264091,81.6244773 44.8502727,79.9006136 44.8502727,77.7742045 L44.8502727,44.8502727 L77.7742045,44.8502727 C79.9006136,44.8502727 81.6244773,43.1264091 81.6244773,41 C81.6244773,38.8735909 79.9015455,37.1497273 77.7742045,37.1497273 L77.7742045,37.1497273 L77.7742045,37.1497273 Z" id="Shape"></path>
        </g>
    </g>
</svg>