<svg width="73px" height="73px" viewBox="0 0 73 73" version="1.1"
     xmlns="http://www.w3.org/2000/svg">
    <defs></defs>
    <path d="M48.1727904,51.7727904 C43.0671009,56.0701455 36.4887195,58.6666667 29.3333333,58.6666667 C13.2,58.6666667 0,45.4666667 0,29.3333333 C0,13.2 13.2,0 29.3333333,0 C45.4666667,0 58.6666667,13.2 58.6666667,29.3333333 C58.6666667,36.4238824 56.116988,42.9478362 51.8891895,48.0336359 L71.2,67.4666667 C71.7333333,68 72,68.6666667 72,69.3333333 C72,70 71.7333333,70.6666667 71.2,71.2 C70.6666667,71.7333333 70,72 69.3333333,72 C68.6666667,72 68,71.7333333 67.6,71.2 L48.1727904,51.7727904 Z M29.3333333,53.3333333 C16.1333333,53.3333333 5.33333333,42.5333333 5.33333333,29.3333333 C5.33333333,16.1333333 16.1333333,5.33333333 29.3333333,5.33333333 C42.5333333,5.33333333 53.3333333,16.1333333 53.3333333,29.3333333 C53.3333333,42.5333333 42.5333333,53.3333333 29.3333333,53.3333333 Z" id="Combined-Shape" stroke="none" fill="#000000" fill-rule="evenodd"></path>
</svg>