<?xml version="1.0" encoding="UTF-8"?>
<svg width="20px" height="16px" viewBox="0 0 20 16" version="1.1"
     xmlns="http://www.w3.org/2000/svg">
    <!-- Generator: Sketch 46.1 (44463) - http://www.bohemiancoding.com/sketch -->
    <title>Shape</title>
    <desc>Created with Sketch.</desc>
    <defs></defs>
    <g id="Page-1" stroke="none" stroke-width="1" fill="none" fill-rule="evenodd">
        <g id="share-icon" fill-rule="nonzero" fill="#FFFFFF">
            <path d="M16,4 C16,1.8 14.2,0 12,0 C9.8,0 8,1.8 8,4 C8,6.2 9.8,8 12,8 C14.2,8 16,6.2 16,4 Z M0,3 L0,5 L2,5 L2,7 L4,7 L4,5 L6,5 L6,3 L4,3 L4,1 L2,1 L2,3 L0,3 Z M4,14 L4,16 L20,16 L20,14 C20,11.3 14.7,10 12,10 C9.3,10 4,11.3 4,14 Z" id="Shape"></path>
        </g>
    </g>
</svg>