<svg width="94px" height="60px" viewBox="0 0 94 60" version="1.1"
     xmlns="http://www.w3.org/2000/svg">
    <defs></defs>
    <g id="Group" stroke="none" stroke-width="1" fill="none" fill-rule="evenodd">
        <path d="M55.0818458,0.0414927353 L4.065735,0.0414927353 C1.90086017,0.0414927353 0.149068333,1.79766953 0.149068333,3.96796332 C0.149068333,6.13825712 1.90086017,7.89443391 4.065735,7.89443391 L55.0818458,7.89443391 C57.2467207,7.89443391 58.9985125,6.13825712 58.9985125,3.96796332 C58.9985125,1.79766953 57.2467285,0.0414927353 55.0818458,0.0414927353 Z" id="Shape" fill="#000000"></path>
        <path d="M43.7908322,25.7399365 L4.065735,25.7399365 C1.90086017,25.7399365 0.149068333,27.4961133 0.149068333,29.6664071 C0.149068333,31.8367009 1.90086017,33.5928776 4.065735,33.5928776 L43.7908322,33.5928776 C45.955707,33.5928776 47.7074988,31.8367009 47.7074988,29.6664071 C47.7074988,27.4961133 45.955707,25.7399365 43.7908322,25.7399365 Z" id="Shape" fill="#000000"></path>
        <path d="M33.4789852,51.4383724 L4.065735,51.4383724 C1.90086017,51.4383724 0.149068333,53.1945491 0.149068333,55.3648429 C0.149068333,57.5351367 1.90086017,59.2913135 4.065735,59.2913135 L33.4789852,59.2913135 C35.64386,59.2913135 37.3956518,57.5351367 37.3956518,55.3648429 C37.3956518,53.1945491 35.64386,51.4383724 33.4789852,51.4383724 Z" id="Shape" fill="#000000"></path>
        <path d="M92.7032387,42.0133116 C91.1733182,40.479538 88.6948045,40.479538 87.1648605,42.0133116 L82.6438678,46.5456209 L82.6438678,4.07532088 C82.6438678,1.90502709 80.892076,0.148850294 78.7272012,0.148850294 C76.5623263,0.148850294 74.8105345,1.90502709 74.8105345,4.07532088 L74.8105345,46.5537723 L70.289534,42.0133116 C68.75959,40.479538 66.2810685,40.479538 64.7511245,42.0133116 C63.2211805,43.5470853 63.2211805,46.0318108 64.7511245,47.5655845 L75.9503472,58.808177 C76.6847222,59.5443903 77.6791873,59.9585073 78.7195558,59.9585073 C79.7599243,59.9585073 80.7543895,59.5443903 81.4887645,58.808177 L92.7032543,47.5655845 C94.2332218,46.0318108 94.2332218,43.5470931 92.7032387,42.0133116 Z" id="Shape" fill="#000000"></path>
    </g>
</svg>