<svg width="100px" height="100px" viewBox="0 0 100 100" version="1.1"
     xmlns="http://www.w3.org/2000/svg">
    <defs></defs>
    <g id="Group" stroke="none" stroke-width="1" fill="none" fill-rule="evenodd">
        <path d="M50.637,39.2 L56.94,32.889 C57.43,32.409 57.579,31.678 57.334,31.037 C54.252,23.172 55.782,15.124 61.416,9.493 C66.537,4.36 73.937,2.36 80.866,4.061 L71.576,13.351 C69.566,15.363 68.451,18.039 68.451,20.889 C68.451,23.736 69.566,26.405 71.576,28.425 C73.596,30.433 76.264,31.55 79.111,31.55 C81.96,31.55 84.639,30.433 86.645,28.425 L95.935,19.135 C97.636,26.067 95.64,33.462 90.505,38.588 C84.87,44.22 76.826,45.749 68.96,42.669 C68.066,42.316 67.069,42.764 66.718,43.657 C66.367,44.55 66.813,45.547 67.696,45.9 C70.811,47.121 73.946,47.717 76.996,47.717 C82.948,47.717 88.572,45.431 92.962,41.041 C99.721,34.281 101.825,24.161 98.339,15.254 C98.127,14.715 97.66,14.311 97.084,14.193 C96.511,14.074 95.915,14.256 95.501,14.669 L84.193,25.969 C82.842,27.328 81.035,28.073 79.111,28.073 C77.198,28.073 75.392,27.328 74.032,25.969 C72.671,24.61 71.927,22.8 71.927,20.888 C71.927,18.962 72.671,17.157 74.032,15.808 L85.328,4.498 C85.744,4.083 85.924,3.488 85.807,2.914 C85.69,2.34 85.288,1.873 84.735,1.66 C75.837,-1.826 65.72,0.278 58.959,7.04 C52.582,13.416 50.658,22.388 53.698,31.22 L48.182,36.746 C47.502,37.425 47.502,38.521 48.182,39.2 C48.852,39.88 49.957,39.88 50.637,39.2 L50.637,39.2 Z" id="Shape" fill="#000000"></path>
        <path d="M41.869,68.294 L15.945,94.228 C15.903,94.258 12.619,97.428 8.92,96.258 C8.005,95.971 7.028,96.48 6.741,97.394 C6.453,98.31 6.953,99.287 7.867,99.575 C8.824,99.87 9.749,100 10.631,100 C15.01,100 18.221,96.854 18.391,96.682 L44.324,70.748 C45.004,70.069 45.004,68.972 44.324,68.294 C43.644,67.625 42.549,67.625 41.869,68.294 L41.869,68.294 Z" id="Shape" fill="#000000"></path>
        <path d="M38.011,51.818 C38.691,51.149 38.691,50.043 38.011,49.363 C37.329,48.692 36.235,48.692 35.554,49.363 L3.308,81.61 C3.117,81.812 -1.38,86.394 0.428,92.124 C0.661,92.868 1.352,93.346 2.086,93.346 C2.256,93.346 2.438,93.314 2.607,93.261 C3.522,92.973 4.031,91.993 3.745,91.081 C2.576,87.382 5.744,84.1 5.765,84.068 L38.011,51.818 L38.011,51.818 Z" id="Shape" fill="#000000"></path>
        <path d="M63.253,49.363 C63.062,49.18 62.829,49.033 62.573,48.947 L44.024,42.76 L25.395,24.128 C25.066,23.801 24.629,23.619 24.173,23.619 L12.535,23.619 L4.265,9.855 L8.665,5.454 L22.431,13.724 L22.431,19.048 C22.431,20.007 23.216,20.779 24.174,20.779 C25.131,20.779 25.906,20.007 25.906,19.048 L25.906,12.737 C25.906,12.131 25.587,11.567 25.067,11.246 L9.292,1.789 C8.601,1.374 7.729,1.479 7.167,2.041 L0.854,8.356 C0.3,8.92 0.183,9.791 0.597,10.473 L10.058,26.245 C10.377,26.776 10.94,27.096 11.546,27.096 L23.45,27.096 L41.869,45.515 C41.876,45.523 41.887,45.525 41.894,45.532 C42.038,45.67 42.208,45.781 42.399,45.865 C42.427,45.878 42.454,45.891 42.483,45.902 C42.506,45.91 42.525,45.923 42.549,45.931 L61.085,52.119 L92.344,83.367 C92.387,83.409 96.234,87.392 95.065,91.082 C94.78,91.994 95.289,92.974 96.204,93.262 C96.384,93.315 96.555,93.347 96.725,93.347 C97.469,93.347 98.148,92.869 98.383,92.125 C100.191,86.396 95.023,81.133 94.801,80.911 L63.253,49.363 L63.253,49.363 Z" id="Shape" fill="#000000"></path>
        <path d="M89.899,96.258 C86.178,97.428 82.216,93.568 82.183,93.537 L50.923,62.277 L47.895,53.201 C47.597,52.297 46.609,51.806 45.706,52.105 C44.791,52.402 44.302,53.391 44.6,54.296 L47.758,63.764 C47.843,64.02 47.991,64.254 48.183,64.436 L79.729,95.991 C79.91,96.173 83.756,99.957 88.433,99.957 C89.251,99.957 90.092,99.84 90.943,99.574 C91.855,99.286 92.357,98.309 92.069,97.393 C91.78,96.479 90.804,95.971 89.899,96.258 L89.899,96.258 Z" id="Shape" fill="#000000"></path>
        <path d="M87.265,90.188 C87.711,90.188 88.146,90.016 88.487,89.678 C89.166,88.996 89.166,87.904 88.487,87.222 L56.939,55.676 C56.26,54.996 55.165,54.996 54.484,55.676 C53.804,56.36 53.804,57.451 54.484,58.134 L86.03,89.679 C86.371,90.017 86.817,90.188 87.265,90.188 L87.265,90.188 Z" id="Shape" fill="#000000"></path>
    </g>
</svg>