<svg xmlns="http://www.w3.org/2000/svg" data-name="Layer 1" viewBox="0 0 100 100" x="0px"
     y="0px">
    <title>47 all</title>
    <g>">
        <g>">
            <g>">
                <polygon
                        points="65.75 58.28 50 42.53 34.25 58.28 28.59 52.62 50 31.21 71.41 52.62 65.75 58.28"/>
            </g>
            <g>">
                <rect x="45.66" y="36.11" width="8" height="35.02"/>
            </g>
        </g>
        <g>">
            <path d="M81.5,87.19h-54a26.5,26.5,0,0,1-10.07-51,34.38,34.38,0,0,1,66.94,11,32.56,32.56,0,0,1-.57,5.15,17.5,17.5,0,0,1-2.3,34.85ZM50,20.81A26.39,26.39,0,0,0,24.55,40.28a4,4,0,0,1-2.65,2.77,18.58,18.58,0,0,0-7.47,4.55A18.5,18.5,0,0,0,27.5,79.19h54a9.5,9.5,0,0,0,0-19H78.92A4,4,0,0,1,75,55.24L75.1,55a46.05,46.05,0,0,0,1.28-7.78A26.38,26.38,0,0,0,50,20.81Z"/>
        </g>
    </g>
</svg>