<svg width="70px" height="44px" viewBox="0 0 70 44" version="1.1"
     xmlns="http://www.w3.org/2000/svg">
    <defs></defs>
    <g id="Group" stroke="none" stroke-width="1" fill="none" fill-rule="evenodd">
        <path d="M35,36.756 C26.3698485,36.756 19.349697,30.136 19.349697,22 C19.349697,13.864 26.3698485,7.244 35,7.244 C43.6301515,7.244 50.650303,13.863 50.650303,22 C50.650303,30.137 43.6301515,36.756 35,36.756 L35,36.756 Z M35,43.432 C13.7461921,43.432 0.562560936,22.779 0.431931818,22.571 L0.451751408,21.399 C1.02832131,20.548 14.8047384,0.568 35,0.568 C55.1952616,0.568 68.9716787,20.548 69.5482486,21.399 L69.5680682,22.571 C69.4374391,22.779 56.2538079,43.432 35,43.432 Z" id="Combined-Shape" fill="#c831fd"></path>
    </g>
</svg>