<svg width="70px" height="44px" viewBox="0 0 70 44" version="1.1"
     xmlns="http://www.w3.org/2000/svg">
    <defs></defs>
    <g id="Group" stroke="none" stroke-width="1" fill="none" fill-rule="evenodd">
        <path d="M35,36.756 C26.3698485,36.756 19.349697,30.136 19.349697,22 C19.349697,13.864 26.3698485,7.244 35,7.244 C43.6301515,7.244 50.650303,13.863 50.650303,22 C50.650303,30.137 43.6301515,36.756 35,36.756 L35,36.756 Z M35,9.244 C27.539697,9.244 21.4709091,14.967 21.4709091,22 C21.4709091,29.033 27.539697,34.756 35,34.756 C42.460303,34.756 48.5290909,29.034 48.5290909,22 C48.5290909,14.966 42.460303,9.244 35,9.244 L35,9.244 Z" id="Shape" fill="#000000"></path>
        <path d="M35,43.432 C13.7461921,43.432 0.562560936,22.779 0.431931818,22.571 L0.451751408,21.399 C1.02832131,20.548 14.8047384,0.568 35,0.568 C55.1952616,0.568 68.9716787,20.548 69.5482486,21.399 L69.5680682,22.571 C69.4374391,22.779 56.2538079,43.432 35,43.432 L35,43.432 Z M2.30848666,22.021 C4.60755914,25.34 16.7038155,41.432 35,41.432 C53.3196077,41.432 65.3969453,25.341 67.6915133,22.022 C65.2564064,18.73 52.4070056,2.568 35,2.568 C17.5938953,2.568 4.74539538,18.728 2.30848666,22.021 L2.30848666,22.021 Z" id="Shape" fill="#000000"></path>
    </g>
</svg>