<svg width="80px" height="81px" viewBox="0 0 80 81" version="1.1"
     xmlns="http://www.w3.org/2000/svg">
    <defs></defs>
    <path d="M6.36363636,0.329986222 C2.86963255,0.329986222 0,3.20599956 0,6.707764 L0,32.2188751 C0,35.7206396 2.86963255,38.5966529 6.36363636,38.5966529 L31.8181818,38.5966529 C35.3121855,38.5966529 38.1818182,35.7206396 38.1818182,32.2188751 L38.1818182,6.707764 C38.1818182,3.20599956 35.3121855,0.329986222 31.8181818,0.329986222 L6.36363636,0.329986222 L6.36363636,0.329986222 Z M48.1818182,0.329986222 C44.6878145,0.329986222 41.8181818,3.20599956 41.8181818,6.707764 L41.8181818,32.2188751 C41.8181818,35.7206396 44.6878145,38.5966529 48.1818182,38.5966529 L73.6363636,38.5966529 C77.1303673,38.5966529 80,35.7206396 80,32.2188751 L80,6.707764 C80,3.20599956 77.1303673,0.329986222 73.6363636,0.329986222 L48.1818182,0.329986222 L48.1818182,0.329986222 Z M6.36363636,3.97443067 L31.8181818,3.97443067 C33.3605391,3.97443067 34.5454545,5.161982 34.5454545,6.707764 L34.5454545,32.2188751 C34.5454545,33.7646571 33.3605391,34.9522084 31.8181818,34.9522084 L6.36363636,34.9522084 C4.82127909,34.9522084 3.63636364,33.7646571 3.63636364,32.2188751 L3.63636364,6.707764 C3.63636364,5.161982 4.82127909,3.97443067 6.36363636,3.97443067 L6.36363636,3.97443067 Z M48.1818182,3.97443067 L73.6363636,3.97443067 C75.1787209,3.97443067 76.3636364,5.161982 76.3636364,6.707764 L76.3636364,32.2188751 C76.3636364,33.7646571 75.1787209,34.9522084 73.6363636,34.9522084 L48.1818182,34.9522084 C46.6394609,34.9522084 45.4545455,33.7646571 45.4545455,32.2188751 L45.4545455,6.707764 C45.4545455,5.161982 46.6394609,3.97443067 48.1818182,3.97443067 L48.1818182,3.97443067 Z M6.36363636,42.2410973 C2.86963255,42.2410973 0,45.1171107 0,48.6188751 L0,74.1299862 C0,77.6317507 2.86963255,80.507764 6.36363636,80.507764 L31.8181818,80.507764 C35.3121855,80.507764 38.1818182,77.6317507 38.1818182,74.1299862 L38.1818182,48.6188751 C38.1818182,45.1171107 35.3121855,42.2410973 31.8181818,42.2410973 L6.36363636,42.2410973 L6.36363636,42.2410973 Z M48.1818182,42.2410973 C44.6878145,42.2410973 41.8181818,45.1171107 41.8181818,48.6188751 L41.8181818,74.1299862 C41.8181818,77.6317507 44.6878145,80.507764 48.1818182,80.507764 L73.6363636,80.507764 C77.1303673,80.507764 80,77.6317507 80,74.1299862 L80,48.6188751 C80,45.1171107 77.1303673,42.2410973 73.6363636,42.2410973 L48.1818182,42.2410973 L48.1818182,42.2410973 Z M6.36363636,45.8855418 L31.8181818,45.8855418 C33.3605391,45.8855418 34.5454545,47.073084 34.5454545,48.6188751 L34.5454545,74.1299862 C34.5454545,75.6757773 33.3605391,76.8633196 31.8181818,76.8633196 L6.36363636,76.8633196 C4.82127909,76.8633196 3.63636364,75.6757773 3.63636364,74.1299862 L3.63636364,48.6188751 C3.63636364,47.073084 4.82127909,45.8855418 6.36363636,45.8855418 L6.36363636,45.8855418 Z M48.1818182,45.8855418 L73.6363636,45.8855418 C75.1787209,45.8855418 76.3636364,47.073084 76.3636364,48.6188751 L76.3636364,74.1299862 C76.3636364,75.6757773 75.1787209,76.8633196 73.6363636,76.8633196 L48.1818182,76.8633196 C46.6394609,76.8633196 45.4545455,75.6757773 45.4545455,74.1299862 L45.4545455,48.6188751 C45.4545455,47.073084 46.6394609,45.8855418 48.1818182,45.8855418 L48.1818182,45.8855418 Z" id="Shape" stroke="none" fill="#000000" fill-rule="evenodd"></path>
</svg>